<svg width="579" height="146" viewBox="0 0 579 146" fill="none" xmlns="http://www.w3.org/2000/svg">
<path d="M36.556 16.456H40.28C40.28 28.996 40.28 41.46 40.28 54H36.556V46.02C32.908 51.872 27.284 54.608 21.204 54.608C10.716 54.608 2.128 46.704 2.128 35.228C2.128 23.752 10.716 16 21.204 16C27.284 16 33.44 18.812 36.556 24.664V16.456ZM21.204 19.572C12.692 19.572 5.852 25.804 5.852 35.228C5.852 44.652 12.692 50.96 21.204 50.96C42.104 50.96 42.104 19.572 21.204 19.572ZM109.774 54H106.05V31.504C106.05 24.284 101.186 19.192 94.0423 19.192C86.8983 19.192 81.9583 24.512 81.9583 31.732V54H78.2343V31.732C78.2343 24.512 73.2943 19.268 66.1503 19.268C59.0063 19.268 54.1423 24.512 54.1423 31.732V54H50.4183V16.456H53.9143L53.9903 22.688C56.5743 17.748 61.3623 15.696 66.2263 15.696C71.9263 15.696 77.9303 18.28 80.1343 24.968C82.4143 18.812 88.2663 15.696 94.0423 15.696C103.238 15.696 109.774 22.156 109.774 31.504V54ZM139.334 19.42C130.67 19.42 123.982 25.804 123.982 35.152C123.982 44.5 130.518 50.96 139.334 50.96C147.77 50.96 154.686 45.64 154.686 35.228C154.686 24.664 147.77 19.42 139.334 19.42ZM120.258 0.799996H123.906V24.664C126.946 18.584 133.026 15.848 139.486 15.848C149.974 15.848 158.334 22.84 158.334 35.228C158.334 47.692 150.05 54.608 139.562 54.608C133.178 54.608 127.022 51.416 123.906 45.716V54H120.258V0.799996ZM171.185 16.304V54H167.461V16.304H171.185ZM166.397 4.22C166.397 8.172 172.401 8.172 172.401 4.22C172.401 0.267999 166.397 0.267999 166.397 4.22ZM186.8 5.512L190.448 5.132V16.456H203.216V19.572H190.448V42.448C190.448 47.54 191.512 51.112 197.364 51.112C199.188 51.112 201.24 50.504 203.14 49.592L204.432 52.632C202.076 53.772 199.72 54.532 197.364 54.532C189.384 54.532 186.8 49.82 186.8 42.448V19.572H178.82V16.456H186.8V5.512ZM215.494 16.304V54H211.77V16.304H215.494ZM210.706 4.22C210.706 8.172 216.71 8.172 216.71 4.22C216.71 0.267999 210.706 0.267999 210.706 4.22ZM244.313 54.532C233.749 54.532 225.237 47.236 225.237 35.304C225.237 23.372 233.749 15.772 244.313 15.772C254.877 15.772 263.389 23.372 263.389 35.304C263.389 47.236 254.877 54.532 244.313 54.532ZM244.313 50.884C252.825 50.884 259.741 45.032 259.741 35.304C259.741 25.576 252.825 19.268 244.313 19.268C235.801 19.268 228.885 25.576 228.885 35.304C228.885 45.032 235.801 50.884 244.313 50.884ZM305.857 54H302.209V47.236C299.321 52.404 294.077 54.532 288.833 54.608C278.801 54.608 271.885 48.452 271.885 38.04V16.38H275.609V37.964C275.609 46.476 280.853 51.036 288.985 50.96C296.737 50.884 302.133 45.032 302.133 37.28V16.38H305.857V54ZM343.72 20.864L341.44 23.296C337.64 19.952 333.916 19.344 329.736 19.344C323.884 19.268 318.26 21.472 318.412 26.26C318.564 31.276 325.1 32.264 329.812 33.1C336.5 34.24 345.696 35.38 345.316 44.12C345.088 52.404 336.5 54.608 329.888 54.608C323.276 54.608 316.74 52.1 313.472 47.084L316.208 44.652C319.324 49.136 324.948 51.036 329.964 51.036C334.524 51.036 341.44 49.82 341.668 43.892C341.82 38.496 335.588 37.432 329.432 36.444C322.136 35.228 314.916 33.86 314.84 26.336C314.764 18.964 322.136 15.772 329.736 15.848C335.208 15.848 339.996 17.368 343.72 20.864ZM406.908 16.456H410.632C410.632 28.996 410.632 41.46 410.632 54H406.908V46.02C403.26 51.872 397.636 54.608 391.556 54.608C381.068 54.608 372.48 46.704 372.48 35.228C372.48 23.752 381.068 16 391.556 16C397.636 16 403.792 18.812 406.908 24.664V16.456ZM391.556 19.572C383.044 19.572 376.204 25.804 376.204 35.228C376.204 44.652 383.044 50.96 391.556 50.96C412.456 50.96 412.456 19.572 391.556 19.572ZM439.104 19.42C430.44 19.42 423.752 25.804 423.752 35.152C423.752 44.5 430.288 50.96 439.104 50.96C447.54 50.96 454.456 45.64 454.456 35.228C454.456 24.664 447.54 19.42 439.104 19.42ZM420.028 0.799996H423.676V24.664C426.716 18.584 432.796 15.848 439.256 15.848C449.744 15.848 458.104 22.84 458.104 35.228C458.104 47.692 449.82 54.608 439.332 54.608C432.948 54.608 426.792 51.416 423.676 45.716V54H420.028V0.799996ZM484.559 54.532C473.995 54.532 465.483 47.236 465.483 35.304C465.483 23.372 473.995 15.772 484.559 15.772C495.123 15.772 503.635 23.372 503.635 35.304C503.635 47.236 495.123 54.532 484.559 54.532ZM484.559 50.884C493.071 50.884 499.987 45.032 499.987 35.304C499.987 25.576 493.071 19.268 484.559 19.268C476.047 19.268 469.131 25.576 469.131 35.304C469.131 45.032 476.047 50.884 484.559 50.884ZM546.103 54H542.455V47.236C539.567 52.404 534.323 54.532 529.079 54.608C519.047 54.608 512.131 48.452 512.131 38.04V16.38H515.855V37.964C515.855 46.476 521.099 51.036 529.231 50.96C536.983 50.884 542.379 45.032 542.379 37.28V16.38H546.103V54ZM560.862 5.512L564.51 5.132V16.456H577.278V19.572H564.51V42.448C564.51 47.54 565.574 51.112 571.426 51.112C573.25 51.112 575.302 50.504 577.202 49.592L578.494 52.632C576.138 53.772 573.782 54.532 571.426 54.532C563.446 54.532 560.862 49.82 560.862 42.448V19.572H552.882V16.456H560.862V5.512Z" fill="white"/>
<path d="M32.452 97.7L32.756 92.532H41.648V130H32.908L32.452 124.528C30.324 128.936 24.472 131.064 20.292 131.14C9.196 131.216 0.988 124.376 0.988 111.228C0.988 98.308 9.576 91.544 20.52 91.62C25.536 91.62 30.324 93.976 32.452 97.7ZM21.356 99.904C15.2 99.904 10.26 104.084 10.26 111.228C10.26 118.372 15.2 122.628 21.356 122.628C35.948 122.628 35.948 99.904 21.356 99.904ZM70.2489 121.944C76.5569 121.944 80.8889 117.156 80.8889 111.304C80.8889 105.452 76.9369 100.664 70.2489 100.664C63.5609 100.664 59.6089 105.452 59.6089 111.304C59.6089 117.156 63.9409 121.944 70.2489 121.944ZM58.7729 145.656H49.5009V92.532H58.1649L58.7729 97.7C61.6609 93.52 66.6769 91.696 70.9329 91.696C82.4849 91.696 90.1609 100.284 90.1609 111.304C90.1609 122.248 83.2449 130.912 71.2369 130.912C67.2849 130.912 61.4329 129.696 58.7729 125.592V145.656ZM117.749 121.944C124.057 121.944 128.389 117.156 128.389 111.304C128.389 105.452 124.437 100.664 117.749 100.664C111.061 100.664 107.109 105.452 107.109 111.304C107.109 117.156 111.441 121.944 117.749 121.944ZM106.273 145.656H97.0009V92.532H105.665L106.273 97.7C109.161 93.52 114.177 91.696 118.433 91.696C129.985 91.696 137.661 100.284 137.661 111.304C137.661 122.248 130.745 130.912 118.737 130.912C114.785 130.912 108.933 129.696 106.273 125.592V145.656ZM144.501 76.876H153.697V130H144.501V76.876ZM171.066 92.38V130H161.794V92.38H171.066ZM160.958 81.968C160.958 89.188 171.902 89.188 171.902 81.968C171.902 74.748 160.958 74.748 160.958 81.968ZM208.87 97.7L209.174 92.532H218.066V130H209.326L208.87 124.528C206.742 128.936 200.89 131.064 196.71 131.14C185.614 131.216 177.406 124.376 177.406 111.228C177.406 98.308 185.994 91.544 196.938 91.62C201.954 91.62 206.742 93.976 208.87 97.7ZM197.774 99.904C191.618 99.904 186.678 104.084 186.678 111.228C186.678 118.372 191.618 122.628 197.774 122.628C212.366 122.628 212.366 99.904 197.774 99.904ZM262.779 130H253.507V110.392C253.507 104.692 250.391 100.36 244.463 100.36C238.763 100.36 234.887 105.148 234.887 110.848V130H225.691V92.456H233.975L234.583 97.548C238.383 93.824 242.183 91.924 246.895 91.924C255.711 91.924 262.779 98.536 262.779 110.316V130ZM296.663 119.132L302.895 125.212C298.563 129.468 294.003 131.14 288.455 131.14C277.587 131.14 268.543 124.604 268.543 111.304C268.543 98.004 277.587 91.468 288.455 91.468C293.775 91.468 297.879 92.988 301.983 97.016L296.131 103.172C293.927 101.196 291.191 100.208 288.607 100.208C282.375 100.208 277.815 104.768 277.815 111.304C277.815 118.448 282.679 122.248 288.455 122.248C291.419 122.248 294.383 121.412 296.663 119.132ZM345.614 114.572H316.354C316.962 119.208 320.99 122.552 327.526 122.552C330.946 122.552 335.43 121.26 337.558 119.056L343.486 124.908C339.534 129.012 333.074 130.988 327.374 130.988C314.454 130.988 306.778 123.008 306.778 111C306.778 99.6 314.53 91.392 326.69 91.392C339.23 91.392 347.058 99.144 345.614 114.572ZM316.506 106.896H336.722C336.114 102.032 332.314 99.6 326.994 99.6C321.978 99.6 317.874 102.032 316.506 106.896Z" fill="#E61A3F"/>
</svg>
