<svg width="1166" height="597" viewBox="0 0 1166 597" fill="none" xmlns="http://www.w3.org/2000/svg">
<path d="M227.201 67.144L223.001 79H221.705L219.785 73.816L218.345 69.208L216.857 73.84L214.937 79H213.641L209.417 67.144H210.713L214.289 77.632L217.913 67.144H218.753L222.353 77.632L225.905 67.144H227.201ZM234.585 79.168C231.249 79.168 228.561 76.864 228.561 73.096C228.561 69.328 231.249 66.928 234.585 66.928C237.921 66.928 240.609 69.328 240.609 73.096C240.609 76.864 237.921 79.168 234.585 79.168ZM234.585 78.016C237.273 78.016 239.457 76.168 239.457 73.096C239.457 70.024 237.273 68.032 234.585 68.032C231.897 68.032 229.713 70.024 229.713 73.096C229.713 76.168 231.897 78.016 234.585 78.016ZM243.316 67.144H244.42L244.468 69.256C245.212 67.648 246.892 67.024 248.404 67.024C249.292 67 250.156 67.24 250.948 67.72L250.42 68.68C249.796 68.296 249.1 68.128 248.404 68.128C246.196 68.152 244.492 69.928 244.492 72.088V79H243.316V67.144ZM252.715 62.2H253.867V72.328L259.459 67.144H261.019V67.192L255.019 72.736L261.715 78.928V79H260.227L253.867 73.192V79H252.715V62.2ZM278.703 68.536L277.983 69.304C276.783 68.248 275.607 68.056 274.287 68.056C272.439 68.032 270.663 68.728 270.711 70.24C270.759 71.824 272.823 72.136 274.311 72.4C276.423 72.76 279.327 73.12 279.207 75.88C279.135 78.496 276.423 79.192 274.335 79.192C272.247 79.192 270.183 78.4 269.151 76.816L270.015 76.048C270.999 77.464 272.775 78.064 274.359 78.064C275.799 78.064 277.983 77.68 278.055 75.808C278.103 74.104 276.135 73.768 274.191 73.456C271.887 73.072 269.607 72.64 269.583 70.264C269.559 67.936 271.887 66.928 274.287 66.952C276.015 66.952 277.527 67.432 278.703 68.536ZM292.048 67.144H293.224C293.224 71.104 293.224 75.04 293.224 79H292.048V76.48C290.896 78.328 289.12 79.192 287.2 79.192C283.888 79.192 281.176 76.696 281.176 73.072C281.176 69.448 283.888 67 287.2 67C289.12 67 291.064 67.888 292.048 69.736V67.144ZM287.2 68.128C284.512 68.128 282.352 70.096 282.352 73.072C282.352 76.048 284.512 78.04 287.2 78.04C293.8 78.04 293.8 68.128 287.2 68.128ZM298.801 79H297.649V68.272H295.225V67.24H297.649V66.184C297.649 63.832 298.585 62.128 301.201 62.128C302.089 62.128 302.881 62.44 303.553 62.944L302.977 63.808C302.329 63.424 301.873 63.208 301.153 63.208C299.665 63.208 298.801 64.12 298.801 66.184V67.24H302.713V68.272H298.801V79ZM310.824 79.168C307.488 79.168 304.8 76.84 304.8 73.072C304.8 69.52 307.488 66.952 310.824 66.952C314.16 66.952 317.136 68.992 316.68 73.624H306C306.24 76.408 308.376 78.016 310.824 78.016C312.384 78.016 314.208 77.392 315.096 76.216L315.936 76.888C314.784 78.4 312.72 79.168 310.824 79.168ZM306 72.592H315.624C315.6 69.664 313.68 68.032 310.824 68.032C308.376 68.032 306.264 69.688 306 72.592ZM327.508 67.096V79H326.332V67.096H327.508ZM325.996 63.28C325.996 64.528 327.892 64.528 327.892 63.28C327.892 62.032 325.996 62.032 325.996 63.28ZM330.879 67.144H332.031V69.256C332.943 67.624 334.599 66.952 336.255 66.928C339.423 66.928 341.607 68.872 341.607 72.16V79H340.431V72.184C340.431 69.496 338.775 68.056 336.207 68.08C333.759 68.104 332.055 69.952 332.055 72.4V79H330.879V67.144ZM353.539 68.536L352.819 69.304C351.619 68.248 350.443 68.056 349.123 68.056C347.275 68.032 345.499 68.728 345.547 70.24C345.595 71.824 347.659 72.136 349.147 72.4C351.259 72.76 354.163 73.12 354.043 75.88C353.971 78.496 351.259 79.192 349.171 79.192C347.083 79.192 345.019 78.4 343.987 76.816L344.851 76.048C345.835 77.464 347.611 78.064 349.195 78.064C350.635 78.064 352.819 77.68 352.891 75.808C352.939 74.104 350.971 73.768 349.027 73.456C346.723 73.072 344.443 72.64 344.419 70.264C344.395 67.936 346.723 66.928 349.123 66.952C350.851 66.952 352.363 67.432 353.539 68.536ZM367.364 79H366.212V76.864C365.3 78.496 363.644 79.168 361.988 79.192C358.82 79.192 356.636 77.248 356.636 73.96V67.12H357.812V73.936C357.812 76.624 359.468 78.064 362.036 78.04C364.484 78.016 366.188 76.168 366.188 73.72V67.12H367.364V79ZM370.465 67.144H371.569L371.617 69.256C372.361 67.648 374.041 67.024 375.553 67.024C376.441 67 377.305 67.24 378.097 67.72L377.569 68.68C376.945 68.296 376.249 68.128 375.553 68.128C373.345 68.152 371.641 69.928 371.641 72.088V79H370.465V67.144ZM385.215 79.168C381.879 79.168 379.191 76.84 379.191 73.072C379.191 69.52 381.879 66.952 385.215 66.952C388.551 66.952 391.527 68.992 391.071 73.624H380.391C380.631 76.408 382.767 78.016 385.215 78.016C386.775 78.016 388.599 77.392 389.487 76.216L390.327 76.888C389.175 78.4 387.111 79.168 385.215 79.168ZM380.391 72.592H390.015C389.991 69.664 388.071 68.032 385.215 68.032C382.767 68.032 380.655 69.688 380.391 72.592ZM399.465 68.08C396.801 68.08 394.617 69.736 394.617 73.072C394.617 76.36 396.801 78.04 399.465 78.04C402.249 78.04 404.313 76 404.313 73.048C404.313 70.096 402.201 68.08 399.465 68.08ZM404.337 62.2H405.489V79H404.337V76.384C403.353 78.184 401.409 79.192 399.393 79.192C396.081 79.192 393.465 77.008 393.465 73.072C393.465 69.16 396.105 66.952 399.417 66.952C401.457 66.952 403.377 67.816 404.337 69.736V62.2ZM211.482 91.144H212.658C212.658 95.104 212.658 99.04 212.658 103H211.482V100.48C210.33 102.328 208.554 103.192 206.634 103.192C203.322 103.192 200.61 100.696 200.61 97.072C200.61 93.448 203.322 91 206.634 91C208.554 91 210.498 91.888 211.482 93.736V91.144ZM206.634 92.128C203.946 92.128 201.786 94.096 201.786 97.072C201.786 100.048 203.946 102.04 206.634 102.04C213.234 102.04 213.234 92.128 206.634 92.128ZM215.859 91.144H217.011V93.256C217.923 91.624 219.579 90.952 221.235 90.928C224.403 90.928 226.587 92.872 226.587 96.16V103H225.411V96.184C225.411 93.496 223.755 92.056 221.187 92.08C218.739 92.104 217.035 93.952 217.035 96.4V103H215.859V91.144ZM235.016 92.08C232.352 92.08 230.168 93.736 230.168 97.072C230.168 100.36 232.352 102.04 235.016 102.04C237.8 102.04 239.864 100 239.864 97.048C239.864 94.096 237.752 92.08 235.016 92.08ZM239.888 86.2H241.04V103H239.888V100.384C238.904 102.184 236.96 103.192 234.944 103.192C231.632 103.192 229.016 101.008 229.016 97.072C229.016 93.16 231.656 90.952 234.968 90.952C237.008 90.952 238.928 91.816 239.888 93.736V86.2ZM259.967 100.552L260.759 101.344C259.559 102.544 257.999 103.12 256.439 103.12C253.103 103.12 250.343 100.816 250.343 97.072C250.343 93.328 253.007 91.024 256.439 91.024C257.999 91.024 259.559 91.624 260.759 92.8L259.991 93.544C259.031 92.584 257.711 92.128 256.439 92.128C253.751 92.128 251.495 93.88 251.495 97.072C251.495 100.264 253.751 102.016 256.439 102.016C257.711 102.016 259.007 101.512 259.967 100.552ZM268.977 103.168C265.641 103.168 262.953 100.84 262.953 97.072C262.953 93.52 265.641 90.952 268.977 90.952C272.313 90.952 275.289 92.992 274.833 97.624H264.153C264.393 100.408 266.529 102.016 268.977 102.016C270.537 102.016 272.361 101.392 273.249 100.216L274.089 100.888C272.937 102.4 270.873 103.168 268.977 103.168ZM264.153 96.592H273.777C273.753 93.664 271.833 92.032 268.977 92.032C266.529 92.032 264.417 93.688 264.153 96.592ZM277.875 91.144H278.979L279.027 93.256C279.771 91.648 281.451 91.024 282.963 91.024C283.851 91 284.715 91.24 285.507 91.72L284.979 92.68C284.355 92.296 283.659 92.128 282.963 92.128C280.755 92.152 279.051 93.928 279.051 96.088V103H277.875V91.144ZM289.583 87.688L290.735 87.568V91.144H294.767V92.128H290.735V99.352C290.735 100.96 291.071 102.088 292.919 102.088C293.495 102.088 294.143 101.896 294.743 101.608L295.151 102.568C294.407 102.928 293.663 103.168 292.919 103.168C290.399 103.168 289.583 101.68 289.583 99.352V92.128H287.063V91.144H289.583V87.688ZM298.644 91.096V103H297.468V91.096H298.644ZM297.132 87.28C297.132 88.528 299.028 88.528 299.028 87.28C299.028 86.032 297.132 86.032 297.132 87.28ZM304.391 103H303.239V92.272H300.815V91.24H303.239V90.184C303.239 87.832 304.175 86.128 306.791 86.128C307.679 86.128 308.471 86.44 309.143 86.944L308.567 87.808C307.919 87.424 307.463 87.208 306.743 87.208C305.255 87.208 304.391 88.12 304.391 90.184V91.24H308.303V92.272H304.391V103ZM312.004 91.096V103H310.828V91.096H312.004ZM310.492 87.28C310.492 88.528 312.388 88.528 312.388 87.28C312.388 86.032 310.492 86.032 310.492 87.28ZM320.727 103.168C317.391 103.168 314.703 100.84 314.703 97.072C314.703 93.52 317.391 90.952 320.727 90.952C324.063 90.952 327.039 92.992 326.583 97.624H315.903C316.143 100.408 318.279 102.016 320.727 102.016C322.287 102.016 324.111 101.392 324.999 100.216L325.839 100.888C324.687 102.4 322.623 103.168 320.727 103.168ZM315.903 96.592H325.527C325.503 93.664 323.583 92.032 320.727 92.032C318.279 92.032 316.167 93.688 315.903 96.592ZM334.977 92.08C332.313 92.08 330.129 93.736 330.129 97.072C330.129 100.36 332.313 102.04 334.977 102.04C337.761 102.04 339.825 100 339.825 97.048C339.825 94.096 337.713 92.08 334.977 92.08ZM339.849 86.2H341.001V103H339.849V100.384C338.865 102.184 336.921 103.192 334.905 103.192C331.593 103.192 328.977 101.008 328.977 97.072C328.977 93.16 331.617 90.952 334.929 90.952C336.969 90.952 338.889 91.816 339.849 93.736V86.2ZM355.224 86.176H356.28L355.032 90.688H353.664L355.224 86.176ZM352.2 86.176H353.256L352.008 90.688H350.64L352.2 86.176ZM373.434 88.48L372.69 89.296C371.226 87.856 369.186 87.136 367.29 87.136C362.37 87.136 359.85 90.736 359.874 94.624C359.874 98.584 362.394 101.992 367.29 101.992C369.09 101.992 370.962 101.368 372.402 100.048V95.344H366.546V94.216H373.626V100.504C371.874 102.256 369.786 103.216 367.29 103.216C361.578 103.216 358.626 99.232 358.626 94.648C358.602 89.392 362.178 85.96 367.29 85.96C369.498 85.96 371.73 86.8 373.434 88.48ZM382.394 103.168C379.058 103.168 376.37 100.864 376.37 97.096C376.37 93.328 379.058 90.928 382.394 90.928C385.73 90.928 388.418 93.328 388.418 97.096C388.418 100.864 385.73 103.168 382.394 103.168ZM382.394 102.016C385.082 102.016 387.266 100.168 387.266 97.096C387.266 94.024 385.082 92.032 382.394 92.032C379.706 92.032 377.522 94.024 377.522 97.096C377.522 100.168 379.706 102.016 382.394 102.016ZM391.125 86.2H392.301V103H391.125V86.2ZM400.93 92.08C398.266 92.08 396.082 93.736 396.082 97.072C396.082 100.36 398.266 102.04 400.93 102.04C403.714 102.04 405.778 100 405.778 97.048C405.778 94.096 403.666 92.08 400.93 92.08ZM405.802 86.2H406.954V103H405.802V100.384C404.818 102.184 402.874 103.192 400.858 103.192C397.546 103.192 394.93 101.008 394.93 97.072C394.93 93.16 397.57 90.952 400.882 90.952C402.922 90.952 404.842 91.816 405.802 93.736V86.2ZM411.063 90.688H410.007L411.255 86.176H412.623L411.063 90.688ZM414.087 90.688H413.031L414.279 86.176H415.647L414.087 90.688Z" fill="black"/>
<path d="M868.164 329.536L867.444 330.304C866.244 329.248 865.068 329.056 863.748 329.056C861.9 329.032 860.124 329.728 860.172 331.24C860.22 332.824 862.284 333.136 863.772 333.4C865.884 333.76 868.788 334.12 868.668 336.88C868.596 339.496 865.884 340.192 863.796 340.192C861.708 340.192 859.644 339.4 858.612 337.816L859.476 337.048C860.46 338.464 862.236 339.064 863.82 339.064C865.26 339.064 867.444 338.68 867.516 336.808C867.564 335.104 865.596 334.768 863.652 334.456C861.348 334.072 859.068 333.64 859.044 331.264C859.02 328.936 861.348 327.928 863.748 327.952C865.476 327.952 866.988 328.432 868.164 329.536ZM881.989 340H880.837V337.864C879.925 339.496 878.269 340.168 876.613 340.192C873.445 340.192 871.261 338.248 871.261 334.96V328.12H872.437V334.936C872.437 337.624 874.093 339.064 876.661 339.04C879.109 339.016 880.813 337.168 880.813 334.72V328.12H881.989V340ZM891.114 339.088C893.802 339.088 895.962 337.408 895.962 334.072C895.962 330.736 893.802 329.104 891.114 329.104C888.354 329.104 886.314 331.192 886.314 334.096C886.314 337 888.402 339.088 891.114 339.088ZM886.218 344.944H885.09V328.144H886.242V330.952C887.178 329.152 889.074 327.976 891.378 327.976C894.594 328.096 897.138 330.256 897.138 334.072C897.138 338.056 894.45 340.216 891.114 340.216C889.098 340.216 887.226 339.232 886.218 337.264V344.944ZM906.043 339.088C908.731 339.088 910.891 337.408 910.891 334.072C910.891 330.736 908.731 329.104 906.043 329.104C903.283 329.104 901.243 331.192 901.243 334.096C901.243 337 903.331 339.088 906.043 339.088ZM901.147 344.944H900.019V328.144H901.171V330.952C902.107 329.152 904.003 327.976 906.307 327.976C909.523 328.096 912.067 330.256 912.067 334.072C912.067 338.056 909.379 340.216 906.043 340.216C904.027 340.216 902.155 339.232 901.147 337.264V344.944ZM914.949 323.2H916.125V340H914.949V323.2ZM928.492 328.144H929.764L922.54 344.944H921.292L923.476 339.856L918.724 328.144H919.996L922.756 335.152L924.148 338.584L925.516 335.128L928.492 328.144ZM948.868 328.144H950.044C950.044 332.104 950.044 336.04 950.044 340H948.868V337.48C947.716 339.328 945.94 340.192 944.02 340.192C940.708 340.192 937.996 337.696 937.996 334.072C937.996 330.448 940.708 328 944.02 328C945.94 328 947.884 328.888 948.868 330.736V328.144ZM944.02 329.128C941.332 329.128 939.172 331.096 939.172 334.072C939.172 337.048 941.332 339.04 944.02 339.04C950.62 339.04 950.62 329.128 944.02 329.128ZM953.246 328.144H954.398V330.256C955.31 328.624 956.966 327.952 958.622 327.928C961.79 327.928 963.974 329.872 963.974 333.16V340H962.798V333.184C962.798 330.496 961.142 329.056 958.574 329.08C956.126 329.104 954.422 330.952 954.422 333.4V340H953.246V328.144ZM972.402 329.08C969.738 329.08 967.554 330.736 967.554 334.072C967.554 337.36 969.738 339.04 972.402 339.04C975.186 339.04 977.25 337 977.25 334.048C977.25 331.096 975.138 329.08 972.402 329.08ZM977.274 323.2H978.426V340H977.274V337.384C976.29 339.184 974.346 340.192 972.33 340.192C969.018 340.192 966.402 338.008 966.402 334.072C966.402 330.16 969.042 327.952 972.354 327.952C974.394 327.952 976.314 328.816 977.274 330.736V323.2ZM989.601 328.096V340H988.425V328.096H989.601ZM988.089 324.28C988.089 325.528 989.985 325.528 989.985 324.28C989.985 323.032 988.089 323.032 988.089 324.28ZM992.972 328.144H994.124V330.256C995.036 328.624 996.692 327.952 998.348 327.928C1001.52 327.928 1003.7 329.872 1003.7 333.16V340H1002.52V333.184C1002.52 330.496 1000.87 329.056 998.3 329.08C995.852 329.104 994.148 330.952 994.148 333.4V340H992.972V328.144ZM1015.63 329.536L1014.91 330.304C1013.71 329.248 1012.54 329.056 1011.22 329.056C1009.37 329.032 1007.59 329.728 1007.64 331.24C1007.69 332.824 1009.75 333.136 1011.24 333.4C1013.35 333.76 1016.26 334.12 1016.14 336.88C1016.07 339.496 1013.35 340.192 1011.27 340.192C1009.18 340.192 1007.11 339.4 1006.08 337.816L1006.95 337.048C1007.93 338.464 1009.71 339.064 1011.29 339.064C1012.73 339.064 1014.91 338.68 1014.99 336.808C1015.03 335.104 1013.07 334.768 1011.12 334.456C1008.82 334.072 1006.54 333.64 1006.51 331.264C1006.49 328.936 1008.82 327.928 1011.22 327.952C1012.95 327.952 1014.46 328.432 1015.63 329.536ZM1020.31 324.688L1021.47 324.568V328.144H1025.5V329.128H1021.47V336.352C1021.47 337.96 1021.8 339.088 1023.65 339.088C1024.23 339.088 1024.87 338.896 1025.47 338.608L1025.88 339.568C1025.14 339.928 1024.39 340.168 1023.65 340.168C1021.13 340.168 1020.31 338.68 1020.31 336.352V329.128H1017.79V328.144H1020.31V324.688ZM1038.42 328.144H1039.6C1039.6 332.104 1039.6 336.04 1039.6 340H1038.42V337.48C1037.27 339.328 1035.49 340.192 1033.57 340.192C1030.26 340.192 1027.55 337.696 1027.55 334.072C1027.55 330.448 1030.26 328 1033.57 328C1035.49 328 1037.44 328.888 1038.42 330.736V328.144ZM1033.57 329.128C1030.89 329.128 1028.73 331.096 1028.73 334.072C1028.73 337.048 1030.89 339.04 1033.57 339.04C1040.17 339.04 1040.17 329.128 1033.57 329.128ZM1042.8 323.2H1043.98V340H1042.8V323.2ZM1047.25 323.2H1048.43V340H1047.25V323.2ZM1069.02 340H1067.87V337.864C1066.96 339.496 1065.3 340.168 1063.64 340.192C1060.48 340.192 1058.29 338.248 1058.29 334.96V328.12H1059.47V334.936C1059.47 337.624 1061.12 339.064 1063.69 339.04C1066.14 339.016 1067.84 337.168 1067.84 334.72V328.12H1069.02V340ZM1072.12 328.144H1073.27V330.256C1074.18 328.624 1075.84 327.952 1077.5 327.928C1080.66 327.928 1082.85 329.872 1082.85 333.16V340H1081.67V333.184C1081.67 330.496 1080.02 329.056 1077.45 329.08C1075 329.104 1073.3 330.952 1073.3 333.4V340H1072.12V328.144ZM1091.28 329.08C1088.61 329.08 1086.43 330.736 1086.43 334.072C1086.43 337.36 1088.61 339.04 1091.28 339.04C1094.06 339.04 1096.13 337 1096.13 334.048C1096.13 331.096 1094.01 329.08 1091.28 329.08ZM1096.15 323.2H1097.3V340H1096.15V337.384C1095.17 339.184 1093.22 340.192 1091.21 340.192C1087.89 340.192 1085.28 338.008 1085.28 334.072C1085.28 330.16 1087.92 327.952 1091.23 327.952C1093.27 327.952 1095.19 328.816 1096.15 330.736V323.2ZM1106.3 340.168C1102.96 340.168 1100.28 337.84 1100.28 334.072C1100.28 330.52 1102.96 327.952 1106.3 327.952C1109.64 327.952 1112.61 329.992 1112.16 334.624H1101.48C1101.72 337.408 1103.85 339.016 1106.3 339.016C1107.86 339.016 1109.68 338.392 1110.57 337.216L1111.41 337.888C1110.26 339.4 1108.2 340.168 1106.3 340.168ZM1101.48 333.592H1111.1C1111.08 330.664 1109.16 329.032 1106.3 329.032C1103.85 329.032 1101.74 330.688 1101.48 333.592ZM1115.2 328.144H1116.3L1116.35 330.256C1117.09 328.648 1118.77 328.024 1120.29 328.024C1121.17 328 1122.04 328.24 1122.83 328.72L1122.3 329.68C1121.68 329.296 1120.98 329.128 1120.29 329.128C1118.08 329.152 1116.37 330.928 1116.37 333.088V340H1115.2V328.144ZM1132.77 324.688L1133.92 324.568V328.144H1137.95V329.128H1133.92V336.352C1133.92 337.96 1134.25 339.088 1136.1 339.088C1136.68 339.088 1137.33 338.896 1137.93 338.608L1138.33 339.568C1137.59 339.928 1136.85 340.168 1136.1 340.168C1133.58 340.168 1132.77 338.68 1132.77 336.352V329.128H1130.25V328.144H1132.77V324.688ZM1140.65 323.2H1141.78V330.352C1142.74 328.648 1144.4 328 1146.05 327.976C1149.36 327.976 1151.02 330.112 1151.02 333.208V340H1149.87V333.208C1149.87 330.76 1148.72 329.104 1146.05 329.104C1143.56 329.104 1141.83 331.024 1141.83 333.496V340H1140.65V323.2ZM1159.43 340.168C1156.1 340.168 1153.41 337.84 1153.41 334.072C1153.41 330.52 1156.1 327.952 1159.43 327.952C1162.77 327.952 1165.75 329.992 1165.29 334.624H1154.61C1154.85 337.408 1156.99 339.016 1159.43 339.016C1160.99 339.016 1162.82 338.392 1163.71 337.216L1164.55 337.888C1163.39 339.4 1161.33 340.168 1159.43 340.168ZM1154.61 333.592H1164.23C1164.21 330.664 1162.29 329.032 1159.43 329.032C1156.99 329.032 1154.87 330.688 1154.61 333.592ZM872.254 353.536L871.534 354.304C870.334 353.248 869.158 353.056 867.838 353.056C865.99 353.032 864.214 353.728 864.262 355.24C864.31 356.824 866.374 357.136 867.862 357.4C869.974 357.76 872.878 358.12 872.758 360.88C872.686 363.496 869.974 364.192 867.886 364.192C865.798 364.192 863.734 363.4 862.702 361.816L863.566 361.048C864.55 362.464 866.326 363.064 867.91 363.064C869.35 363.064 871.534 362.68 871.606 360.808C871.654 359.104 869.686 358.768 867.742 358.456C865.438 358.072 863.158 357.64 863.134 355.264C863.11 352.936 865.438 351.928 867.838 351.952C869.566 351.952 871.078 352.432 872.254 353.536ZM885.599 352.144H886.775C886.775 356.104 886.775 360.04 886.775 364H885.599V361.48C884.447 363.328 882.671 364.192 880.751 364.192C877.439 364.192 874.727 361.696 874.727 358.072C874.727 354.448 877.439 352 880.751 352C882.671 352 884.615 352.888 885.599 354.736V352.144ZM880.751 353.128C878.063 353.128 875.903 355.096 875.903 358.072C875.903 361.048 878.063 363.04 880.751 363.04C887.351 363.04 887.351 353.128 880.751 353.128ZM908.72 364H907.544V356.896C907.544 354.616 906.008 353.008 903.752 353.008C901.496 353.008 899.936 354.688 899.936 356.968V364H898.76V356.968C898.76 354.688 897.2 353.032 894.944 353.032C892.688 353.032 891.152 354.688 891.152 356.968V364H889.976V352.144H891.08L891.104 354.112C891.92 352.552 893.432 351.904 894.968 351.904C896.768 351.904 898.664 352.72 899.36 354.832C900.08 352.888 901.928 351.904 903.752 351.904C906.656 351.904 908.72 353.944 908.72 356.896V364ZM917.383 364.168C914.047 364.168 911.359 361.84 911.359 358.072C911.359 354.52 914.047 351.952 917.383 351.952C920.719 351.952 923.695 353.992 923.239 358.624H912.559C912.799 361.408 914.935 363.016 917.383 363.016C918.943 363.016 920.767 362.392 921.655 361.216L922.495 361.888C921.343 363.4 919.279 364.168 917.383 364.168ZM912.559 357.592H922.183C922.159 354.664 920.239 353.032 917.383 353.032C914.935 353.032 912.823 354.688 912.559 357.592ZM932.89 352.144H933.994L934.042 354.256C934.786 352.648 936.466 352.024 937.978 352.024C938.866 352 939.73 352.24 940.522 352.72L939.994 353.68C939.37 353.296 938.674 353.128 937.978 353.128C935.77 353.152 934.066 354.928 934.066 357.088V364H932.89V352.144ZM947.761 364.168C944.425 364.168 941.737 361.864 941.737 358.096C941.737 354.328 944.425 351.928 947.761 351.928C951.097 351.928 953.785 354.328 953.785 358.096C953.785 361.864 951.097 364.168 947.761 364.168ZM947.761 363.016C950.449 363.016 952.633 361.168 952.633 358.096C952.633 355.024 950.449 353.032 947.761 353.032C945.073 353.032 942.889 355.024 942.889 358.096C942.889 361.168 945.073 363.016 947.761 363.016ZM961.964 364.168C958.628 364.168 955.94 361.864 955.94 358.096C955.94 354.328 958.628 351.928 961.964 351.928C965.3 351.928 967.988 354.328 967.988 358.096C967.988 361.864 965.3 364.168 961.964 364.168ZM961.964 363.016C964.652 363.016 966.836 361.168 966.836 358.096C966.836 355.024 964.652 353.032 961.964 353.032C959.276 353.032 957.092 355.024 957.092 358.096C957.092 361.168 959.276 363.016 961.964 363.016ZM973.071 364H971.919V353.272H969.495V352.24H971.919V351.184C971.919 348.832 972.855 347.128 975.471 347.128C976.359 347.128 977.151 347.44 977.823 347.944L977.247 348.808C976.599 348.424 976.143 348.208 975.423 348.208C973.935 348.208 973.071 349.12 973.071 351.184V352.24H976.983V353.272H973.071V364ZM988.727 364H987.575V353.272H985.151V352.24H987.575V351.184C987.575 348.832 988.511 347.128 991.127 347.128C992.015 347.128 992.807 347.44 993.479 347.944L992.903 348.808C992.255 348.424 991.799 348.208 991.079 348.208C989.591 348.208 988.727 349.12 988.727 351.184V352.24H992.639V353.272H988.727V364ZM999.886 364.168C996.55 364.168 993.862 361.864 993.862 358.096C993.862 354.328 996.55 351.928 999.886 351.928C1003.22 351.928 1005.91 354.328 1005.91 358.096C1005.91 361.864 1003.22 364.168 999.886 364.168ZM999.886 363.016C1002.57 363.016 1004.76 361.168 1004.76 358.096C1004.76 355.024 1002.57 353.032 999.886 353.032C997.198 353.032 995.014 355.024 995.014 358.096C995.014 361.168 997.198 363.016 999.886 363.016ZM1008.62 352.144H1009.72L1009.77 354.256C1010.51 352.648 1012.19 352.024 1013.7 352.024C1014.59 352 1015.46 352.24 1016.25 352.72L1015.72 353.68C1015.1 353.296 1014.4 353.128 1013.7 353.128C1011.5 353.152 1009.79 354.928 1009.79 357.088V364H1008.62V352.144ZM1033.55 361.552L1034.34 362.344C1033.14 363.544 1031.58 364.12 1030.02 364.12C1026.69 364.12 1023.93 361.816 1023.93 358.072C1023.93 354.328 1026.59 352.024 1030.02 352.024C1031.58 352.024 1033.14 352.624 1034.34 353.8L1033.58 354.544C1032.62 353.584 1031.3 353.128 1030.02 353.128C1027.34 353.128 1025.08 354.88 1025.08 358.072C1025.08 361.264 1027.34 363.016 1030.02 363.016C1031.3 363.016 1032.59 362.512 1033.55 361.552ZM1042.45 364.168C1039.11 364.168 1036.42 361.864 1036.42 358.096C1036.42 354.328 1039.11 351.928 1042.45 351.928C1045.78 351.928 1048.47 354.328 1048.47 358.096C1048.47 361.864 1045.78 364.168 1042.45 364.168ZM1042.45 363.016C1045.14 363.016 1047.32 361.168 1047.32 358.096C1047.32 355.024 1045.14 353.032 1042.45 353.032C1039.76 353.032 1037.58 355.024 1037.58 358.096C1037.58 361.168 1039.76 363.016 1042.45 363.016ZM1056.65 364.168C1053.32 364.168 1050.63 361.864 1050.63 358.096C1050.63 354.328 1053.32 351.928 1056.65 351.928C1059.99 351.928 1062.68 354.328 1062.68 358.096C1062.68 361.864 1059.99 364.168 1056.65 364.168ZM1056.65 363.016C1059.34 363.016 1061.52 361.168 1061.52 358.096C1061.52 355.024 1059.34 353.032 1056.65 353.032C1053.96 353.032 1051.78 355.024 1051.78 358.096C1051.78 361.168 1053.96 363.016 1056.65 363.016ZM1065.38 352.144H1066.49L1066.53 354.256C1067.28 352.648 1068.96 352.024 1070.47 352.024C1071.36 352 1072.22 352.24 1073.01 352.72L1072.49 353.68C1071.86 353.296 1071.17 353.128 1070.47 353.128C1068.26 353.152 1066.56 354.928 1066.56 357.088V364H1065.38V352.144ZM1080.13 353.08C1077.47 353.08 1075.28 354.736 1075.28 358.072C1075.28 361.36 1077.47 363.04 1080.13 363.04C1082.92 363.04 1084.98 361 1084.98 358.048C1084.98 355.096 1082.87 353.08 1080.13 353.08ZM1085 347.2H1086.16V364H1085V361.384C1084.02 363.184 1082.08 364.192 1080.06 364.192C1076.75 364.192 1074.13 362.008 1074.13 358.072C1074.13 354.16 1076.77 351.952 1080.08 351.952C1082.12 351.952 1084.04 352.816 1085 354.736V347.2ZM1090.72 352.096V364H1089.55V352.096H1090.72ZM1089.21 348.28C1089.21 349.528 1091.11 349.528 1091.11 348.28C1091.11 347.032 1089.21 347.032 1089.21 348.28ZM1094.09 352.144H1095.25V354.256C1096.16 352.624 1097.81 351.952 1099.47 351.928C1102.64 351.928 1104.82 353.872 1104.82 357.16V364H1103.65V357.184C1103.65 354.496 1101.99 353.056 1099.42 353.08C1096.97 353.104 1095.27 354.952 1095.27 357.4V364H1094.09V352.144ZM1118.12 352.144H1119.3C1119.3 356.104 1119.3 360.04 1119.3 364H1118.12V361.48C1116.97 363.328 1115.19 364.192 1113.27 364.192C1109.96 364.192 1107.25 361.696 1107.25 358.072C1107.25 354.448 1109.96 352 1113.27 352C1115.19 352 1117.14 352.888 1118.12 354.736V352.144ZM1113.27 353.128C1110.59 353.128 1108.43 355.096 1108.43 358.072C1108.43 361.048 1110.59 363.04 1113.27 363.04C1119.87 363.04 1119.87 353.128 1113.27 353.128ZM1123.54 348.688L1124.7 348.568V352.144H1128.73V353.128H1124.7V360.352C1124.7 361.96 1125.03 363.088 1126.88 363.088C1127.46 363.088 1128.1 362.896 1128.7 362.608L1129.11 363.568C1128.37 363.928 1127.62 364.168 1126.88 364.168C1124.36 364.168 1123.54 362.68 1123.54 360.352V353.128H1121.02V352.144H1123.54V348.688ZM1132.61 352.096V364H1131.43V352.096H1132.61ZM1131.09 348.28C1131.09 349.528 1132.99 349.528 1132.99 348.28C1132.99 347.032 1131.09 347.032 1131.09 348.28ZM1141.71 364.168C1138.37 364.168 1135.68 361.864 1135.68 358.096C1135.68 354.328 1138.37 351.928 1141.71 351.928C1145.04 351.928 1147.73 354.328 1147.73 358.096C1147.73 361.864 1145.04 364.168 1141.71 364.168ZM1141.71 363.016C1144.39 363.016 1146.58 361.168 1146.58 358.096C1146.58 355.024 1144.39 353.032 1141.71 353.032C1139.02 353.032 1136.83 355.024 1136.83 358.096C1136.83 361.168 1139.02 363.016 1141.71 363.016ZM1150.44 352.144H1151.59V354.256C1152.5 352.624 1154.16 351.952 1155.81 351.928C1158.98 351.928 1161.17 353.872 1161.17 357.16V364H1159.99V357.184C1159.99 354.496 1158.33 353.056 1155.77 353.08C1153.32 353.104 1151.61 354.952 1151.61 357.4V364H1150.44V352.144ZM889.056 376.144H890.232C890.232 380.104 890.232 384.04 890.232 388H889.056V385.48C887.904 387.328 886.128 388.192 884.208 388.192C880.896 388.192 878.184 385.696 878.184 382.072C878.184 378.448 880.896 376 884.208 376C886.128 376 888.072 376.888 889.056 378.736V376.144ZM884.208 377.128C881.52 377.128 879.36 379.096 879.36 382.072C879.36 385.048 881.52 387.04 884.208 387.04C890.808 387.04 890.808 377.128 884.208 377.128ZM893.433 376.144H894.585V378.256C895.497 376.624 897.153 375.952 898.809 375.928C901.977 375.928 904.161 377.872 904.161 381.16V388H902.985V381.184C902.985 378.496 901.329 377.056 898.761 377.08C896.313 377.104 894.609 378.952 894.609 381.4V388H893.433V376.144ZM912.59 377.08C909.926 377.08 907.742 378.736 907.742 382.072C907.742 385.36 909.926 387.04 912.59 387.04C915.374 387.04 917.438 385 917.438 382.048C917.438 379.096 915.326 377.08 912.59 377.08ZM917.462 371.2H918.614V388H917.462V385.384C916.478 387.184 914.534 388.192 912.518 388.192C909.206 388.192 906.59 386.008 906.59 382.072C906.59 378.16 909.23 375.952 912.542 375.952C914.582 375.952 916.502 376.816 917.462 378.736V371.2ZM945.053 376.144L940.853 388H939.557L937.637 382.816L936.197 378.208L934.709 382.84L932.789 388H931.493L927.269 376.144H928.565L932.141 386.632L935.765 376.144H936.605L940.205 386.632L943.757 376.144H945.053ZM957.189 376.144H958.365C958.365 380.104 958.365 384.04 958.365 388H957.189V385.48C956.037 387.328 954.261 388.192 952.341 388.192C949.029 388.192 946.317 385.696 946.317 382.072C946.317 378.448 949.029 376 952.341 376C954.261 376 956.205 376.888 957.189 378.736V376.144ZM952.341 377.128C949.653 377.128 947.493 379.096 947.493 382.072C947.493 385.048 949.653 387.04 952.341 387.04C958.941 387.04 958.941 377.128 952.341 377.128ZM961.566 376.144H962.67L962.718 378.256C963.462 376.648 965.142 376.024 966.654 376.024C967.542 376 968.406 376.24 969.198 376.72L968.67 377.68C968.046 377.296 967.35 377.128 966.654 377.128C964.446 377.152 962.742 378.928 962.742 381.088V388H961.566V376.144ZM970.965 376.144H972.069L972.117 378.256C972.861 376.648 974.541 376.024 976.053 376.024C976.941 376 977.805 376.24 978.597 376.72L978.069 377.68C977.445 377.296 976.749 377.128 976.053 377.128C973.845 377.152 972.141 378.928 972.141 381.088V388H970.965V376.144ZM990.587 376.144H991.763C991.763 380.104 991.763 384.04 991.763 388H990.587V385.48C989.435 387.328 987.659 388.192 985.739 388.192C982.427 388.192 979.715 385.696 979.715 382.072C979.715 378.448 982.427 376 985.739 376C987.659 376 989.603 376.888 990.587 378.736V376.144ZM985.739 377.128C983.051 377.128 980.891 379.096 980.891 382.072C980.891 385.048 983.051 387.04 985.739 387.04C992.339 387.04 992.339 377.128 985.739 377.128ZM994.965 376.144H996.117V378.256C997.029 376.624 998.685 375.952 1000.34 375.928C1003.51 375.928 1005.69 377.872 1005.69 381.16V388H1004.52V381.184C1004.52 378.496 1002.86 377.056 1000.29 377.08C997.845 377.104 996.141 378.952 996.141 381.4V388H994.965V376.144ZM1009.81 372.688L1010.97 372.568V376.144H1015V377.128H1010.97V384.352C1010.97 385.96 1011.3 387.088 1013.15 387.088C1013.73 387.088 1014.37 386.896 1014.97 386.608L1015.38 387.568C1014.64 387.928 1013.89 388.168 1013.15 388.168C1010.63 388.168 1009.81 386.68 1009.81 384.352V377.128H1007.29V376.144H1009.81V372.688ZM1026.81 376.144H1028.08L1020.86 392.944H1019.61L1021.8 387.856L1017.04 376.144H1018.32L1021.08 383.152L1022.47 386.584L1023.84 383.128L1026.81 376.144ZM1042.99 387.088C1045.68 387.088 1047.84 385.408 1047.84 382.072C1047.84 378.736 1045.68 377.104 1042.99 377.104C1040.23 377.104 1038.19 379.192 1038.19 382.096C1038.19 385 1040.28 387.088 1042.99 387.088ZM1038.09 392.944H1036.96V376.144H1038.12V378.952C1039.05 377.152 1040.95 375.976 1043.25 375.976C1046.47 376.096 1049.01 378.256 1049.01 382.072C1049.01 386.056 1046.32 388.216 1042.99 388.216C1040.97 388.216 1039.1 387.232 1038.09 385.264V392.944ZM1062.36 388H1061.21V385.864C1060.3 387.496 1058.64 388.168 1056.99 388.192C1053.82 388.192 1051.64 386.248 1051.64 382.96V376.12H1052.81V382.936C1052.81 385.624 1054.47 387.064 1057.04 387.04C1059.48 387.016 1061.19 385.168 1061.19 382.72V376.12H1062.36V388ZM1065.46 376.144H1066.57L1066.62 378.256C1067.36 376.648 1069.04 376.024 1070.55 376.024C1071.44 376 1072.3 376.24 1073.1 376.72L1072.57 377.68C1071.94 377.296 1071.25 377.128 1070.55 377.128C1068.34 377.152 1066.64 378.928 1066.64 381.088V388H1065.46V376.144ZM1080.89 387.088C1083.57 387.088 1085.73 385.408 1085.73 382.072C1085.73 378.736 1083.57 377.104 1080.89 377.104C1078.13 377.104 1076.09 379.192 1076.09 382.096C1076.09 385 1078.17 387.088 1080.89 387.088ZM1075.99 392.944H1074.86V376.144H1076.01V378.952C1076.95 377.152 1078.85 375.976 1081.15 375.976C1084.37 376.096 1086.91 378.256 1086.91 382.072C1086.91 386.056 1084.22 388.216 1080.89 388.216C1078.87 388.216 1077 387.232 1075.99 385.264V392.944ZM1095.26 388.168C1091.93 388.168 1089.24 385.864 1089.24 382.096C1089.24 378.328 1091.93 375.928 1095.26 375.928C1098.6 375.928 1101.29 378.328 1101.29 382.096C1101.29 385.864 1098.6 388.168 1095.26 388.168ZM1095.26 387.016C1097.95 387.016 1100.14 385.168 1100.14 382.096C1100.14 379.024 1097.95 377.032 1095.26 377.032C1092.58 377.032 1090.39 379.024 1090.39 382.096C1090.39 385.168 1092.58 387.016 1095.26 387.016ZM1112.85 377.536L1112.13 378.304C1110.93 377.248 1109.76 377.056 1108.44 377.056C1106.59 377.032 1104.81 377.728 1104.86 379.24C1104.91 380.824 1106.97 381.136 1108.46 381.4C1110.57 381.76 1113.48 382.12 1113.36 384.88C1113.28 387.496 1110.57 388.192 1108.48 388.192C1106.4 388.192 1104.33 387.4 1103.3 385.816L1104.16 385.048C1105.15 386.464 1106.92 387.064 1108.51 387.064C1109.95 387.064 1112.13 386.68 1112.2 384.808C1112.25 383.104 1110.28 382.768 1108.34 382.456C1106.04 382.072 1103.76 381.64 1103.73 379.264C1103.71 376.936 1106.04 375.928 1108.44 375.952C1110.16 375.952 1111.68 376.432 1112.85 377.536ZM1121.32 388.168C1117.99 388.168 1115.3 385.84 1115.3 382.072C1115.3 378.52 1117.99 375.952 1121.32 375.952C1124.66 375.952 1127.64 377.992 1127.18 382.624H1116.5C1116.74 385.408 1118.88 387.016 1121.32 387.016C1122.88 387.016 1124.71 386.392 1125.6 385.216L1126.44 385.888C1125.28 387.4 1123.22 388.168 1121.32 388.168ZM1116.5 381.592H1126.12C1126.1 378.664 1124.18 377.032 1121.32 377.032C1118.88 377.032 1116.76 378.688 1116.5 381.592ZM1139.08 377.536L1138.36 378.304C1137.16 377.248 1135.98 377.056 1134.66 377.056C1132.81 377.032 1131.04 377.728 1131.09 379.24C1131.13 380.824 1133.2 381.136 1134.69 381.4C1136.8 381.76 1139.7 382.12 1139.58 384.88C1139.51 387.496 1136.8 388.192 1134.71 388.192C1132.62 388.192 1130.56 387.4 1129.53 385.816L1130.39 385.048C1131.37 386.464 1133.15 387.064 1134.73 387.064C1136.17 387.064 1138.36 386.68 1138.43 384.808C1138.48 383.104 1136.51 382.768 1134.57 382.456C1132.26 382.072 1129.98 381.64 1129.96 379.264C1129.93 376.936 1132.26 375.928 1134.66 375.952C1136.39 375.952 1137.9 376.432 1139.08 377.536Z" fill="black"/>
<path d="M527.611 562.552L528.403 563.344C527.203 564.544 525.643 565.12 524.083 565.12C520.747 565.12 517.987 562.816 517.987 559.072C517.987 555.328 520.651 553.024 524.083 553.024C525.643 553.024 527.203 553.624 528.403 554.8L527.635 555.544C526.675 554.584 525.355 554.128 524.083 554.128C521.395 554.128 519.139 555.88 519.139 559.072C519.139 562.264 521.395 564.016 524.083 564.016C525.355 564.016 526.651 563.512 527.611 562.552ZM536.507 565.168C533.171 565.168 530.483 562.864 530.483 559.096C530.483 555.328 533.171 552.928 536.507 552.928C539.843 552.928 542.531 555.328 542.531 559.096C542.531 562.864 539.843 565.168 536.507 565.168ZM536.507 564.016C539.195 564.016 541.379 562.168 541.379 559.096C541.379 556.024 539.195 554.032 536.507 554.032C533.819 554.032 531.635 556.024 531.635 559.096C531.635 562.168 533.819 564.016 536.507 564.016ZM545.238 553.144H546.342L546.39 555.256C547.134 553.648 548.814 553.024 550.326 553.024C551.214 553 552.078 553.24 552.87 553.72L552.342 554.68C551.718 554.296 551.022 554.128 550.326 554.128C548.118 554.152 546.414 555.928 546.414 558.088V565H545.238V553.144ZM559.988 565.168C556.652 565.168 553.964 562.84 553.964 559.072C553.964 555.52 556.652 552.952 559.988 552.952C563.324 552.952 566.3 554.992 565.844 559.624H555.164C555.404 562.408 557.54 564.016 559.988 564.016C561.548 564.016 563.372 563.392 564.26 562.216L565.1 562.888C563.948 564.4 561.884 565.168 559.988 565.168ZM555.164 558.592H564.788C564.764 555.664 562.844 554.032 559.988 554.032C557.54 554.032 555.428 555.688 555.164 558.592ZM584.352 554.536L583.632 555.304C582.432 554.248 581.256 554.056 579.936 554.056C578.088 554.032 576.312 554.728 576.36 556.24C576.408 557.824 578.472 558.136 579.96 558.4C582.072 558.76 584.976 559.12 584.856 561.88C584.784 564.496 582.072 565.192 579.984 565.192C577.896 565.192 575.832 564.4 574.8 562.816L575.664 562.048C576.648 563.464 578.424 564.064 580.008 564.064C581.448 564.064 583.632 563.68 583.704 561.808C583.752 560.104 581.784 559.768 579.84 559.456C577.536 559.072 575.256 558.64 575.232 556.264C575.208 553.936 577.536 552.928 579.936 552.952C581.664 552.952 583.176 553.432 584.352 554.536ZM597.696 553.144H598.872C598.872 557.104 598.872 561.04 598.872 565H597.696V562.48C596.544 564.328 594.768 565.192 592.848 565.192C589.536 565.192 586.824 562.696 586.824 559.072C586.824 555.448 589.536 553 592.848 553C594.768 553 596.712 553.888 597.696 555.736V553.144ZM592.848 554.128C590.16 554.128 588 556.096 588 559.072C588 562.048 590.16 564.04 592.848 564.04C599.448 564.04 599.448 554.128 592.848 554.128ZM604.45 565H603.298V554.272H600.874V553.24H603.298V552.184C603.298 549.832 604.234 548.128 606.85 548.128C607.738 548.128 608.53 548.44 609.202 548.944L608.626 549.808C607.978 549.424 607.522 549.208 606.802 549.208C605.314 549.208 604.45 550.12 604.45 552.184V553.24H608.362V554.272H604.45V565ZM616.473 565.168C613.137 565.168 610.449 562.84 610.449 559.072C610.449 555.52 613.137 552.952 616.473 552.952C619.809 552.952 622.785 554.992 622.329 559.624H611.649C611.889 562.408 614.025 564.016 616.473 564.016C618.033 564.016 619.857 563.392 620.745 562.216L621.585 562.888C620.433 564.4 618.369 565.168 616.473 565.168ZM611.649 558.592H621.273C621.249 555.664 619.329 554.032 616.473 554.032C614.025 554.032 611.913 555.688 611.649 558.592ZM626.415 549.688L627.567 549.568V553.144H631.599V554.128H627.567V561.352C627.567 562.96 627.903 564.088 629.751 564.088C630.327 564.088 630.975 563.896 631.575 563.608L631.983 564.568C631.239 564.928 630.495 565.168 629.751 565.168C627.231 565.168 626.415 563.68 626.415 561.352V554.128H623.895V553.144H626.415V549.688ZM643.414 553.144H644.686L637.462 569.944H636.214L638.398 564.856L633.646 553.144H634.918L637.678 560.152L639.07 563.584L640.438 560.128L643.414 553.144ZM518.36 577.144H519.536C519.536 581.104 519.536 585.04 519.536 589H518.36V586.48C517.208 588.328 515.432 589.192 513.512 589.192C510.2 589.192 507.488 586.696 507.488 583.072C507.488 579.448 510.2 577 513.512 577C515.432 577 517.376 577.888 518.36 579.736V577.144ZM513.512 578.128C510.824 578.128 508.664 580.096 508.664 583.072C508.664 586.048 510.824 588.04 513.512 588.04C520.112 588.04 520.112 578.128 513.512 578.128ZM522.738 577.144H523.89V579.256C524.802 577.624 526.458 576.952 528.114 576.928C531.282 576.928 533.466 578.872 533.466 582.16V589H532.29V582.184C532.29 579.496 530.634 578.056 528.066 578.08C525.618 578.104 523.914 579.952 523.914 582.4V589H522.738V577.144ZM541.895 578.08C539.231 578.08 537.047 579.736 537.047 583.072C537.047 586.36 539.231 588.04 541.895 588.04C544.679 588.04 546.743 586 546.743 583.048C546.743 580.096 544.631 578.08 541.895 578.08ZM546.767 572.2H547.919V589H546.767V586.384C545.783 588.184 543.839 589.192 541.823 589.192C538.511 589.192 535.895 587.008 535.895 583.072C535.895 579.16 538.535 576.952 541.847 576.952C543.887 576.952 545.807 577.816 546.767 579.736V572.2ZM563.942 588.088C566.63 588.088 568.79 586.408 568.79 583.072C568.79 579.736 566.63 578.104 563.942 578.104C561.182 578.104 559.142 580.192 559.142 583.096C559.142 586 561.23 588.088 563.942 588.088ZM559.046 593.944H557.918V577.144H559.07V579.952C560.006 578.152 561.902 576.976 564.206 576.976C567.422 577.096 569.966 579.256 569.966 583.072C569.966 587.056 567.278 589.216 563.942 589.216C561.926 589.216 560.054 588.232 559.046 586.264V593.944ZM572.847 572.2H574.023V589H572.847V572.2ZM587.524 577.144H588.7C588.7 581.104 588.7 585.04 588.7 589H587.524V586.48C586.372 588.328 584.596 589.192 582.676 589.192C579.364 589.192 576.652 586.696 576.652 583.072C576.652 579.448 579.364 577 582.676 577C584.596 577 586.54 577.888 587.524 579.736V577.144ZM582.676 578.128C579.988 578.128 577.828 580.096 577.828 583.072C577.828 586.048 579.988 588.04 582.676 588.04C589.276 588.04 589.276 578.128 582.676 578.128ZM591.902 577.144H593.054V579.256C593.966 577.624 595.622 576.952 597.278 576.928C600.446 576.928 602.63 578.872 602.63 582.16V589H601.454V582.184C601.454 579.496 599.798 578.056 597.23 578.08C594.782 578.104 593.078 579.952 593.078 582.4V589H591.902V577.144ZM605.707 577.144H606.859V579.256C607.771 577.624 609.427 576.952 611.083 576.928C614.251 576.928 616.435 578.872 616.435 582.16V589H615.259V582.184C615.259 579.496 613.603 578.056 611.035 578.08C608.587 578.104 606.883 579.952 606.883 582.4V589H605.707V577.144ZM620.687 577.096V589H619.511V577.096H620.687ZM619.175 573.28C619.175 574.528 621.071 574.528 621.071 573.28C621.071 572.032 619.175 572.032 619.175 573.28ZM624.058 577.144H625.21V579.256C626.122 577.624 627.778 576.952 629.434 576.928C632.602 576.928 634.786 578.872 634.786 582.16V589H633.61V582.184C633.61 579.496 631.954 578.056 629.386 578.08C626.938 578.104 625.234 579.952 625.234 582.4V589H624.058V577.144ZM646.239 578.008L647.391 576.664L648.159 577.336L647.007 578.68C647.847 579.592 648.471 580.792 648.471 582.712C648.471 584.776 647.247 586.864 645.279 587.752C647.367 588.496 648.519 589.96 648.519 592C648.519 595.192 646.023 596.728 642.879 596.728C639.735 596.728 637.263 595 637.263 592H638.439C638.439 594.424 640.503 595.576 642.879 595.576C645.255 595.576 647.367 594.52 647.367 592C647.367 589.456 645.087 588.448 642.879 588.448C639.447 588.448 637.311 585.88 637.311 582.712C637.311 579.016 639.807 576.928 642.879 576.928C644.079 576.928 645.327 577.36 646.239 578.008ZM642.879 578.104C640.455 578.104 638.487 579.616 638.487 582.712C638.487 585.16 640.167 587.272 642.879 587.272C645.327 587.272 647.319 585.16 647.319 582.712C647.319 579.712 645.327 578.104 642.879 578.104Z" fill="black"/>
<path d="M761.748 69.552L762.54 70.344C761.34 71.544 759.78 72.12 758.22 72.12C754.884 72.12 752.124 69.816 752.124 66.072C752.124 62.328 754.788 60.024 758.22 60.024C759.78 60.024 761.34 60.624 762.54 61.8L761.772 62.544C760.812 61.584 759.492 61.128 758.22 61.128C755.532 61.128 753.276 62.88 753.276 66.072C753.276 69.264 755.532 71.016 758.22 71.016C759.492 71.016 760.788 70.512 761.748 69.552ZM775.161 60.144H776.337C776.337 64.104 776.337 68.04 776.337 72H775.161V69.48C774.009 71.328 772.233 72.192 770.313 72.192C767.001 72.192 764.289 69.696 764.289 66.072C764.289 62.448 767.001 60 770.313 60C772.233 60 774.177 60.888 775.161 62.736V60.144ZM770.313 61.128C767.625 61.128 765.465 63.096 765.465 66.072C765.465 69.048 767.625 71.04 770.313 71.04C776.913 71.04 776.913 61.128 770.313 61.128ZM785.563 71.088C788.251 71.088 790.411 69.408 790.411 66.072C790.411 62.736 788.251 61.104 785.563 61.104C782.803 61.104 780.763 63.192 780.763 66.096C780.763 69 782.851 71.088 785.563 71.088ZM780.667 76.944H779.539V60.144H780.691V62.952C781.627 61.152 783.523 59.976 785.827 59.976C789.043 60.096 791.587 62.256 791.587 66.072C791.587 70.056 788.899 72.216 785.563 72.216C783.547 72.216 781.675 71.232 780.667 69.264V76.944ZM804.692 60.144H805.868C805.868 64.104 805.868 68.04 805.868 72H804.692V69.48C803.54 71.328 801.764 72.192 799.844 72.192C796.532 72.192 793.82 69.696 793.82 66.072C793.82 62.448 796.532 60 799.844 60C801.764 60 803.708 60.888 804.692 62.736V60.144ZM799.844 61.128C797.156 61.128 794.996 63.096 794.996 66.072C794.996 69.048 797.156 71.04 799.844 71.04C806.444 71.04 806.444 61.128 799.844 61.128ZM814.86 61.08C812.124 61.08 810.012 63.096 810.012 66.048C810.012 69 812.076 71.04 814.86 71.04C817.524 71.04 819.708 69.36 819.708 66.072C819.708 62.736 817.524 61.08 814.86 61.08ZM808.836 55.2H809.988V62.736C810.948 60.816 812.868 59.952 814.908 59.952C818.22 59.952 820.86 62.16 820.86 66.072C820.86 70.008 818.244 72.192 814.932 72.192C812.916 72.192 810.972 71.184 809.988 69.384V72H808.836V55.2ZM823.742 55.2H824.918V72H823.742V55.2ZM833.547 72.168C830.211 72.168 827.523 69.84 827.523 66.072C827.523 62.52 830.211 59.952 833.547 59.952C836.883 59.952 839.859 61.992 839.403 66.624H828.723C828.963 69.408 831.099 71.016 833.547 71.016C835.107 71.016 836.931 70.392 837.819 69.216L838.659 69.888C837.507 71.4 835.443 72.168 833.547 72.168ZM828.723 65.592H838.347C838.323 62.664 836.403 61.032 833.547 61.032C831.099 61.032 828.987 62.688 828.723 65.592ZM842.205 71.28C842.205 70.032 844.101 70.032 844.101 71.28C844.101 71.424 844.077 71.544 844.029 71.688L843.069 74.136H842.037L842.781 72.144C842.469 72.024 842.205 71.736 842.205 71.28ZM861.396 56.4H855.324V65.016H861.396C866.988 65.016 866.988 56.4 861.396 56.4ZM861.396 66.192H855.324V72H854.028V55.2C856.476 55.2 858.948 55.2 861.396 55.2C868.692 55.2 868.692 66.192 861.396 66.192ZM884.395 72V57.072L877.963 66.912H877.531L871.051 57.072V72H869.755V55.2C870.379 55.2 870.667 55.2 871.291 55.2L877.723 64.992L884.083 55.2H885.667V72H884.395ZM896.74 56.4H890.668V65.016H896.74C902.332 65.016 902.332 56.4 896.74 56.4ZM896.74 66.192H890.668V72H889.372V55.2C891.82 55.2 894.292 55.2 896.74 55.2C904.036 55.2 904.036 66.192 896.74 66.192ZM920.396 69.552L921.188 70.344C919.988 71.544 918.428 72.12 916.868 72.12C913.532 72.12 910.772 69.816 910.772 66.072C910.772 62.328 913.436 60.024 916.868 60.024C918.428 60.024 919.988 60.624 921.188 61.8L920.42 62.544C919.46 61.584 918.14 61.128 916.868 61.128C914.18 61.128 911.924 62.88 911.924 66.072C911.924 69.264 914.18 71.016 916.868 71.016C918.14 71.016 919.436 70.512 920.396 69.552ZM929.406 72.168C926.07 72.168 923.382 69.84 923.382 66.072C923.382 62.52 926.07 59.952 929.406 59.952C932.742 59.952 935.718 61.992 935.262 66.624H924.582C924.822 69.408 926.958 71.016 929.406 71.016C930.966 71.016 932.79 70.392 933.678 69.216L934.518 69.888C933.366 71.4 931.302 72.168 929.406 72.168ZM924.582 65.592H934.206C934.182 62.664 932.262 61.032 929.406 61.032C926.958 61.032 924.846 62.688 924.582 65.592ZM938.304 60.144H939.408L939.456 62.256C940.2 60.648 941.88 60.024 943.392 60.024C944.28 60 945.144 60.24 945.936 60.72L945.408 61.68C944.784 61.296 944.088 61.128 943.392 61.128C941.184 61.152 939.48 62.928 939.48 65.088V72H938.304V60.144ZM950.013 56.688L951.165 56.568V60.144H955.197V61.128H951.165V68.352C951.165 69.96 951.501 71.088 953.349 71.088C953.925 71.088 954.573 70.896 955.173 70.608L955.581 71.568C954.837 71.928 954.093 72.168 953.349 72.168C950.829 72.168 950.013 70.68 950.013 68.352V61.128H947.493V60.144H950.013V56.688ZM959.074 60.096V72H957.898V60.096H959.074ZM957.562 56.28C957.562 57.528 959.458 57.528 959.458 56.28C959.458 55.032 957.562 55.032 957.562 56.28ZM964.821 72H963.669V61.272H961.245V60.24H963.669V59.184C963.669 56.832 964.605 55.128 967.221 55.128C968.109 55.128 968.901 55.44 969.573 55.944L968.997 56.808C968.349 56.424 967.893 56.208 967.173 56.208C965.685 56.208 964.821 57.12 964.821 59.184V60.24H968.733V61.272H964.821V72ZM972.434 60.096V72H971.258V60.096H972.434ZM970.922 56.28C970.922 57.528 972.818 57.528 972.818 56.28C972.818 55.032 970.922 55.032 970.922 56.28ZM981.156 72.168C977.82 72.168 975.132 69.84 975.132 66.072C975.132 62.52 977.82 59.952 981.156 59.952C984.492 59.952 987.468 61.992 987.012 66.624H976.332C976.572 69.408 978.708 71.016 981.156 71.016C982.716 71.016 984.54 70.392 985.428 69.216L986.268 69.888C985.116 71.4 983.052 72.168 981.156 72.168ZM976.332 65.592H985.956C985.932 62.664 984.012 61.032 981.156 61.032C978.708 61.032 976.596 62.688 976.332 65.592ZM995.406 61.08C992.742 61.08 990.558 62.736 990.558 66.072C990.558 69.36 992.742 71.04 995.406 71.04C998.19 71.04 1000.25 69 1000.25 66.048C1000.25 63.096 998.142 61.08 995.406 61.08ZM1000.28 55.2H1001.43V72H1000.28V69.384C999.294 71.184 997.35 72.192 995.334 72.192C992.022 72.192 989.406 70.008 989.406 66.072C989.406 62.16 992.046 59.952 995.358 59.952C997.398 59.952 999.318 60.816 1000.28 62.736V55.2ZM781.9 96H780.724V88.896C780.724 86.616 779.188 85.008 776.932 85.008C774.676 85.008 773.116 86.688 773.116 88.968V96H771.94V88.968C771.94 86.688 770.38 85.032 768.124 85.032C765.868 85.032 764.332 86.688 764.332 88.968V96H763.156V84.144H764.26L764.284 86.112C765.1 84.552 766.612 83.904 768.148 83.904C769.948 83.904 771.844 84.72 772.54 86.832C773.26 84.888 775.108 83.904 776.932 83.904C779.836 83.904 781.9 85.944 781.9 88.896V96ZM795.435 84.144H796.611C796.611 88.104 796.611 92.04 796.611 96H795.435V93.48C794.283 95.328 792.507 96.192 790.587 96.192C787.275 96.192 784.563 93.696 784.563 90.072C784.563 86.448 787.275 84 790.587 84C792.507 84 794.451 84.888 795.435 86.736V84.144ZM790.587 85.128C787.899 85.128 785.739 87.096 785.739 90.072C785.739 93.048 787.899 95.04 790.587 95.04C797.187 95.04 797.187 85.128 790.587 85.128ZM799.812 84.144H800.964V86.256C801.876 84.624 803.532 83.952 805.188 83.928C808.356 83.928 810.54 85.872 810.54 89.16V96H809.364V89.184C809.364 86.496 807.708 85.056 805.14 85.08C802.692 85.104 800.988 86.952 800.988 89.4V96H799.812V84.144ZM823.841 84.144H825.017C825.017 88.104 825.017 92.04 825.017 96H823.841V93.48C822.689 95.328 820.913 96.192 818.993 96.192C815.681 96.192 812.969 93.696 812.969 90.072C812.969 86.448 815.681 84 818.993 84C820.913 84 822.857 84.888 823.841 86.736V84.144ZM818.993 85.128C816.305 85.128 814.145 87.096 814.145 90.072C814.145 93.048 816.305 95.04 818.993 95.04C825.593 95.04 825.593 85.128 818.993 85.128ZM836.594 85.008L837.746 83.664L838.514 84.336L837.362 85.68C838.202 86.592 838.826 87.792 838.826 89.712C838.826 91.776 837.602 93.864 835.634 94.752C837.722 95.496 838.874 96.96 838.874 99C838.874 102.192 836.378 103.728 833.234 103.728C830.09 103.728 827.618 102 827.618 99H828.794C828.794 101.424 830.858 102.576 833.234 102.576C835.61 102.576 837.722 101.52 837.722 99C837.722 96.456 835.442 95.448 833.234 95.448C829.802 95.448 827.666 92.88 827.666 89.712C827.666 86.016 830.162 83.928 833.234 83.928C834.434 83.928 835.682 84.36 836.594 85.008ZM833.234 85.104C830.81 85.104 828.842 86.616 828.842 89.712C828.842 92.16 830.522 94.272 833.234 94.272C835.682 94.272 837.674 92.16 837.674 89.712C837.674 86.712 835.682 85.104 833.234 85.104ZM846.602 96.168C843.266 96.168 840.578 93.84 840.578 90.072C840.578 86.52 843.266 83.952 846.602 83.952C849.938 83.952 852.914 85.992 852.458 90.624H841.778C842.018 93.408 844.154 95.016 846.602 95.016C848.162 95.016 849.986 94.392 850.874 93.216L851.714 93.888C850.562 95.4 848.498 96.168 846.602 96.168ZM841.778 89.592H851.402C851.378 86.664 849.458 85.032 846.602 85.032C844.154 85.032 842.042 86.688 841.778 89.592ZM874.009 96H872.833V88.896C872.833 86.616 871.297 85.008 869.041 85.008C866.785 85.008 865.225 86.688 865.225 88.968V96H864.049V88.968C864.049 86.688 862.489 85.032 860.233 85.032C857.977 85.032 856.441 86.688 856.441 88.968V96H855.265V84.144H856.369L856.393 86.112C857.209 84.552 858.721 83.904 860.257 83.904C862.057 83.904 863.953 84.72 864.649 86.832C865.369 84.888 867.217 83.904 869.041 83.904C871.945 83.904 874.009 85.944 874.009 88.896V96ZM882.672 96.168C879.336 96.168 876.648 93.84 876.648 90.072C876.648 86.52 879.336 83.952 882.672 83.952C886.008 83.952 888.984 85.992 888.528 90.624H877.848C878.088 93.408 880.224 95.016 882.672 95.016C884.232 95.016 886.056 94.392 886.944 93.216L887.784 93.888C886.632 95.4 884.568 96.168 882.672 96.168ZM877.848 89.592H887.472C887.448 86.664 885.528 85.032 882.672 85.032C880.224 85.032 878.112 86.688 877.848 89.592ZM891.57 84.144H892.722V86.256C893.634 84.624 895.29 83.952 896.946 83.928C900.114 83.928 902.298 85.872 902.298 89.16V96H901.122V89.184C901.122 86.496 899.466 85.056 896.898 85.08C894.45 85.104 892.746 86.952 892.746 89.4V96H891.57V84.144ZM906.419 80.688L907.571 80.568V84.144H911.603V85.128H907.571V92.352C907.571 93.96 907.907 95.088 909.755 95.088C910.331 95.088 910.979 94.896 911.579 94.608L911.987 95.568C911.243 95.928 910.499 96.168 909.755 96.168C907.235 96.168 906.419 94.68 906.419 92.352V85.128H903.899V84.144H906.419V80.688ZM922.474 80.688L923.626 80.568V84.144H927.658V85.128H923.626V92.352C923.626 93.96 923.962 95.088 925.81 95.088C926.386 95.088 927.034 94.896 927.634 94.608L928.042 95.568C927.298 95.928 926.554 96.168 925.81 96.168C923.29 96.168 922.474 94.68 922.474 92.352V85.128H919.954V84.144H922.474V80.688ZM935.711 96.168C932.375 96.168 929.687 93.84 929.687 90.072C929.687 86.52 932.375 83.952 935.711 83.952C939.047 83.952 942.023 85.992 941.567 90.624H930.887C931.127 93.408 933.263 95.016 935.711 95.016C937.271 95.016 939.095 94.392 939.983 93.216L940.823 93.888C939.671 95.4 937.607 96.168 935.711 96.168ZM930.887 89.592H940.511C940.487 86.664 938.567 85.032 935.711 85.032C933.263 85.032 931.151 86.688 930.887 89.592ZM954.833 84.144H956.009C956.009 88.104 956.009 92.04 956.009 96H954.833V93.48C953.681 95.328 951.905 96.192 949.985 96.192C946.673 96.192 943.961 93.696 943.961 90.072C943.961 86.448 946.673 84 949.985 84C951.905 84 953.849 84.888 954.833 86.736V84.144ZM949.985 85.128C947.297 85.128 945.137 87.096 945.137 90.072C945.137 93.048 947.297 95.04 949.985 95.04C956.585 95.04 956.585 85.128 949.985 85.128ZM977.955 96H976.779V88.896C976.779 86.616 975.243 85.008 972.987 85.008C970.731 85.008 969.171 86.688 969.171 88.968V96H967.995V88.968C967.995 86.688 966.435 85.032 964.179 85.032C961.923 85.032 960.387 86.688 960.387 88.968V96H959.211V84.144H960.315L960.339 86.112C961.155 84.552 962.667 83.904 964.203 83.904C966.003 83.904 967.899 84.72 968.595 86.832C969.315 84.888 971.163 83.904 972.987 83.904C975.891 83.904 977.955 85.944 977.955 88.896V96Z" fill="black"/>
<path d="M429.666 273.875C430.747 248.084 439.21 222.321 455.569 199.905C468.024 182.837 483.718 169.543 501.194 160.235L499.888 157.698L485.68 132.214C535.78 105.342 610.552 109.398 664.06 140.065L702.032 88.1498" stroke="black" stroke-width="3" stroke-miterlimit="10" stroke-linecap="round" stroke-linejoin="round"/>
<path d="M674.249 359.476C673.264 360.825 672.262 362.149 671.24 363.446C639.618 403.641 589.358 421.298 541.769 413.074L538.005 444.916C512.849 440.845 488.242 430.934 466.246 414.882C435.284 392.287 414.351 361.054 404.33 326.915C404.257 326.676 404.191 326.442 404.118 326.203L340.111 345.464" stroke="black" stroke-width="3" stroke-miterlimit="10" stroke-linecap="round" stroke-linejoin="round"/>
<path d="M676.048 202.367C704.205 242.835 708.466 296.489 685.407 341.387L713.52 356.74C709.663 364.164 705.195 371.389 700.114 378.352C667.026 423.692 615.428 447.527 563.275 447.066L562.409 512.937" stroke="black" stroke-width="3" stroke-miterlimit="10" stroke-linecap="round" stroke-linejoin="round"/>
<path d="M513.704 154.373C555.71 137.254 605.355 141.643 644.694 170.351C649.783 174.065 654.538 178.067 658.944 182.31L680.001 158.136C728.537 203.979 744.496 273.97 722.77 335.414L786.669 357.422" stroke="black" stroke-width="3" stroke-miterlimit="10" stroke-linecap="round" stroke-linejoin="round"/>
<path d="M426.469 90.3289L462.02 144.498L463.485 146.495C450.911 156.075 439.501 167.605 429.709 181.022C403.831 216.484 393.933 258.717 398.672 299.128L429.994 290.542C433.06 328.445 451.994 364.842 485.121 389.017C498.764 398.974 513.648 406.009 529.036 410.232" stroke="black" stroke-width="3" stroke-miterlimit="10" stroke-linecap="round" stroke-linejoin="round"/>
<path d="M694.134 98.43C699.978 102.695 708.173 101.415 712.438 95.5703C716.703 89.7261 715.422 81.5311 709.578 77.2662C703.734 73.0013 695.539 74.2816 691.274 80.1259C687.009 85.9701 688.289 94.1652 694.134 98.43Z" fill="black"/>
<path d="M778.442 367.932C784.287 372.197 792.482 370.917 796.746 365.073C801.011 359.228 799.731 351.033 793.887 346.768C788.043 342.504 779.847 343.784 775.583 349.628C771.318 355.472 772.598 363.667 778.442 367.932Z" fill="black"/>
<path d="M554.033 522.225C559.878 526.49 568.073 525.21 572.338 519.365C576.602 513.521 575.322 505.326 569.478 501.061C563.634 496.796 555.439 498.077 551.174 503.921C546.909 509.765 548.189 517.96 554.033 522.225Z" fill="black"/>
<path d="M333.764 355.688C339.608 359.953 347.803 358.673 352.068 352.829C356.333 346.984 355.053 338.789 349.209 334.524C343.364 330.26 335.169 331.54 330.904 337.384C326.639 343.228 327.92 351.423 333.764 355.688Z" fill="black"/>
<path d="M418.985 101.568C424.829 105.833 433.024 104.552 437.289 98.708C441.554 92.8638 440.274 84.6687 434.43 80.4039C428.585 76.139 420.39 77.4193 416.125 83.2636C411.86 89.1078 413.141 97.3029 418.985 101.568Z" fill="black"/>
<path d="M43.2184 322.144H44.3224L44.3704 324.256C45.1144 322.648 46.7944 322.024 48.3064 322.024C49.1944 322 50.0584 322.24 50.8504 322.72L50.3224 323.68C49.6984 323.296 49.0024 323.128 48.3064 323.128C46.0984 323.152 44.3944 324.928 44.3944 327.088V334H43.2184V322.144ZM57.9689 334.168C54.6329 334.168 51.9449 331.84 51.9449 328.072C51.9449 324.52 54.6329 321.952 57.9689 321.952C61.3049 321.952 64.2809 323.992 63.8249 328.624H53.1449C53.3849 331.408 55.5209 333.016 57.9689 333.016C59.5289 333.016 61.3529 332.392 62.2409 331.216L63.0809 331.888C61.9289 333.4 59.8649 334.168 57.9689 334.168ZM53.1449 327.592H62.7689C62.7449 324.664 60.8249 323.032 57.9689 323.032C55.5209 323.032 53.4089 324.688 53.1449 327.592ZM72.2189 323.08C69.5549 323.08 67.3709 324.736 67.3709 328.072C67.3709 331.36 69.5549 333.04 72.2189 333.04C75.0029 333.04 77.0669 331 77.0669 328.048C77.0669 325.096 74.9549 323.08 72.2189 323.08ZM77.0909 317.2H78.2429V334H77.0909V331.384C76.1069 333.184 74.1629 334.192 72.1469 334.192C68.8349 334.192 66.2189 332.008 66.2189 328.072C66.2189 324.16 68.8589 321.952 72.1709 321.952C74.2109 321.952 76.1309 322.816 77.0909 324.736V317.2ZM97.0979 323.536L96.3779 324.304C95.1779 323.248 94.0019 323.056 92.6819 323.056C90.8339 323.032 89.0579 323.728 89.1059 325.24C89.1539 326.824 91.2179 327.136 92.7059 327.4C94.8179 327.76 97.7219 328.12 97.6019 330.88C97.5299 333.496 94.8179 334.192 92.7299 334.192C90.6419 334.192 88.5779 333.4 87.5459 331.816L88.4099 331.048C89.3939 332.464 91.1699 333.064 92.7539 333.064C94.1939 333.064 96.3779 332.68 96.4499 330.808C96.4979 329.104 94.5299 328.768 92.5859 328.456C90.2819 328.072 88.0019 327.64 87.9779 325.264C87.9539 322.936 90.2819 321.928 92.6819 321.952C94.4099 321.952 95.9219 322.432 97.0979 323.536ZM105.57 334.168C102.234 334.168 99.5464 331.84 99.5464 328.072C99.5464 324.52 102.234 321.952 105.57 321.952C108.906 321.952 111.882 323.992 111.426 328.624H100.746C100.986 331.408 103.122 333.016 105.57 333.016C107.13 333.016 108.954 332.392 109.842 331.216L110.682 331.888C109.53 333.4 107.466 334.168 105.57 334.168ZM100.746 327.592H110.37C110.346 324.664 108.426 323.032 105.57 323.032C103.122 323.032 101.01 324.688 100.746 327.592ZM124.692 322.144H125.868C125.868 326.104 125.868 330.04 125.868 334H124.692V331.48C123.54 333.328 121.764 334.192 119.844 334.192C116.532 334.192 113.82 331.696 113.82 328.072C113.82 324.448 116.532 322 119.844 322C121.764 322 123.708 322.888 124.692 324.736V322.144ZM119.844 323.128C117.156 323.128 114.996 325.096 114.996 328.072C114.996 331.048 117.156 333.04 119.844 333.04C126.444 333.04 126.444 323.128 119.844 323.128ZM129.07 317.2H130.246V334H129.07V317.2ZM145.485 334.168C142.149 334.168 139.461 331.84 139.461 328.072C139.461 324.52 142.149 321.952 145.485 321.952C148.821 321.952 151.797 323.992 151.341 328.624H140.661C140.901 331.408 143.037 333.016 145.485 333.016C147.045 333.016 148.869 332.392 149.757 331.216L150.597 331.888C149.445 333.4 147.381 334.168 145.485 334.168ZM140.661 327.592H150.285C150.261 324.664 148.341 323.032 145.485 323.032C143.037 323.032 140.925 324.688 140.661 327.592ZM154.383 317.2H155.559V334H154.383V317.2ZM164.188 334.168C160.852 334.168 158.164 331.84 158.164 328.072C158.164 324.52 160.852 321.952 164.188 321.952C167.524 321.952 170.5 323.992 170.044 328.624H159.364C159.604 331.408 161.74 333.016 164.188 333.016C165.748 333.016 167.572 332.392 168.46 331.216L169.3 331.888C168.148 333.4 166.084 334.168 164.188 334.168ZM159.364 327.592H168.988C168.964 324.664 167.044 323.032 164.188 323.032C161.74 323.032 159.628 324.688 159.364 327.592ZM182.014 331.552L182.806 332.344C181.606 333.544 180.046 334.12 178.486 334.12C175.15 334.12 172.39 331.816 172.39 328.072C172.39 324.328 175.054 322.024 178.486 322.024C180.046 322.024 181.606 322.624 182.806 323.8L182.038 324.544C181.078 323.584 179.758 323.128 178.486 323.128C175.798 323.128 173.542 324.88 173.542 328.072C173.542 331.264 175.798 333.016 178.486 333.016C179.758 333.016 181.054 332.512 182.014 331.552ZM186.763 318.688L187.915 318.568V322.144H191.947V323.128H187.915V330.352C187.915 331.96 188.251 333.088 190.099 333.088C190.675 333.088 191.323 332.896 191.923 332.608L192.331 333.568C191.587 333.928 190.843 334.168 190.099 334.168C187.579 334.168 186.763 332.68 186.763 330.352V323.128H184.243V322.144H186.763V318.688ZM194.648 322.144H195.752L195.8 324.256C196.544 322.648 198.224 322.024 199.736 322.024C200.624 322 201.488 322.24 202.28 322.72L201.752 323.68C201.128 323.296 200.432 323.128 199.736 323.128C197.528 323.152 195.824 324.928 195.824 327.088V334H194.648V322.144ZM205.223 322.096V334H204.047V322.096H205.223ZM203.711 318.28C203.711 319.528 205.607 319.528 205.607 318.28C205.607 317.032 203.711 317.032 203.711 318.28ZM217.521 331.552L218.313 332.344C217.113 333.544 215.553 334.12 213.993 334.12C210.657 334.12 207.897 331.816 207.897 328.072C207.897 324.328 210.561 322.024 213.993 322.024C215.553 322.024 217.113 322.624 218.313 323.8L217.545 324.544C216.585 323.584 215.265 323.128 213.993 323.128C211.305 323.128 209.049 324.88 209.049 328.072C209.049 331.264 211.305 333.016 213.993 333.016C215.265 333.016 216.561 332.512 217.521 331.552ZM221.887 322.096V334H220.711V322.096H221.887ZM220.375 318.28C220.375 319.528 222.271 319.528 222.271 318.28C222.271 317.032 220.375 317.032 220.375 318.28ZM235.482 322.144H236.658C236.658 326.104 236.658 330.04 236.658 334H235.482V331.48C234.33 333.328 232.554 334.192 230.634 334.192C227.322 334.192 224.61 331.696 224.61 328.072C224.61 324.448 227.322 322 230.634 322C232.554 322 234.498 322.888 235.482 324.736V322.144ZM230.634 323.128C227.946 323.128 225.786 325.096 225.786 328.072C225.786 331.048 227.946 333.04 230.634 333.04C237.234 333.04 237.234 323.128 230.634 323.128ZM239.859 322.144H241.011V324.256C241.923 322.624 243.579 321.952 245.235 321.928C248.403 321.928 250.587 323.872 250.587 327.16V334H249.411V327.184C249.411 324.496 247.755 323.056 245.187 323.08C242.739 323.104 241.035 324.952 241.035 327.4V334H239.859V322.144ZM262.52 323.536L261.8 324.304C260.6 323.248 259.424 323.056 258.104 323.056C256.256 323.032 254.48 323.728 254.528 325.24C254.576 326.824 256.64 327.136 258.128 327.4C260.24 327.76 263.144 328.12 263.024 330.88C262.952 333.496 260.24 334.192 258.152 334.192C256.064 334.192 254 333.4 252.968 331.816L253.832 331.048C254.816 332.464 256.592 333.064 258.176 333.064C259.616 333.064 261.8 332.68 261.872 330.808C261.92 329.104 259.952 328.768 258.008 328.456C255.704 328.072 253.424 327.64 253.4 325.264C253.376 322.936 255.704 321.928 258.104 321.952C259.832 321.952 261.344 322.432 262.52 323.536ZM282.474 322.144H283.65C283.65 326.104 283.65 330.04 283.65 334H282.474V331.48C281.322 333.328 279.546 334.192 277.626 334.192C274.314 334.192 271.602 331.696 271.602 328.072C271.602 324.448 274.314 322 277.626 322C279.546 322 281.49 322.888 282.474 324.736V322.144ZM277.626 323.128C274.938 323.128 272.778 325.096 272.778 328.072C272.778 331.048 274.938 333.04 277.626 333.04C284.226 333.04 284.226 323.128 277.626 323.128ZM286.851 322.144H288.003V324.256C288.915 322.624 290.571 321.952 292.227 321.928C295.395 321.928 297.579 323.872 297.579 327.16V334H296.403V327.184C296.403 324.496 294.747 323.056 292.179 323.08C289.731 323.104 288.027 324.952 288.027 327.4V334H286.851V322.144ZM306.008 323.08C303.344 323.08 301.16 324.736 301.16 328.072C301.16 331.36 303.344 333.04 306.008 333.04C308.792 333.04 310.856 331 310.856 328.048C310.856 325.096 308.744 323.08 306.008 323.08ZM310.88 317.2H312.032V334H310.88V331.384C309.896 333.184 307.952 334.192 305.936 334.192C302.624 334.192 300.008 332.008 300.008 328.072C300.008 324.16 302.648 321.952 305.96 321.952C308 321.952 309.92 322.816 310.88 324.736V317.2ZM42.9143 357.088C45.6023 357.088 47.7623 355.408 47.7623 352.072C47.7623 348.736 45.6023 347.104 42.9143 347.104C40.1543 347.104 38.1143 349.192 38.1143 352.096C38.1143 355 40.2023 357.088 42.9143 357.088ZM38.0183 362.944H36.8903V346.144H38.0423V348.952C38.9783 347.152 40.8743 345.976 43.1783 345.976C46.3943 346.096 48.9383 348.256 48.9383 352.072C48.9383 356.056 46.2503 358.216 42.9143 358.216C40.8983 358.216 39.0263 357.232 38.0183 355.264V362.944ZM51.82 341.2H52.996V358H51.82V341.2ZM66.9771 358H65.8251V355.864C64.9131 357.496 63.2571 358.168 61.6011 358.192C58.4331 358.192 56.2491 356.248 56.2491 352.96V346.12H57.4251V352.936C57.4251 355.624 59.0811 357.064 61.6491 357.04C64.0971 357.016 65.8011 355.168 65.8011 352.72V346.12H66.9771V358ZM88.8218 358H87.6458V350.896C87.6458 348.616 86.1098 347.008 83.8538 347.008C81.5978 347.008 80.0378 348.688 80.0378 350.968V358H78.8618V350.968C78.8618 348.688 77.3018 347.032 75.0458 347.032C72.7898 347.032 71.2538 348.688 71.2538 350.968V358H70.0778V346.144H71.1818L71.2058 348.112C72.0218 346.552 73.5338 345.904 75.0698 345.904C76.8698 345.904 78.7658 346.72 79.4618 348.832C80.1818 346.888 82.0298 345.904 83.8538 345.904C86.7578 345.904 88.8218 347.944 88.8218 350.896V358ZM98.1565 347.08C95.4205 347.08 93.3085 349.096 93.3085 352.048C93.3085 355 95.3725 357.04 98.1565 357.04C100.821 357.04 103.005 355.36 103.005 352.072C103.005 348.736 100.821 347.08 98.1565 347.08ZM92.1325 341.2H93.2845V348.736C94.2445 346.816 96.1645 345.952 98.2045 345.952C101.517 345.952 104.157 348.16 104.157 352.072C104.157 356.008 101.541 358.192 98.2285 358.192C96.2125 358.192 94.2685 357.184 93.2845 355.384V358H92.1325V341.2ZM112.391 358.168C109.055 358.168 106.367 355.84 106.367 352.072C106.367 348.52 109.055 345.952 112.391 345.952C115.727 345.952 118.703 347.992 118.247 352.624H107.567C107.807 355.408 109.943 357.016 112.391 357.016C113.951 357.016 115.775 356.392 116.663 355.216L117.503 355.888C116.351 357.4 114.287 358.168 112.391 358.168ZM107.567 351.592H117.191C117.167 348.664 115.247 347.032 112.391 347.032C109.943 347.032 107.831 348.688 107.567 351.592ZM121.289 346.144H122.393L122.441 348.256C123.185 346.648 124.865 346.024 126.377 346.024C127.265 346 128.129 346.24 128.921 346.72L128.393 347.68C127.769 347.296 127.073 347.128 126.377 347.128C124.169 347.152 122.465 348.928 122.465 351.088V358H121.289V346.144ZM139.543 347.536L138.823 348.304C137.623 347.248 136.447 347.056 135.127 347.056C133.279 347.032 131.503 347.728 131.551 349.24C131.599 350.824 133.663 351.136 135.151 351.4C137.263 351.76 140.167 352.12 140.047 354.88C139.975 357.496 137.263 358.192 135.175 358.192C133.087 358.192 131.023 357.4 129.991 355.816L130.855 355.048C131.839 356.464 133.615 357.064 135.199 357.064C136.639 357.064 138.823 356.68 138.895 354.808C138.943 353.104 136.975 352.768 135.031 352.456C132.727 352.072 130.447 351.64 130.423 349.264C130.399 346.936 132.727 345.928 135.127 345.952C136.855 345.952 138.367 346.432 139.543 347.536ZM142.592 350.08C142.592 348.832 144.488 348.832 144.488 350.08C144.488 351.328 142.592 351.328 142.592 350.08ZM142.592 357.28C142.592 356.032 144.488 356.032 144.488 357.28C144.488 357.424 144.464 357.544 144.416 357.688L143.456 360.136H142.424L143.168 358.144C142.856 358.024 142.592 357.736 142.592 357.28ZM160.336 347.08C157.6 347.08 155.488 349.096 155.488 352.048C155.488 355 157.552 357.04 160.336 357.04C163 357.04 165.184 355.36 165.184 352.072C165.184 348.736 163 347.08 160.336 347.08ZM154.312 341.2H155.464V348.736C156.424 346.816 158.344 345.952 160.384 345.952C163.696 345.952 166.336 348.16 166.336 352.072C166.336 356.008 163.72 358.192 160.408 358.192C158.392 358.192 156.448 357.184 155.464 355.384V358H154.312V341.2ZM169.218 346.144H170.322L170.37 348.256C171.114 346.648 172.794 346.024 174.306 346.024C175.194 346 176.058 346.24 176.85 346.72L176.322 347.68C175.698 347.296 175.002 347.128 174.306 347.128C172.098 347.152 170.394 348.928 170.394 351.088V358H169.218V346.144ZM188.841 346.144H190.017C190.017 350.104 190.017 354.04 190.017 358H188.841V355.48C187.689 357.328 185.913 358.192 183.993 358.192C180.681 358.192 177.969 355.696 177.969 352.072C177.969 348.448 180.681 346 183.993 346C185.913 346 187.857 346.888 188.841 348.736V346.144ZM183.993 347.128C181.305 347.128 179.145 349.096 179.145 352.072C179.145 355.048 181.305 357.04 183.993 357.04C190.593 357.04 190.593 347.128 183.993 347.128ZM193.218 346.144H194.37V348.256C195.282 346.624 196.938 345.952 198.594 345.928C201.762 345.928 203.946 347.872 203.946 351.16V358H202.77V351.184C202.77 348.496 201.114 347.056 198.546 347.08C196.098 347.104 194.394 348.952 194.394 351.4V358H193.218V346.144ZM212.375 347.08C209.711 347.08 207.527 348.736 207.527 352.072C207.527 355.36 209.711 357.04 212.375 357.04C215.159 357.04 217.223 355 217.223 352.048C217.223 349.096 215.111 347.08 212.375 347.08ZM217.247 341.2H218.399V358H217.247V355.384C216.263 357.184 214.319 358.192 212.303 358.192C208.991 358.192 206.375 356.008 206.375 352.072C206.375 348.16 209.015 345.952 212.327 345.952C214.367 345.952 216.287 346.816 217.247 348.736V341.2ZM237.326 355.552L238.118 356.344C236.918 357.544 235.358 358.12 233.798 358.12C230.462 358.12 227.702 355.816 227.702 352.072C227.702 348.328 230.366 346.024 233.798 346.024C235.358 346.024 236.918 346.624 238.118 347.8L237.35 348.544C236.39 347.584 235.07 347.128 233.798 347.128C231.11 347.128 228.854 348.88 228.854 352.072C228.854 355.264 231.11 357.016 233.798 357.016C235.07 357.016 236.366 356.512 237.326 355.552ZM246.336 358.168C243 358.168 240.312 355.84 240.312 352.072C240.312 348.52 243 345.952 246.336 345.952C249.672 345.952 252.648 347.992 252.192 352.624H241.512C241.752 355.408 243.888 357.016 246.336 357.016C247.896 357.016 249.72 356.392 250.608 355.216L251.448 355.888C250.296 357.4 248.232 358.168 246.336 358.168ZM241.512 351.592H251.136C251.112 348.664 249.192 347.032 246.336 347.032C243.888 347.032 241.776 348.688 241.512 351.592ZM255.234 346.144H256.338L256.386 348.256C257.13 346.648 258.81 346.024 260.322 346.024C261.21 346 262.074 346.24 262.866 346.72L262.338 347.68C261.714 347.296 261.018 347.128 260.322 347.128C258.114 347.152 256.41 348.928 256.41 351.088V358H255.234V346.144ZM266.943 342.688L268.095 342.568V346.144H272.127V347.128H268.095V354.352C268.095 355.96 268.431 357.088 270.279 357.088C270.855 357.088 271.503 356.896 272.103 356.608L272.511 357.568C271.767 357.928 271.023 358.168 270.279 358.168C267.759 358.168 266.943 356.68 266.943 354.352V347.128H264.423V346.144H266.943V342.688ZM276.004 346.096V358H274.828V346.096H276.004ZM274.492 342.28C274.492 343.528 276.388 343.528 276.388 342.28C276.388 341.032 274.492 341.032 274.492 342.28ZM281.751 358H280.599V347.272H278.175V346.24H280.599V345.184C280.599 342.832 281.535 341.128 284.151 341.128C285.039 341.128 285.831 341.44 286.503 341.944L285.927 342.808C285.279 342.424 284.823 342.208 284.103 342.208C282.615 342.208 281.751 343.12 281.751 345.184V346.24H285.663V347.272H281.751V358ZM289.363 346.096V358H288.187V346.096H289.363ZM287.851 342.28C287.851 343.528 289.747 343.528 289.747 342.28C289.747 341.032 287.851 341.032 287.851 342.28ZM298.086 358.168C294.75 358.168 292.062 355.84 292.062 352.072C292.062 348.52 294.75 345.952 298.086 345.952C301.422 345.952 304.398 347.992 303.942 352.624H293.262C293.502 355.408 295.638 357.016 298.086 357.016C299.646 357.016 301.47 356.392 302.358 355.216L303.198 355.888C302.046 357.4 299.982 358.168 298.086 358.168ZM293.262 351.592H302.886C302.862 348.664 300.942 347.032 298.086 347.032C295.638 347.032 293.526 348.688 293.262 351.592ZM312.336 347.08C309.672 347.08 307.488 348.736 307.488 352.072C307.488 355.36 309.672 357.04 312.336 357.04C315.12 357.04 317.184 355 317.184 352.048C317.184 349.096 315.072 347.08 312.336 347.08ZM317.208 341.2H318.36V358H317.208V355.384C316.224 357.184 314.28 358.192 312.264 358.192C308.952 358.192 306.336 356.008 306.336 352.072C306.336 348.16 308.976 345.952 312.288 345.952C314.328 345.952 316.248 346.816 317.208 348.736V341.2ZM131.043 370.096V382H129.867V370.096H131.043ZM129.531 366.28C129.531 367.528 131.427 367.528 131.427 366.28C131.427 365.032 129.531 365.032 129.531 366.28ZM134.414 370.144H135.566V372.256C136.478 370.624 138.134 369.952 139.79 369.928C142.958 369.928 145.142 371.872 145.142 375.16V382H143.966V375.184C143.966 372.496 142.31 371.056 139.742 371.08C137.294 371.104 135.59 372.952 135.59 375.4V382H134.414V370.144ZM157.074 371.536L156.354 372.304C155.154 371.248 153.978 371.056 152.658 371.056C150.81 371.032 149.034 371.728 149.082 373.24C149.13 374.824 151.194 375.136 152.682 375.4C154.794 375.76 157.698 376.12 157.578 378.88C157.506 381.496 154.794 382.192 152.706 382.192C150.618 382.192 148.554 381.4 147.522 379.816L148.386 379.048C149.37 380.464 151.146 381.064 152.73 381.064C154.17 381.064 156.354 380.68 156.426 378.808C156.474 377.104 154.506 376.768 152.562 376.456C150.258 376.072 147.978 375.64 147.954 373.264C147.93 370.936 150.258 369.928 152.658 369.952C154.386 369.952 155.898 370.432 157.074 371.536ZM161.755 366.688L162.907 366.568V370.144H166.939V371.128H162.907V378.352C162.907 379.96 163.243 381.088 165.091 381.088C165.667 381.088 166.315 380.896 166.915 380.608L167.323 381.568C166.579 381.928 165.835 382.168 165.091 382.168C162.571 382.168 161.755 380.68 161.755 378.352V371.128H159.235V370.144H161.755V366.688ZM179.864 370.144H181.04C181.04 374.104 181.04 378.04 181.04 382H179.864V379.48C178.712 381.328 176.936 382.192 175.016 382.192C171.704 382.192 168.992 379.696 168.992 376.072C168.992 372.448 171.704 370 175.016 370C176.936 370 178.88 370.888 179.864 372.736V370.144ZM175.016 371.128C172.328 371.128 170.168 373.096 170.168 376.072C170.168 379.048 172.328 381.04 175.016 381.04C181.616 381.04 181.616 371.128 175.016 371.128ZM184.242 365.2H185.418V382H184.242V365.2ZM188.695 365.2H189.871V382H188.695V365.2ZM198.5 382.168C195.164 382.168 192.476 379.84 192.476 376.072C192.476 372.52 195.164 369.952 198.5 369.952C201.836 369.952 204.812 371.992 204.356 376.624H193.676C193.916 379.408 196.052 381.016 198.5 381.016C200.06 381.016 201.884 380.392 202.772 379.216L203.612 379.888C202.46 381.4 200.396 382.168 198.5 382.168ZM193.676 375.592H203.3C203.276 372.664 201.356 371.032 198.5 371.032C196.052 371.032 193.94 372.688 193.676 375.592ZM207.398 370.144H208.502L208.55 372.256C209.294 370.648 210.974 370.024 212.486 370.024C213.374 370 214.238 370.24 215.03 370.72L214.502 371.68C213.878 371.296 213.182 371.128 212.486 371.128C210.278 371.152 208.574 372.928 208.574 375.088V382H207.398V370.144ZM225.653 371.536L224.933 372.304C223.733 371.248 222.557 371.056 221.237 371.056C219.389 371.032 217.613 371.728 217.661 373.24C217.709 374.824 219.773 375.136 221.261 375.4C223.373 375.76 226.277 376.12 226.157 378.88C226.085 381.496 223.373 382.192 221.285 382.192C219.197 382.192 217.133 381.4 216.101 379.816L216.965 379.048C217.949 380.464 219.725 381.064 221.309 381.064C222.749 381.064 224.933 380.68 225.005 378.808C225.053 377.104 223.085 376.768 221.141 376.456C218.837 376.072 216.557 375.64 216.533 373.264C216.509 370.936 218.837 369.928 221.237 369.952C222.965 369.952 224.477 370.432 225.653 371.536Z" fill="black"/>
</svg>
