<svg width="805" height="127" viewBox="0 0 805 127" fill="none" xmlns="http://www.w3.org/2000/svg">
<path d="M580.269 49.532C569.705 49.532 561.193 42.16 561.193 30.228C561.193 18.98 569.705 10.848 580.269 10.848C590.833 10.848 600.257 17.308 598.813 31.976H564.993C565.753 40.792 572.517 45.884 580.269 45.884C585.209 45.884 590.985 43.908 593.797 40.184L596.457 42.312C592.809 47.1 586.273 49.532 580.269 49.532ZM564.993 28.708H595.469C595.393 19.436 589.313 14.268 580.269 14.268C572.517 14.268 565.829 19.512 564.993 28.708ZM609.755 11.456L620.927 26.808L632.099 11.456H636.583V11.608L623.131 29.544L637.647 48.848V49H633.239L620.927 32.204L608.615 49H604.207V48.848L618.723 29.544L605.271 11.608V11.456H609.755ZM663.74 46.112C672.252 46.112 679.092 40.792 679.092 30.228C679.092 19.664 672.252 14.496 663.74 14.496C655 14.496 648.54 21.108 648.54 30.304C648.54 39.5 655.152 46.112 663.74 46.112ZM648.236 64.656H644.664V11.456H648.312V20.348C651.276 14.648 657.28 10.924 664.576 10.924C674.76 11.304 682.816 18.144 682.816 30.228C682.816 42.844 674.304 49.684 663.74 49.684C657.356 49.684 651.428 46.568 648.236 40.336V64.656ZM708.89 49.532C698.326 49.532 689.814 42.16 689.814 30.228C689.814 18.98 698.326 10.848 708.89 10.848C719.454 10.848 728.878 17.308 727.434 31.976H693.614C694.374 40.792 701.138 45.884 708.89 45.884C713.83 45.884 719.606 43.908 722.418 40.184L725.078 42.312C721.43 47.1 714.894 49.532 708.89 49.532ZM693.614 28.708H724.09C724.014 19.436 717.934 14.268 708.89 14.268C701.138 14.268 694.45 19.512 693.614 28.708ZM737.067 11.456H740.563L740.715 18.144C743.071 13.052 748.391 11.076 753.179 11.076C755.991 11 758.727 11.76 761.235 13.28L759.563 16.32C757.587 15.104 755.383 14.572 753.179 14.572C746.187 14.648 740.791 20.272 740.791 27.112V49H737.067V11.456ZM774.143 0.511999L777.791 0.131999V11.456H790.559V14.572H777.791V37.448C777.791 42.54 778.855 46.112 784.707 46.112C786.531 46.112 788.583 45.504 790.483 44.592L791.775 47.632C789.419 48.772 787.063 49.532 784.707 49.532C776.727 49.532 774.143 44.82 774.143 37.448V14.572H766.163V11.456H774.143V0.511999ZM798.354 46.72C798.354 42.768 804.358 42.768 804.358 46.72C804.358 47.176 804.282 47.556 804.13 48.012L801.09 55.764H797.822L800.178 49.456C799.19 49.076 798.354 48.164 798.354 46.72ZM0.122031 71.8H9.39403V92.624C12.738 88.292 16.842 87 21.098 87C31.738 87 36.45 94.22 36.45 105.24V125H27.178V105.316C27.178 98.476 23.606 95.588 18.666 95.588C13.194 95.588 9.39403 100.224 9.39403 105.848V125H0.122031V71.8ZM73.6942 92.7L73.9982 87.532H82.8902V125H74.1502L73.6942 119.528C71.5662 123.936 65.7142 126.064 61.5342 126.14C50.4382 126.216 42.2302 119.376 42.2302 106.228C42.2302 93.308 50.8182 86.544 61.7622 86.62C66.7782 86.62 71.5662 88.976 73.6942 92.7ZM62.5982 94.904C56.4422 94.904 51.5022 99.084 51.5022 106.228C51.5022 113.372 56.4422 117.628 62.5982 117.628C77.1902 117.628 77.1902 94.904 62.5982 94.904ZM120.383 91.408L115.215 97.488C112.555 94.98 109.515 94.144 105.943 94.144C101.535 94.144 99.1031 95.512 99.1031 97.868C99.1031 100.3 101.307 101.668 106.095 101.972C113.163 102.428 122.131 104.024 122.131 113.98C122.131 120.592 116.735 126.292 106.019 126.292C100.091 126.292 94.1631 125.304 88.6911 119.604L93.2511 112.992C95.9111 115.956 101.991 118.16 106.171 118.236C109.667 118.312 112.935 116.488 112.935 113.752C112.935 111.168 110.807 110.104 105.487 109.8C98.4191 109.268 89.9831 106.684 89.9831 98.172C89.9831 89.508 98.9511 86.468 105.791 86.468C111.643 86.468 116.051 87.608 120.383 91.408ZM157.715 91.408L152.547 97.488C149.887 94.98 146.847 94.144 143.275 94.144C138.867 94.144 136.435 95.512 136.435 97.868C136.435 100.3 138.639 101.668 143.427 101.972C150.495 102.428 159.463 104.024 159.463 113.98C159.463 120.592 154.067 126.292 143.351 126.292C137.423 126.292 131.495 125.304 126.023 119.604L130.583 112.992C133.243 115.956 139.323 118.16 143.503 118.236C146.999 118.312 150.267 116.488 150.267 113.752C150.267 111.168 148.139 110.104 142.819 109.8C135.751 109.268 127.315 106.684 127.315 98.172C127.315 89.508 136.283 86.468 143.123 86.468C148.975 86.468 153.383 87.608 157.715 91.408ZM165.407 71.876H174.603V125H165.407V71.876ZM219.864 109.572H190.604C191.212 114.208 195.24 117.552 201.776 117.552C205.196 117.552 209.68 116.26 211.808 114.056L217.736 119.908C213.784 124.012 207.324 125.988 201.624 125.988C188.704 125.988 181.028 118.008 181.028 106C181.028 94.6 188.78 86.392 200.94 86.392C213.48 86.392 221.308 94.144 219.864 109.572ZM190.756 101.896H210.972C210.364 97.032 206.564 94.6 201.244 94.6C196.228 94.6 192.124 97.032 190.756 101.896ZM226.629 104.48V95.968H254.673V104.48H226.629ZM274.129 125H264.857V96.196H257.865V88.064H264.857V85.556C264.857 75.524 271.621 70.888 279.145 70.888C282.413 70.888 285.833 71.952 288.873 73.928L285.453 80.844C283.477 79.552 281.653 78.868 279.753 78.868C276.561 78.868 274.129 80.996 274.129 85.556V88.064H285.149V96.196H274.129V125ZM291.728 87.532H300.316L301 91.864C303.888 87.228 307.764 86.544 311.564 86.544C315.44 86.544 319.164 88.064 321.216 90.116L317.036 98.172C315.136 96.576 313.388 95.74 310.348 95.74C305.484 95.74 301 98.324 301 105.24V125H291.728V87.532ZM361.845 109.572H332.585C333.193 114.208 337.221 117.552 343.757 117.552C347.177 117.552 351.661 116.26 353.789 114.056L359.717 119.908C355.765 124.012 349.305 125.988 343.605 125.988C330.685 125.988 323.009 118.008 323.009 106C323.009 94.6 330.761 86.392 342.921 86.392C355.461 86.392 363.289 94.144 361.845 109.572ZM332.737 101.896H352.953C352.345 97.032 348.545 94.6 343.225 94.6C338.209 94.6 334.105 97.032 332.737 101.896ZM406.153 109.572H376.893C377.501 114.208 381.529 117.552 388.065 117.552C391.485 117.552 395.969 116.26 398.097 114.056L404.025 119.908C400.073 124.012 393.613 125.988 387.913 125.988C374.993 125.988 367.317 118.008 367.317 106C367.317 94.6 375.069 86.392 387.229 86.392C399.769 86.392 407.597 94.144 406.153 109.572ZM377.045 101.896H397.261C396.653 97.032 392.853 94.6 387.533 94.6C382.517 94.6 378.413 97.032 377.045 101.896ZM439.092 87.304V125H435.368V87.304H439.092ZM434.304 75.22C434.304 79.172 440.308 79.172 440.308 75.22C440.308 71.268 434.304 71.268 434.304 75.22ZM449.766 87.456H453.414V94.144C456.302 88.976 461.546 86.848 466.79 86.772C476.822 86.772 483.738 92.928 483.738 103.34V125H480.014V103.416C480.014 94.904 474.77 90.344 466.638 90.42C458.886 90.496 453.49 96.348 453.49 104.1V125H449.766V87.456ZM521.525 91.864L519.245 94.296C515.445 90.952 511.721 90.344 507.541 90.344C501.689 90.268 496.065 92.472 496.217 97.26C496.369 102.276 502.905 103.264 507.617 104.1C514.305 105.24 523.501 106.38 523.121 115.12C522.893 123.404 514.305 125.608 507.693 125.608C501.081 125.608 494.545 123.1 491.277 118.084L494.013 115.652C497.129 120.136 502.753 122.036 507.769 122.036C512.329 122.036 519.245 120.82 519.473 114.892C519.625 109.496 513.393 108.432 507.237 107.444C499.941 106.228 492.721 104.86 492.645 97.336C492.569 89.964 499.941 86.772 507.541 86.848C513.013 86.848 517.801 88.368 521.525 91.864ZM536.347 76.512L539.995 76.132V87.456H552.763V90.572H539.995V113.448C539.995 118.54 541.059 122.112 546.911 122.112C548.735 122.112 550.787 121.504 552.687 120.592L553.979 123.632C551.623 124.772 549.267 125.532 546.911 125.532C538.931 125.532 536.347 120.82 536.347 113.448V90.572H528.367V87.456H536.347V76.512ZM593.693 87.456H597.417C597.417 99.996 597.417 112.46 597.417 125H593.693V117.02C590.045 122.872 584.421 125.608 578.341 125.608C567.853 125.608 559.265 117.704 559.265 106.228C559.265 94.752 567.853 87 578.341 87C584.421 87 590.577 89.812 593.693 95.664V87.456ZM578.341 90.572C569.829 90.572 562.989 96.804 562.989 106.228C562.989 115.652 569.829 121.96 578.341 121.96C599.241 121.96 599.241 90.572 578.341 90.572ZM607.555 71.8H611.279V125H607.555V71.8ZM621.657 71.8H625.381V125H621.657V71.8ZM668.134 87.456H671.858C671.858 99.996 671.858 112.46 671.858 125H668.134V117.02C664.486 122.872 658.862 125.608 652.782 125.608C642.294 125.608 633.706 117.704 633.706 106.228C633.706 94.752 642.294 87 652.782 87C658.862 87 665.018 89.812 668.134 95.664V87.456ZM652.782 90.572C644.27 90.572 637.43 96.804 637.43 106.228C637.43 115.652 644.27 121.96 652.782 121.96C673.682 121.96 673.682 90.572 652.782 90.572ZM685.304 76.512L688.952 76.132V87.456H701.72V90.572H688.952V113.448C688.952 118.54 690.016 122.112 695.868 122.112C697.692 122.112 699.744 121.504 701.644 120.592L702.936 123.632C700.58 124.772 698.224 125.532 695.868 125.532C687.888 125.532 685.304 120.82 685.304 113.448V90.572H677.324V87.456H685.304V76.512ZM713.998 87.304V125H710.274V87.304H713.998ZM709.21 75.22C709.21 79.172 715.214 79.172 715.214 75.22C715.214 71.268 709.21 71.268 709.21 75.22ZM742.817 125.532C732.253 125.532 723.741 118.236 723.741 106.304C723.741 94.372 732.253 86.772 742.817 86.772C753.381 86.772 761.893 94.372 761.893 106.304C761.893 118.236 753.381 125.532 742.817 125.532ZM742.817 121.884C751.329 121.884 758.245 116.032 758.245 106.304C758.245 96.576 751.329 90.268 742.817 90.268C734.305 90.268 727.389 96.576 727.389 106.304C727.389 116.032 734.305 121.884 742.817 121.884ZM770.465 87.456H774.113V94.144C777.001 88.976 782.245 86.848 787.489 86.772C797.521 86.772 804.437 92.928 804.437 103.34V125H800.713V103.416C800.713 94.904 795.469 90.344 787.337 90.42C779.585 90.496 774.189 96.348 774.189 104.1V125H770.465V87.456Z" fill="black"/>
</svg>
