<svg width="1128" height="583" viewBox="0 0 1128 583" fill="none" xmlns="http://www.w3.org/2000/svg">
<path d="M213.201 85.144L209.001 97H207.705L205.785 91.816L204.345 87.208L202.857 91.84L200.937 97H199.641L195.417 85.144H196.713L200.289 95.632L203.913 85.144H204.753L208.353 95.632L211.905 85.144H213.201ZM220.585 97.168C217.249 97.168 214.561 94.864 214.561 91.096C214.561 87.328 217.249 84.928 220.585 84.928C223.921 84.928 226.609 87.328 226.609 91.096C226.609 94.864 223.921 97.168 220.585 97.168ZM220.585 96.016C223.273 96.016 225.457 94.168 225.457 91.096C225.457 88.024 223.273 86.032 220.585 86.032C217.897 86.032 215.713 88.024 215.713 91.096C215.713 94.168 217.897 96.016 220.585 96.016ZM229.316 85.144H230.42L230.468 87.256C231.212 85.648 232.892 85.024 234.404 85.024C235.292 85 236.156 85.24 236.948 85.72L236.42 86.68C235.796 86.296 235.1 86.128 234.404 86.128C232.196 86.152 230.492 87.928 230.492 90.088V97H229.316V85.144ZM238.715 80.2H239.867V90.328L245.459 85.144H247.019V85.192L241.019 90.736L247.715 96.928V97H246.227L239.867 91.192V97H238.715V80.2ZM264.703 86.536L263.983 87.304C262.783 86.248 261.607 86.056 260.287 86.056C258.439 86.032 256.663 86.728 256.711 88.24C256.759 89.824 258.823 90.136 260.311 90.4C262.423 90.76 265.327 91.12 265.207 93.88C265.135 96.496 262.423 97.192 260.335 97.192C258.247 97.192 256.183 96.4 255.151 94.816L256.015 94.048C256.999 95.464 258.775 96.064 260.359 96.064C261.799 96.064 263.983 95.68 264.055 93.808C264.103 92.104 262.135 91.768 260.191 91.456C257.887 91.072 255.607 90.64 255.583 88.264C255.559 85.936 257.887 84.928 260.287 84.952C262.015 84.952 263.527 85.432 264.703 86.536ZM278.048 85.144H279.224C279.224 89.104 279.224 93.04 279.224 97H278.048V94.48C276.896 96.328 275.12 97.192 273.2 97.192C269.888 97.192 267.176 94.696 267.176 91.072C267.176 87.448 269.888 85 273.2 85C275.12 85 277.064 85.888 278.048 87.736V85.144ZM273.2 86.128C270.512 86.128 268.352 88.096 268.352 91.072C268.352 94.048 270.512 96.04 273.2 96.04C279.8 96.04 279.8 86.128 273.2 86.128ZM284.801 97H283.649V86.272H281.225V85.24H283.649V84.184C283.649 81.832 284.585 80.128 287.201 80.128C288.089 80.128 288.881 80.44 289.553 80.944L288.977 81.808C288.329 81.424 287.873 81.208 287.153 81.208C285.665 81.208 284.801 82.12 284.801 84.184V85.24H288.713V86.272H284.801V97ZM296.824 97.168C293.488 97.168 290.8 94.84 290.8 91.072C290.8 87.52 293.488 84.952 296.824 84.952C300.16 84.952 303.136 86.992 302.68 91.624H292C292.24 94.408 294.376 96.016 296.824 96.016C298.384 96.016 300.208 95.392 301.096 94.216L301.936 94.888C300.784 96.4 298.72 97.168 296.824 97.168ZM292 90.592H301.624C301.6 87.664 299.68 86.032 296.824 86.032C294.376 86.032 292.264 87.688 292 90.592ZM313.508 85.096V97H312.332V85.096H313.508ZM311.996 81.28C311.996 82.528 313.892 82.528 313.892 81.28C313.892 80.032 311.996 80.032 311.996 81.28ZM316.879 85.144H318.031V87.256C318.943 85.624 320.599 84.952 322.255 84.928C325.423 84.928 327.607 86.872 327.607 90.16V97H326.431V90.184C326.431 87.496 324.775 86.056 322.207 86.08C319.759 86.104 318.055 87.952 318.055 90.4V97H316.879V85.144ZM339.539 86.536L338.819 87.304C337.619 86.248 336.443 86.056 335.123 86.056C333.275 86.032 331.499 86.728 331.547 88.24C331.595 89.824 333.659 90.136 335.147 90.4C337.259 90.76 340.163 91.12 340.043 93.88C339.971 96.496 337.259 97.192 335.171 97.192C333.083 97.192 331.019 96.4 329.987 94.816L330.851 94.048C331.835 95.464 333.611 96.064 335.195 96.064C336.635 96.064 338.819 95.68 338.891 93.808C338.939 92.104 336.971 91.768 335.027 91.456C332.723 91.072 330.443 90.64 330.419 88.264C330.395 85.936 332.723 84.928 335.123 84.952C336.851 84.952 338.363 85.432 339.539 86.536ZM353.364 97H352.212V94.864C351.3 96.496 349.644 97.168 347.988 97.192C344.82 97.192 342.636 95.248 342.636 91.96V85.12H343.812V91.936C343.812 94.624 345.468 96.064 348.036 96.04C350.484 96.016 352.188 94.168 352.188 91.72V85.12H353.364V97ZM356.465 85.144H357.569L357.617 87.256C358.361 85.648 360.041 85.024 361.553 85.024C362.441 85 363.305 85.24 364.097 85.72L363.569 86.68C362.945 86.296 362.249 86.128 361.553 86.128C359.345 86.152 357.641 87.928 357.641 90.088V97H356.465V85.144ZM371.215 97.168C367.879 97.168 365.191 94.84 365.191 91.072C365.191 87.52 367.879 84.952 371.215 84.952C374.551 84.952 377.527 86.992 377.071 91.624H366.391C366.631 94.408 368.767 96.016 371.215 96.016C372.775 96.016 374.599 95.392 375.487 94.216L376.327 94.888C375.175 96.4 373.111 97.168 371.215 97.168ZM366.391 90.592H376.015C375.991 87.664 374.071 86.032 371.215 86.032C368.767 86.032 366.655 87.688 366.391 90.592ZM385.465 86.08C382.801 86.08 380.617 87.736 380.617 91.072C380.617 94.36 382.801 96.04 385.465 96.04C388.249 96.04 390.313 94 390.313 91.048C390.313 88.096 388.201 86.08 385.465 86.08ZM390.337 80.2H391.489V97H390.337V94.384C389.353 96.184 387.409 97.192 385.393 97.192C382.081 97.192 379.465 95.008 379.465 91.072C379.465 87.16 382.105 84.952 385.417 84.952C387.457 84.952 389.377 85.816 390.337 87.736V80.2ZM197.482 109.144H198.658C198.658 113.104 198.658 117.04 198.658 121H197.482V118.48C196.33 120.328 194.554 121.192 192.634 121.192C189.322 121.192 186.61 118.696 186.61 115.072C186.61 111.448 189.322 109 192.634 109C194.554 109 196.498 109.888 197.482 111.736V109.144ZM192.634 110.128C189.946 110.128 187.786 112.096 187.786 115.072C187.786 118.048 189.946 120.04 192.634 120.04C199.234 120.04 199.234 110.128 192.634 110.128ZM201.859 109.144H203.011V111.256C203.923 109.624 205.579 108.952 207.235 108.928C210.403 108.928 212.587 110.872 212.587 114.16V121H211.411V114.184C211.411 111.496 209.755 110.056 207.187 110.08C204.739 110.104 203.035 111.952 203.035 114.4V121H201.859V109.144ZM221.016 110.08C218.352 110.08 216.168 111.736 216.168 115.072C216.168 118.36 218.352 120.04 221.016 120.04C223.8 120.04 225.864 118 225.864 115.048C225.864 112.096 223.752 110.08 221.016 110.08ZM225.888 104.2H227.04V121H225.888V118.384C224.904 120.184 222.96 121.192 220.944 121.192C217.632 121.192 215.016 119.008 215.016 115.072C215.016 111.16 217.656 108.952 220.968 108.952C223.008 108.952 224.928 109.816 225.888 111.736V104.2ZM245.967 118.552L246.759 119.344C245.559 120.544 243.999 121.12 242.439 121.12C239.103 121.12 236.343 118.816 236.343 115.072C236.343 111.328 239.007 109.024 242.439 109.024C243.999 109.024 245.559 109.624 246.759 110.8L245.991 111.544C245.031 110.584 243.711 110.128 242.439 110.128C239.751 110.128 237.495 111.88 237.495 115.072C237.495 118.264 239.751 120.016 242.439 120.016C243.711 120.016 245.007 119.512 245.967 118.552ZM254.977 121.168C251.641 121.168 248.953 118.84 248.953 115.072C248.953 111.52 251.641 108.952 254.977 108.952C258.313 108.952 261.289 110.992 260.833 115.624H250.153C250.393 118.408 252.529 120.016 254.977 120.016C256.537 120.016 258.361 119.392 259.249 118.216L260.089 118.888C258.937 120.4 256.873 121.168 254.977 121.168ZM250.153 114.592H259.777C259.753 111.664 257.833 110.032 254.977 110.032C252.529 110.032 250.417 111.688 250.153 114.592ZM263.875 109.144H264.979L265.027 111.256C265.771 109.648 267.451 109.024 268.963 109.024C269.851 109 270.715 109.24 271.507 109.72L270.979 110.68C270.355 110.296 269.659 110.128 268.963 110.128C266.755 110.152 265.051 111.928 265.051 114.088V121H263.875V109.144ZM275.583 105.688L276.735 105.568V109.144H280.767V110.128H276.735V117.352C276.735 118.96 277.071 120.088 278.919 120.088C279.495 120.088 280.143 119.896 280.743 119.608L281.151 120.568C280.407 120.928 279.663 121.168 278.919 121.168C276.399 121.168 275.583 119.68 275.583 117.352V110.128H273.063V109.144H275.583V105.688ZM284.644 109.096V121H283.468V109.096H284.644ZM283.132 105.28C283.132 106.528 285.028 106.528 285.028 105.28C285.028 104.032 283.132 104.032 283.132 105.28ZM290.391 121H289.239V110.272H286.815V109.24H289.239V108.184C289.239 105.832 290.175 104.128 292.791 104.128C293.679 104.128 294.471 104.44 295.143 104.944L294.567 105.808C293.919 105.424 293.463 105.208 292.743 105.208C291.255 105.208 290.391 106.12 290.391 108.184V109.24H294.303V110.272H290.391V121ZM298.004 109.096V121H296.828V109.096H298.004ZM296.492 105.28C296.492 106.528 298.388 106.528 298.388 105.28C298.388 104.032 296.492 104.032 296.492 105.28ZM306.727 121.168C303.391 121.168 300.703 118.84 300.703 115.072C300.703 111.52 303.391 108.952 306.727 108.952C310.063 108.952 313.039 110.992 312.583 115.624H301.903C302.143 118.408 304.279 120.016 306.727 120.016C308.287 120.016 310.111 119.392 310.999 118.216L311.839 118.888C310.687 120.4 308.623 121.168 306.727 121.168ZM301.903 114.592H311.527C311.503 111.664 309.583 110.032 306.727 110.032C304.279 110.032 302.167 111.688 301.903 114.592ZM320.977 110.08C318.313 110.08 316.129 111.736 316.129 115.072C316.129 118.36 318.313 120.04 320.977 120.04C323.761 120.04 325.825 118 325.825 115.048C325.825 112.096 323.713 110.08 320.977 110.08ZM325.849 104.2H327.001V121H325.849V118.384C324.865 120.184 322.921 121.192 320.905 121.192C317.593 121.192 314.977 119.008 314.977 115.072C314.977 111.16 317.617 108.952 320.929 108.952C322.969 108.952 324.889 109.816 325.849 111.736V104.2ZM341.224 104.176H342.28L341.032 108.688H339.664L341.224 104.176ZM338.2 104.176H339.256L338.008 108.688H336.64L338.2 104.176ZM359.434 106.48L358.69 107.296C357.226 105.856 355.186 105.136 353.29 105.136C348.37 105.136 345.85 108.736 345.874 112.624C345.874 116.584 348.394 119.992 353.29 119.992C355.09 119.992 356.962 119.368 358.402 118.048V113.344H352.546V112.216H359.626V118.504C357.874 120.256 355.786 121.216 353.29 121.216C347.578 121.216 344.626 117.232 344.626 112.648C344.602 107.392 348.178 103.96 353.29 103.96C355.498 103.96 357.73 104.8 359.434 106.48ZM368.394 121.168C365.058 121.168 362.37 118.864 362.37 115.096C362.37 111.328 365.058 108.928 368.394 108.928C371.73 108.928 374.418 111.328 374.418 115.096C374.418 118.864 371.73 121.168 368.394 121.168ZM368.394 120.016C371.082 120.016 373.266 118.168 373.266 115.096C373.266 112.024 371.082 110.032 368.394 110.032C365.706 110.032 363.522 112.024 363.522 115.096C363.522 118.168 365.706 120.016 368.394 120.016ZM377.125 104.2H378.301V121H377.125V104.2ZM386.93 110.08C384.266 110.08 382.082 111.736 382.082 115.072C382.082 118.36 384.266 120.04 386.93 120.04C389.714 120.04 391.778 118 391.778 115.048C391.778 112.096 389.666 110.08 386.93 110.08ZM391.802 104.2H392.954V121H391.802V118.384C390.818 120.184 388.874 121.192 386.858 121.192C383.546 121.192 380.93 119.008 380.93 115.072C380.93 111.16 383.57 108.952 386.882 108.952C388.922 108.952 390.842 109.816 391.802 111.736V104.2ZM397.063 108.688H396.007L397.255 104.176H398.623L397.063 108.688ZM400.087 108.688H399.031L400.279 104.176H401.647L400.087 108.688Z" fill="black"/>
<path d="M830.164 352.536L829.444 353.304C828.244 352.248 827.068 352.056 825.748 352.056C823.9 352.032 822.124 352.728 822.172 354.24C822.22 355.824 824.284 356.136 825.772 356.4C827.884 356.76 830.788 357.12 830.668 359.88C830.596 362.496 827.884 363.192 825.796 363.192C823.708 363.192 821.644 362.4 820.612 360.816L821.476 360.048C822.46 361.464 824.236 362.064 825.82 362.064C827.26 362.064 829.444 361.68 829.516 359.808C829.564 358.104 827.596 357.768 825.652 357.456C823.348 357.072 821.068 356.64 821.044 354.264C821.02 351.936 823.348 350.928 825.748 350.952C827.476 350.952 828.988 351.432 830.164 352.536ZM843.989 363H842.837V360.864C841.925 362.496 840.269 363.168 838.613 363.192C835.445 363.192 833.261 361.248 833.261 357.96V351.12H834.437V357.936C834.437 360.624 836.093 362.064 838.661 362.04C841.109 362.016 842.813 360.168 842.813 357.72V351.12H843.989V363ZM853.114 362.088C855.802 362.088 857.962 360.408 857.962 357.072C857.962 353.736 855.802 352.104 853.114 352.104C850.354 352.104 848.314 354.192 848.314 357.096C848.314 360 850.402 362.088 853.114 362.088ZM848.218 367.944H847.09V351.144H848.242V353.952C849.178 352.152 851.074 350.976 853.378 350.976C856.594 351.096 859.138 353.256 859.138 357.072C859.138 361.056 856.45 363.216 853.114 363.216C851.098 363.216 849.226 362.232 848.218 360.264V367.944ZM868.043 362.088C870.731 362.088 872.891 360.408 872.891 357.072C872.891 353.736 870.731 352.104 868.043 352.104C865.283 352.104 863.243 354.192 863.243 357.096C863.243 360 865.331 362.088 868.043 362.088ZM863.147 367.944H862.019V351.144H863.171V353.952C864.107 352.152 866.003 350.976 868.307 350.976C871.523 351.096 874.067 353.256 874.067 357.072C874.067 361.056 871.379 363.216 868.043 363.216C866.027 363.216 864.155 362.232 863.147 360.264V367.944ZM876.949 346.2H878.125V363H876.949V346.2ZM890.492 351.144H891.764L884.54 367.944H883.292L885.476 362.856L880.724 351.144H881.996L884.756 358.152L886.148 361.584L887.516 358.128L890.492 351.144ZM910.868 351.144H912.044C912.044 355.104 912.044 359.04 912.044 363H910.868V360.48C909.716 362.328 907.94 363.192 906.02 363.192C902.708 363.192 899.996 360.696 899.996 357.072C899.996 353.448 902.708 351 906.02 351C907.94 351 909.884 351.888 910.868 353.736V351.144ZM906.02 352.128C903.332 352.128 901.172 354.096 901.172 357.072C901.172 360.048 903.332 362.04 906.02 362.04C912.62 362.04 912.62 352.128 906.02 352.128ZM915.246 351.144H916.398V353.256C917.31 351.624 918.966 350.952 920.622 350.928C923.79 350.928 925.974 352.872 925.974 356.16V363H924.798V356.184C924.798 353.496 923.142 352.056 920.574 352.08C918.126 352.104 916.422 353.952 916.422 356.4V363H915.246V351.144ZM934.402 352.08C931.738 352.08 929.554 353.736 929.554 357.072C929.554 360.36 931.738 362.04 934.402 362.04C937.186 362.04 939.25 360 939.25 357.048C939.25 354.096 937.138 352.08 934.402 352.08ZM939.274 346.2H940.426V363H939.274V360.384C938.29 362.184 936.346 363.192 934.33 363.192C931.018 363.192 928.402 361.008 928.402 357.072C928.402 353.16 931.042 350.952 934.354 350.952C936.394 350.952 938.314 351.816 939.274 353.736V346.2ZM951.601 351.096V363H950.425V351.096H951.601ZM950.089 347.28C950.089 348.528 951.985 348.528 951.985 347.28C951.985 346.032 950.089 346.032 950.089 347.28ZM954.972 351.144H956.124V353.256C957.036 351.624 958.692 350.952 960.348 350.928C963.516 350.928 965.7 352.872 965.7 356.16V363H964.524V356.184C964.524 353.496 962.868 352.056 960.3 352.08C957.852 352.104 956.148 353.952 956.148 356.4V363H954.972V351.144ZM977.633 352.536L976.913 353.304C975.713 352.248 974.537 352.056 973.217 352.056C971.369 352.032 969.593 352.728 969.641 354.24C969.689 355.824 971.753 356.136 973.241 356.4C975.353 356.76 978.257 357.12 978.137 359.88C978.065 362.496 975.353 363.192 973.265 363.192C971.177 363.192 969.113 362.4 968.081 360.816L968.945 360.048C969.929 361.464 971.705 362.064 973.289 362.064C974.729 362.064 976.913 361.68 976.985 359.808C977.033 358.104 975.065 357.768 973.121 357.456C970.817 357.072 968.537 356.64 968.513 354.264C968.489 351.936 970.817 350.928 973.217 350.952C974.945 350.952 976.457 351.432 977.633 352.536ZM982.314 347.688L983.466 347.568V351.144H987.498V352.128H983.466V359.352C983.466 360.96 983.802 362.088 985.65 362.088C986.226 362.088 986.874 361.896 987.474 361.608L987.882 362.568C987.138 362.928 986.394 363.168 985.65 363.168C983.13 363.168 982.314 361.68 982.314 359.352V352.128H979.794V351.144H982.314V347.688ZM1000.42 351.144H1001.6C1001.6 355.104 1001.6 359.04 1001.6 363H1000.42V360.48C999.271 362.328 997.495 363.192 995.575 363.192C992.263 363.192 989.551 360.696 989.551 357.072C989.551 353.448 992.263 351 995.575 351C997.495 351 999.439 351.888 1000.42 353.736V351.144ZM995.575 352.128C992.887 352.128 990.727 354.096 990.727 357.072C990.727 360.048 992.887 362.04 995.575 362.04C1002.17 362.04 1002.17 352.128 995.575 352.128ZM1004.8 346.2H1005.98V363H1004.8V346.2ZM1009.25 346.2H1010.43V363H1009.25V346.2ZM1031.02 363H1029.87V360.864C1028.96 362.496 1027.3 363.168 1025.64 363.192C1022.48 363.192 1020.29 361.248 1020.29 357.96V351.12H1021.47V357.936C1021.47 360.624 1023.12 362.064 1025.69 362.04C1028.14 362.016 1029.84 360.168 1029.84 357.72V351.12H1031.02V363ZM1034.12 351.144H1035.27V353.256C1036.18 351.624 1037.84 350.952 1039.5 350.928C1042.66 350.928 1044.85 352.872 1044.85 356.16V363H1043.67V356.184C1043.67 353.496 1042.02 352.056 1039.45 352.08C1037 352.104 1035.3 353.952 1035.3 356.4V363H1034.12V351.144ZM1053.28 352.08C1050.61 352.08 1048.43 353.736 1048.43 357.072C1048.43 360.36 1050.61 362.04 1053.28 362.04C1056.06 362.04 1058.13 360 1058.13 357.048C1058.13 354.096 1056.01 352.08 1053.28 352.08ZM1058.15 346.2H1059.3V363H1058.15V360.384C1057.17 362.184 1055.22 363.192 1053.21 363.192C1049.89 363.192 1047.28 361.008 1047.28 357.072C1047.28 353.16 1049.92 350.952 1053.23 350.952C1055.27 350.952 1057.19 351.816 1058.15 353.736V346.2ZM1068.3 363.168C1064.96 363.168 1062.28 360.84 1062.28 357.072C1062.28 353.52 1064.96 350.952 1068.3 350.952C1071.64 350.952 1074.61 352.992 1074.16 357.624H1063.48C1063.72 360.408 1065.85 362.016 1068.3 362.016C1069.86 362.016 1071.68 361.392 1072.57 360.216L1073.41 360.888C1072.26 362.4 1070.2 363.168 1068.3 363.168ZM1063.48 356.592H1073.1C1073.08 353.664 1071.16 352.032 1068.3 352.032C1065.85 352.032 1063.74 353.688 1063.48 356.592ZM1077.2 351.144H1078.3L1078.35 353.256C1079.09 351.648 1080.77 351.024 1082.29 351.024C1083.17 351 1084.04 351.24 1084.83 351.72L1084.3 352.68C1083.68 352.296 1082.98 352.128 1082.29 352.128C1080.08 352.152 1078.37 353.928 1078.37 356.088V363H1077.2V351.144ZM1094.77 347.688L1095.92 347.568V351.144H1099.95V352.128H1095.92V359.352C1095.92 360.96 1096.25 362.088 1098.1 362.088C1098.68 362.088 1099.33 361.896 1099.93 361.608L1100.33 362.568C1099.59 362.928 1098.85 363.168 1098.1 363.168C1095.58 363.168 1094.77 361.68 1094.77 359.352V352.128H1092.25V351.144H1094.77V347.688ZM1102.65 346.2H1103.78V353.352C1104.74 351.648 1106.4 351 1108.05 350.976C1111.36 350.976 1113.02 353.112 1113.02 356.208V363H1111.87V356.208C1111.87 353.76 1110.72 352.104 1108.05 352.104C1105.56 352.104 1103.83 354.024 1103.83 356.496V363H1102.65V346.2ZM1121.43 363.168C1118.1 363.168 1115.41 360.84 1115.41 357.072C1115.41 353.52 1118.1 350.952 1121.43 350.952C1124.77 350.952 1127.75 352.992 1127.29 357.624H1116.61C1116.85 360.408 1118.99 362.016 1121.43 362.016C1122.99 362.016 1124.82 361.392 1125.71 360.216L1126.55 360.888C1125.39 362.4 1123.33 363.168 1121.43 363.168ZM1116.61 356.592H1126.23C1126.21 353.664 1124.29 352.032 1121.43 352.032C1118.99 352.032 1116.87 353.688 1116.61 356.592ZM834.254 376.536L833.534 377.304C832.334 376.248 831.158 376.056 829.838 376.056C827.99 376.032 826.214 376.728 826.262 378.24C826.31 379.824 828.374 380.136 829.862 380.4C831.974 380.76 834.878 381.12 834.758 383.88C834.686 386.496 831.974 387.192 829.886 387.192C827.798 387.192 825.734 386.4 824.702 384.816L825.566 384.048C826.55 385.464 828.326 386.064 829.91 386.064C831.35 386.064 833.534 385.68 833.606 383.808C833.654 382.104 831.686 381.768 829.742 381.456C827.438 381.072 825.158 380.64 825.134 378.264C825.11 375.936 827.438 374.928 829.838 374.952C831.566 374.952 833.078 375.432 834.254 376.536ZM847.599 375.144H848.775C848.775 379.104 848.775 383.04 848.775 387H847.599V384.48C846.447 386.328 844.671 387.192 842.751 387.192C839.439 387.192 836.727 384.696 836.727 381.072C836.727 377.448 839.439 375 842.751 375C844.671 375 846.615 375.888 847.599 377.736V375.144ZM842.751 376.128C840.063 376.128 837.903 378.096 837.903 381.072C837.903 384.048 840.063 386.04 842.751 386.04C849.351 386.04 849.351 376.128 842.751 376.128ZM870.72 387H869.544V379.896C869.544 377.616 868.008 376.008 865.752 376.008C863.496 376.008 861.936 377.688 861.936 379.968V387H860.76V379.968C860.76 377.688 859.2 376.032 856.944 376.032C854.688 376.032 853.152 377.688 853.152 379.968V387H851.976V375.144H853.08L853.104 377.112C853.92 375.552 855.432 374.904 856.968 374.904C858.768 374.904 860.664 375.72 861.36 377.832C862.08 375.888 863.928 374.904 865.752 374.904C868.656 374.904 870.72 376.944 870.72 379.896V387ZM879.383 387.168C876.047 387.168 873.359 384.84 873.359 381.072C873.359 377.52 876.047 374.952 879.383 374.952C882.719 374.952 885.695 376.992 885.239 381.624H874.559C874.799 384.408 876.935 386.016 879.383 386.016C880.943 386.016 882.767 385.392 883.655 384.216L884.495 384.888C883.343 386.4 881.279 387.168 879.383 387.168ZM874.559 380.592H884.183C884.159 377.664 882.239 376.032 879.383 376.032C876.935 376.032 874.823 377.688 874.559 380.592ZM894.89 375.144H895.994L896.042 377.256C896.786 375.648 898.466 375.024 899.978 375.024C900.866 375 901.73 375.24 902.522 375.72L901.994 376.68C901.37 376.296 900.674 376.128 899.978 376.128C897.77 376.152 896.066 377.928 896.066 380.088V387H894.89V375.144ZM909.761 387.168C906.425 387.168 903.737 384.864 903.737 381.096C903.737 377.328 906.425 374.928 909.761 374.928C913.097 374.928 915.785 377.328 915.785 381.096C915.785 384.864 913.097 387.168 909.761 387.168ZM909.761 386.016C912.449 386.016 914.633 384.168 914.633 381.096C914.633 378.024 912.449 376.032 909.761 376.032C907.073 376.032 904.889 378.024 904.889 381.096C904.889 384.168 907.073 386.016 909.761 386.016ZM923.964 387.168C920.628 387.168 917.94 384.864 917.94 381.096C917.94 377.328 920.628 374.928 923.964 374.928C927.3 374.928 929.988 377.328 929.988 381.096C929.988 384.864 927.3 387.168 923.964 387.168ZM923.964 386.016C926.652 386.016 928.836 384.168 928.836 381.096C928.836 378.024 926.652 376.032 923.964 376.032C921.276 376.032 919.092 378.024 919.092 381.096C919.092 384.168 921.276 386.016 923.964 386.016ZM935.071 387H933.919V376.272H931.495V375.24H933.919V374.184C933.919 371.832 934.855 370.128 937.471 370.128C938.359 370.128 939.151 370.44 939.823 370.944L939.247 371.808C938.599 371.424 938.143 371.208 937.423 371.208C935.935 371.208 935.071 372.12 935.071 374.184V375.24H938.983V376.272H935.071V387ZM950.727 387H949.575V376.272H947.151V375.24H949.575V374.184C949.575 371.832 950.511 370.128 953.127 370.128C954.015 370.128 954.807 370.44 955.479 370.944L954.903 371.808C954.255 371.424 953.799 371.208 953.079 371.208C951.591 371.208 950.727 372.12 950.727 374.184V375.24H954.639V376.272H950.727V387ZM961.886 387.168C958.55 387.168 955.862 384.864 955.862 381.096C955.862 377.328 958.55 374.928 961.886 374.928C965.222 374.928 967.91 377.328 967.91 381.096C967.91 384.864 965.222 387.168 961.886 387.168ZM961.886 386.016C964.574 386.016 966.758 384.168 966.758 381.096C966.758 378.024 964.574 376.032 961.886 376.032C959.198 376.032 957.014 378.024 957.014 381.096C957.014 384.168 959.198 386.016 961.886 386.016ZM970.617 375.144H971.721L971.769 377.256C972.513 375.648 974.193 375.024 975.705 375.024C976.593 375 977.457 375.24 978.249 375.72L977.721 376.68C977.097 376.296 976.401 376.128 975.705 376.128C973.497 376.152 971.793 377.928 971.793 380.088V387H970.617V375.144ZM995.553 384.552L996.345 385.344C995.145 386.544 993.585 387.12 992.025 387.12C988.689 387.12 985.929 384.816 985.929 381.072C985.929 377.328 988.593 375.024 992.025 375.024C993.585 375.024 995.145 375.624 996.345 376.8L995.577 377.544C994.617 376.584 993.297 376.128 992.025 376.128C989.337 376.128 987.081 377.88 987.081 381.072C987.081 384.264 989.337 386.016 992.025 386.016C993.297 386.016 994.593 385.512 995.553 384.552ZM1004.45 387.168C1001.11 387.168 998.424 384.864 998.424 381.096C998.424 377.328 1001.11 374.928 1004.45 374.928C1007.78 374.928 1010.47 377.328 1010.47 381.096C1010.47 384.864 1007.78 387.168 1004.45 387.168ZM1004.45 386.016C1007.14 386.016 1009.32 384.168 1009.32 381.096C1009.32 378.024 1007.14 376.032 1004.45 376.032C1001.76 376.032 999.576 378.024 999.576 381.096C999.576 384.168 1001.76 386.016 1004.45 386.016ZM1018.65 387.168C1015.32 387.168 1012.63 384.864 1012.63 381.096C1012.63 377.328 1015.32 374.928 1018.65 374.928C1021.99 374.928 1024.68 377.328 1024.68 381.096C1024.68 384.864 1021.99 387.168 1018.65 387.168ZM1018.65 386.016C1021.34 386.016 1023.52 384.168 1023.52 381.096C1023.52 378.024 1021.34 376.032 1018.65 376.032C1015.96 376.032 1013.78 378.024 1013.78 381.096C1013.78 384.168 1015.96 386.016 1018.65 386.016ZM1027.38 375.144H1028.49L1028.53 377.256C1029.28 375.648 1030.96 375.024 1032.47 375.024C1033.36 375 1034.22 375.24 1035.01 375.72L1034.49 376.68C1033.86 376.296 1033.17 376.128 1032.47 376.128C1030.26 376.152 1028.56 377.928 1028.56 380.088V387H1027.38V375.144ZM1042.13 376.08C1039.47 376.08 1037.28 377.736 1037.28 381.072C1037.28 384.36 1039.47 386.04 1042.13 386.04C1044.92 386.04 1046.98 384 1046.98 381.048C1046.98 378.096 1044.87 376.08 1042.13 376.08ZM1047 370.2H1048.16V387H1047V384.384C1046.02 386.184 1044.08 387.192 1042.06 387.192C1038.75 387.192 1036.13 385.008 1036.13 381.072C1036.13 377.16 1038.77 374.952 1042.08 374.952C1044.12 374.952 1046.04 375.816 1047 377.736V370.2ZM1052.72 375.096V387H1051.55V375.096H1052.72ZM1051.21 371.28C1051.21 372.528 1053.11 372.528 1053.11 371.28C1053.11 370.032 1051.21 370.032 1051.21 371.28ZM1056.09 375.144H1057.25V377.256C1058.16 375.624 1059.81 374.952 1061.47 374.928C1064.64 374.928 1066.82 376.872 1066.82 380.16V387H1065.65V380.184C1065.65 377.496 1063.99 376.056 1061.42 376.08C1058.97 376.104 1057.27 377.952 1057.27 380.4V387H1056.09V375.144ZM1080.12 375.144H1081.3C1081.3 379.104 1081.3 383.04 1081.3 387H1080.12V384.48C1078.97 386.328 1077.19 387.192 1075.27 387.192C1071.96 387.192 1069.25 384.696 1069.25 381.072C1069.25 377.448 1071.96 375 1075.27 375C1077.19 375 1079.14 375.888 1080.12 377.736V375.144ZM1075.27 376.128C1072.59 376.128 1070.43 378.096 1070.43 381.072C1070.43 384.048 1072.59 386.04 1075.27 386.04C1081.87 386.04 1081.87 376.128 1075.27 376.128ZM1085.54 371.688L1086.7 371.568V375.144H1090.73V376.128H1086.7V383.352C1086.7 384.96 1087.03 386.088 1088.88 386.088C1089.46 386.088 1090.1 385.896 1090.7 385.608L1091.11 386.568C1090.37 386.928 1089.62 387.168 1088.88 387.168C1086.36 387.168 1085.54 385.68 1085.54 383.352V376.128H1083.02V375.144H1085.54V371.688ZM1094.61 375.096V387H1093.43V375.096H1094.61ZM1093.09 371.28C1093.09 372.528 1094.99 372.528 1094.99 371.28C1094.99 370.032 1093.09 370.032 1093.09 371.28ZM1103.71 387.168C1100.37 387.168 1097.68 384.864 1097.68 381.096C1097.68 377.328 1100.37 374.928 1103.71 374.928C1107.04 374.928 1109.73 377.328 1109.73 381.096C1109.73 384.864 1107.04 387.168 1103.71 387.168ZM1103.71 386.016C1106.39 386.016 1108.58 384.168 1108.58 381.096C1108.58 378.024 1106.39 376.032 1103.71 376.032C1101.02 376.032 1098.83 378.024 1098.83 381.096C1098.83 384.168 1101.02 386.016 1103.71 386.016ZM1112.44 375.144H1113.59V377.256C1114.5 375.624 1116.16 374.952 1117.81 374.928C1120.98 374.928 1123.17 376.872 1123.17 380.16V387H1121.99V380.184C1121.99 377.496 1120.33 376.056 1117.77 376.08C1115.32 376.104 1113.61 377.952 1113.61 380.4V387H1112.44V375.144ZM851.056 399.144H852.232C852.232 403.104 852.232 407.04 852.232 411H851.056V408.48C849.904 410.328 848.128 411.192 846.208 411.192C842.896 411.192 840.184 408.696 840.184 405.072C840.184 401.448 842.896 399 846.208 399C848.128 399 850.072 399.888 851.056 401.736V399.144ZM846.208 400.128C843.52 400.128 841.36 402.096 841.36 405.072C841.36 408.048 843.52 410.04 846.208 410.04C852.808 410.04 852.808 400.128 846.208 400.128ZM855.433 399.144H856.585V401.256C857.497 399.624 859.153 398.952 860.809 398.928C863.977 398.928 866.161 400.872 866.161 404.16V411H864.985V404.184C864.985 401.496 863.329 400.056 860.761 400.08C858.313 400.104 856.609 401.952 856.609 404.4V411H855.433V399.144ZM874.59 400.08C871.926 400.08 869.742 401.736 869.742 405.072C869.742 408.36 871.926 410.04 874.59 410.04C877.374 410.04 879.438 408 879.438 405.048C879.438 402.096 877.326 400.08 874.59 400.08ZM879.462 394.2H880.614V411H879.462V408.384C878.478 410.184 876.534 411.192 874.518 411.192C871.206 411.192 868.59 409.008 868.59 405.072C868.59 401.16 871.23 398.952 874.542 398.952C876.582 398.952 878.502 399.816 879.462 401.736V394.2ZM907.053 399.144L902.853 411H901.557L899.637 405.816L898.197 401.208L896.709 405.84L894.789 411H893.493L889.269 399.144H890.565L894.141 409.632L897.765 399.144H898.605L902.205 409.632L905.757 399.144H907.053ZM919.189 399.144H920.365C920.365 403.104 920.365 407.04 920.365 411H919.189V408.48C918.037 410.328 916.261 411.192 914.341 411.192C911.029 411.192 908.317 408.696 908.317 405.072C908.317 401.448 911.029 399 914.341 399C916.261 399 918.205 399.888 919.189 401.736V399.144ZM914.341 400.128C911.653 400.128 909.493 402.096 909.493 405.072C909.493 408.048 911.653 410.04 914.341 410.04C920.941 410.04 920.941 400.128 914.341 400.128ZM923.566 399.144H924.67L924.718 401.256C925.462 399.648 927.142 399.024 928.654 399.024C929.542 399 930.406 399.24 931.198 399.72L930.67 400.68C930.046 400.296 929.35 400.128 928.654 400.128C926.446 400.152 924.742 401.928 924.742 404.088V411H923.566V399.144ZM932.965 399.144H934.069L934.117 401.256C934.861 399.648 936.541 399.024 938.053 399.024C938.941 399 939.805 399.24 940.597 399.72L940.069 400.68C939.445 400.296 938.749 400.128 938.053 400.128C935.845 400.152 934.141 401.928 934.141 404.088V411H932.965V399.144ZM952.587 399.144H953.763C953.763 403.104 953.763 407.04 953.763 411H952.587V408.48C951.435 410.328 949.659 411.192 947.739 411.192C944.427 411.192 941.715 408.696 941.715 405.072C941.715 401.448 944.427 399 947.739 399C949.659 399 951.603 399.888 952.587 401.736V399.144ZM947.739 400.128C945.051 400.128 942.891 402.096 942.891 405.072C942.891 408.048 945.051 410.04 947.739 410.04C954.339 410.04 954.339 400.128 947.739 400.128ZM956.965 399.144H958.117V401.256C959.029 399.624 960.685 398.952 962.341 398.928C965.509 398.928 967.693 400.872 967.693 404.16V411H966.517V404.184C966.517 401.496 964.861 400.056 962.293 400.08C959.845 400.104 958.141 401.952 958.141 404.4V411H956.965V399.144ZM971.814 395.688L972.966 395.568V399.144H976.998V400.128H972.966V407.352C972.966 408.96 973.302 410.088 975.15 410.088C975.726 410.088 976.374 409.896 976.974 409.608L977.382 410.568C976.638 410.928 975.894 411.168 975.15 411.168C972.63 411.168 971.814 409.68 971.814 407.352V400.128H969.294V399.144H971.814V395.688ZM988.813 399.144H990.085L982.861 415.944H981.613L983.797 410.856L979.045 399.144H980.317L983.077 406.152L984.469 409.584L985.837 406.128L988.813 399.144ZM1004.99 410.088C1007.68 410.088 1009.84 408.408 1009.84 405.072C1009.84 401.736 1007.68 400.104 1004.99 400.104C1002.23 400.104 1000.19 402.192 1000.19 405.096C1000.19 408 1002.28 410.088 1004.99 410.088ZM1000.09 415.944H998.965V399.144H1000.12V401.952C1001.05 400.152 1002.95 398.976 1005.25 398.976C1008.47 399.096 1011.01 401.256 1011.01 405.072C1011.01 409.056 1008.32 411.216 1004.99 411.216C1002.97 411.216 1001.1 410.232 1000.09 408.264V415.944ZM1024.36 411H1023.21V408.864C1022.3 410.496 1020.64 411.168 1018.99 411.192C1015.82 411.192 1013.64 409.248 1013.64 405.96V399.12H1014.81V405.936C1014.81 408.624 1016.47 410.064 1019.04 410.04C1021.48 410.016 1023.19 408.168 1023.19 405.72V399.12H1024.36V411ZM1027.46 399.144H1028.57L1028.62 401.256C1029.36 399.648 1031.04 399.024 1032.55 399.024C1033.44 399 1034.3 399.24 1035.1 399.72L1034.57 400.68C1033.94 400.296 1033.25 400.128 1032.55 400.128C1030.34 400.152 1028.64 401.928 1028.64 404.088V411H1027.46V399.144ZM1042.89 410.088C1045.57 410.088 1047.73 408.408 1047.73 405.072C1047.73 401.736 1045.57 400.104 1042.89 400.104C1040.13 400.104 1038.09 402.192 1038.09 405.096C1038.09 408 1040.17 410.088 1042.89 410.088ZM1037.99 415.944H1036.86V399.144H1038.01V401.952C1038.95 400.152 1040.85 398.976 1043.15 398.976C1046.37 399.096 1048.91 401.256 1048.91 405.072C1048.91 409.056 1046.22 411.216 1042.89 411.216C1040.87 411.216 1039 410.232 1037.99 408.264V415.944ZM1057.26 411.168C1053.93 411.168 1051.24 408.864 1051.24 405.096C1051.24 401.328 1053.93 398.928 1057.26 398.928C1060.6 398.928 1063.29 401.328 1063.29 405.096C1063.29 408.864 1060.6 411.168 1057.26 411.168ZM1057.26 410.016C1059.95 410.016 1062.14 408.168 1062.14 405.096C1062.14 402.024 1059.95 400.032 1057.26 400.032C1054.58 400.032 1052.39 402.024 1052.39 405.096C1052.39 408.168 1054.58 410.016 1057.26 410.016ZM1074.85 400.536L1074.13 401.304C1072.93 400.248 1071.76 400.056 1070.44 400.056C1068.59 400.032 1066.81 400.728 1066.86 402.24C1066.91 403.824 1068.97 404.136 1070.46 404.4C1072.57 404.76 1075.48 405.12 1075.36 407.88C1075.28 410.496 1072.57 411.192 1070.48 411.192C1068.4 411.192 1066.33 410.4 1065.3 408.816L1066.16 408.048C1067.15 409.464 1068.92 410.064 1070.51 410.064C1071.95 410.064 1074.13 409.68 1074.2 407.808C1074.25 406.104 1072.28 405.768 1070.34 405.456C1068.04 405.072 1065.76 404.64 1065.73 402.264C1065.71 399.936 1068.04 398.928 1070.44 398.952C1072.16 398.952 1073.68 399.432 1074.85 400.536ZM1083.32 411.168C1079.99 411.168 1077.3 408.84 1077.3 405.072C1077.3 401.52 1079.99 398.952 1083.32 398.952C1086.66 398.952 1089.64 400.992 1089.18 405.624H1078.5C1078.74 408.408 1080.88 410.016 1083.32 410.016C1084.88 410.016 1086.71 409.392 1087.6 408.216L1088.44 408.888C1087.28 410.4 1085.22 411.168 1083.32 411.168ZM1078.5 404.592H1088.12C1088.1 401.664 1086.18 400.032 1083.32 400.032C1080.88 400.032 1078.76 401.688 1078.5 404.592ZM1101.08 400.536L1100.36 401.304C1099.16 400.248 1097.98 400.056 1096.66 400.056C1094.81 400.032 1093.04 400.728 1093.09 402.24C1093.13 403.824 1095.2 404.136 1096.69 404.4C1098.8 404.76 1101.7 405.12 1101.58 407.88C1101.51 410.496 1098.8 411.192 1096.71 411.192C1094.62 411.192 1092.56 410.4 1091.53 408.816L1092.39 408.048C1093.37 409.464 1095.15 410.064 1096.73 410.064C1098.17 410.064 1100.36 409.68 1100.43 407.808C1100.48 406.104 1098.51 405.768 1096.57 405.456C1094.26 405.072 1091.98 404.64 1091.96 402.264C1091.93 399.936 1094.26 398.928 1096.66 398.952C1098.39 398.952 1099.9 399.432 1101.08 400.536Z" fill="black"/>
<path d="M521.611 548.552L522.403 549.344C521.203 550.544 519.643 551.12 518.083 551.12C514.747 551.12 511.987 548.816 511.987 545.072C511.987 541.328 514.651 539.024 518.083 539.024C519.643 539.024 521.203 539.624 522.403 540.8L521.635 541.544C520.675 540.584 519.355 540.128 518.083 540.128C515.395 540.128 513.139 541.88 513.139 545.072C513.139 548.264 515.395 550.016 518.083 550.016C519.355 550.016 520.651 549.512 521.611 548.552ZM530.507 551.168C527.171 551.168 524.483 548.864 524.483 545.096C524.483 541.328 527.171 538.928 530.507 538.928C533.843 538.928 536.531 541.328 536.531 545.096C536.531 548.864 533.843 551.168 530.507 551.168ZM530.507 550.016C533.195 550.016 535.379 548.168 535.379 545.096C535.379 542.024 533.195 540.032 530.507 540.032C527.819 540.032 525.635 542.024 525.635 545.096C525.635 548.168 527.819 550.016 530.507 550.016ZM539.238 539.144H540.342L540.39 541.256C541.134 539.648 542.814 539.024 544.326 539.024C545.214 539 546.078 539.24 546.87 539.72L546.342 540.68C545.718 540.296 545.022 540.128 544.326 540.128C542.118 540.152 540.414 541.928 540.414 544.088V551H539.238V539.144ZM553.988 551.168C550.652 551.168 547.964 548.84 547.964 545.072C547.964 541.52 550.652 538.952 553.988 538.952C557.324 538.952 560.3 540.992 559.844 545.624H549.164C549.404 548.408 551.54 550.016 553.988 550.016C555.548 550.016 557.372 549.392 558.26 548.216L559.1 548.888C557.948 550.4 555.884 551.168 553.988 551.168ZM549.164 544.592H558.788C558.764 541.664 556.844 540.032 553.988 540.032C551.54 540.032 549.428 541.688 549.164 544.592ZM578.352 540.536L577.632 541.304C576.432 540.248 575.256 540.056 573.936 540.056C572.088 540.032 570.312 540.728 570.36 542.24C570.408 543.824 572.472 544.136 573.96 544.4C576.072 544.76 578.976 545.12 578.856 547.88C578.784 550.496 576.072 551.192 573.984 551.192C571.896 551.192 569.832 550.4 568.8 548.816L569.664 548.048C570.648 549.464 572.424 550.064 574.008 550.064C575.448 550.064 577.632 549.68 577.704 547.808C577.752 546.104 575.784 545.768 573.84 545.456C571.536 545.072 569.256 544.64 569.232 542.264C569.208 539.936 571.536 538.928 573.936 538.952C575.664 538.952 577.176 539.432 578.352 540.536ZM591.696 539.144H592.872C592.872 543.104 592.872 547.04 592.872 551H591.696V548.48C590.544 550.328 588.768 551.192 586.848 551.192C583.536 551.192 580.824 548.696 580.824 545.072C580.824 541.448 583.536 539 586.848 539C588.768 539 590.712 539.888 591.696 541.736V539.144ZM586.848 540.128C584.16 540.128 582 542.096 582 545.072C582 548.048 584.16 550.04 586.848 550.04C593.448 550.04 593.448 540.128 586.848 540.128ZM598.45 551H597.298V540.272H594.874V539.24H597.298V538.184C597.298 535.832 598.234 534.128 600.85 534.128C601.738 534.128 602.53 534.44 603.202 534.944L602.626 535.808C601.978 535.424 601.522 535.208 600.802 535.208C599.314 535.208 598.45 536.12 598.45 538.184V539.24H602.362V540.272H598.45V551ZM610.473 551.168C607.137 551.168 604.449 548.84 604.449 545.072C604.449 541.52 607.137 538.952 610.473 538.952C613.809 538.952 616.785 540.992 616.329 545.624H605.649C605.889 548.408 608.025 550.016 610.473 550.016C612.033 550.016 613.857 549.392 614.745 548.216L615.585 548.888C614.433 550.4 612.369 551.168 610.473 551.168ZM605.649 544.592H615.273C615.249 541.664 613.329 540.032 610.473 540.032C608.025 540.032 605.913 541.688 605.649 544.592ZM620.415 535.688L621.567 535.568V539.144H625.599V540.128H621.567V547.352C621.567 548.96 621.903 550.088 623.751 550.088C624.327 550.088 624.975 549.896 625.575 549.608L625.983 550.568C625.239 550.928 624.495 551.168 623.751 551.168C621.231 551.168 620.415 549.68 620.415 547.352V540.128H617.895V539.144H620.415V535.688ZM637.414 539.144H638.686L631.462 555.944H630.214L632.398 550.856L627.646 539.144H628.918L631.678 546.152L633.07 549.584L634.438 546.128L637.414 539.144ZM512.36 563.144H513.536C513.536 567.104 513.536 571.04 513.536 575H512.36V572.48C511.208 574.328 509.432 575.192 507.512 575.192C504.2 575.192 501.488 572.696 501.488 569.072C501.488 565.448 504.2 563 507.512 563C509.432 563 511.376 563.888 512.36 565.736V563.144ZM507.512 564.128C504.824 564.128 502.664 566.096 502.664 569.072C502.664 572.048 504.824 574.04 507.512 574.04C514.112 574.04 514.112 564.128 507.512 564.128ZM516.738 563.144H517.89V565.256C518.802 563.624 520.458 562.952 522.114 562.928C525.282 562.928 527.466 564.872 527.466 568.16V575H526.29V568.184C526.29 565.496 524.634 564.056 522.066 564.08C519.618 564.104 517.914 565.952 517.914 568.4V575H516.738V563.144ZM535.895 564.08C533.231 564.08 531.047 565.736 531.047 569.072C531.047 572.36 533.231 574.04 535.895 574.04C538.679 574.04 540.743 572 540.743 569.048C540.743 566.096 538.631 564.08 535.895 564.08ZM540.767 558.2H541.919V575H540.767V572.384C539.783 574.184 537.839 575.192 535.823 575.192C532.511 575.192 529.895 573.008 529.895 569.072C529.895 565.16 532.535 562.952 535.847 562.952C537.887 562.952 539.807 563.816 540.767 565.736V558.2ZM557.942 574.088C560.63 574.088 562.79 572.408 562.79 569.072C562.79 565.736 560.63 564.104 557.942 564.104C555.182 564.104 553.142 566.192 553.142 569.096C553.142 572 555.23 574.088 557.942 574.088ZM553.046 579.944H551.918V563.144H553.07V565.952C554.006 564.152 555.902 562.976 558.206 562.976C561.422 563.096 563.966 565.256 563.966 569.072C563.966 573.056 561.278 575.216 557.942 575.216C555.926 575.216 554.054 574.232 553.046 572.264V579.944ZM566.847 558.2H568.023V575H566.847V558.2ZM581.524 563.144H582.7C582.7 567.104 582.7 571.04 582.7 575H581.524V572.48C580.372 574.328 578.596 575.192 576.676 575.192C573.364 575.192 570.652 572.696 570.652 569.072C570.652 565.448 573.364 563 576.676 563C578.596 563 580.54 563.888 581.524 565.736V563.144ZM576.676 564.128C573.988 564.128 571.828 566.096 571.828 569.072C571.828 572.048 573.988 574.04 576.676 574.04C583.276 574.04 583.276 564.128 576.676 564.128ZM585.902 563.144H587.054V565.256C587.966 563.624 589.622 562.952 591.278 562.928C594.446 562.928 596.63 564.872 596.63 568.16V575H595.454V568.184C595.454 565.496 593.798 564.056 591.23 564.08C588.782 564.104 587.078 565.952 587.078 568.4V575H585.902V563.144ZM599.707 563.144H600.859V565.256C601.771 563.624 603.427 562.952 605.083 562.928C608.251 562.928 610.435 564.872 610.435 568.16V575H609.259V568.184C609.259 565.496 607.603 564.056 605.035 564.08C602.587 564.104 600.883 565.952 600.883 568.4V575H599.707V563.144ZM614.687 563.096V575H613.511V563.096H614.687ZM613.175 559.28C613.175 560.528 615.071 560.528 615.071 559.28C615.071 558.032 613.175 558.032 613.175 559.28ZM618.058 563.144H619.21V565.256C620.122 563.624 621.778 562.952 623.434 562.928C626.602 562.928 628.786 564.872 628.786 568.16V575H627.61V568.184C627.61 565.496 625.954 564.056 623.386 564.08C620.938 564.104 619.234 565.952 619.234 568.4V575H618.058V563.144ZM640.239 564.008L641.391 562.664L642.159 563.336L641.007 564.68C641.847 565.592 642.471 566.792 642.471 568.712C642.471 570.776 641.247 572.864 639.279 573.752C641.367 574.496 642.519 575.96 642.519 578C642.519 581.192 640.023 582.728 636.879 582.728C633.735 582.728 631.263 581 631.263 578H632.439C632.439 580.424 634.503 581.576 636.879 581.576C639.255 581.576 641.367 580.52 641.367 578C641.367 575.456 639.087 574.448 636.879 574.448C633.447 574.448 631.311 571.88 631.311 568.712C631.311 565.016 633.807 562.928 636.879 562.928C638.079 562.928 639.327 563.36 640.239 564.008ZM636.879 564.104C634.455 564.104 632.487 565.616 632.487 568.712C632.487 571.16 634.167 573.272 636.879 573.272C639.327 573.272 641.319 571.16 641.319 568.712C641.319 565.712 639.327 564.104 636.879 564.104Z" fill="black"/>
<path d="M744.748 88.552L745.54 89.344C744.34 90.544 742.78 91.12 741.22 91.12C737.884 91.12 735.124 88.816 735.124 85.072C735.124 81.328 737.788 79.024 741.22 79.024C742.78 79.024 744.34 79.624 745.54 80.8L744.772 81.544C743.812 80.584 742.492 80.128 741.22 80.128C738.532 80.128 736.276 81.88 736.276 85.072C736.276 88.264 738.532 90.016 741.22 90.016C742.492 90.016 743.788 89.512 744.748 88.552ZM758.161 79.144H759.337C759.337 83.104 759.337 87.04 759.337 91H758.161V88.48C757.009 90.328 755.233 91.192 753.313 91.192C750.001 91.192 747.289 88.696 747.289 85.072C747.289 81.448 750.001 79 753.313 79C755.233 79 757.177 79.888 758.161 81.736V79.144ZM753.313 80.128C750.625 80.128 748.465 82.096 748.465 85.072C748.465 88.048 750.625 90.04 753.313 90.04C759.913 90.04 759.913 80.128 753.313 80.128ZM768.563 90.088C771.251 90.088 773.411 88.408 773.411 85.072C773.411 81.736 771.251 80.104 768.563 80.104C765.803 80.104 763.763 82.192 763.763 85.096C763.763 88 765.851 90.088 768.563 90.088ZM763.667 95.944H762.539V79.144H763.691V81.952C764.627 80.152 766.523 78.976 768.827 78.976C772.043 79.096 774.587 81.256 774.587 85.072C774.587 89.056 771.899 91.216 768.563 91.216C766.547 91.216 764.675 90.232 763.667 88.264V95.944ZM787.692 79.144H788.868C788.868 83.104 788.868 87.04 788.868 91H787.692V88.48C786.54 90.328 784.764 91.192 782.844 91.192C779.532 91.192 776.82 88.696 776.82 85.072C776.82 81.448 779.532 79 782.844 79C784.764 79 786.708 79.888 787.692 81.736V79.144ZM782.844 80.128C780.156 80.128 777.996 82.096 777.996 85.072C777.996 88.048 780.156 90.04 782.844 90.04C789.444 90.04 789.444 80.128 782.844 80.128ZM797.86 80.08C795.124 80.08 793.012 82.096 793.012 85.048C793.012 88 795.076 90.04 797.86 90.04C800.524 90.04 802.708 88.36 802.708 85.072C802.708 81.736 800.524 80.08 797.86 80.08ZM791.836 74.2H792.988V81.736C793.948 79.816 795.868 78.952 797.908 78.952C801.22 78.952 803.86 81.16 803.86 85.072C803.86 89.008 801.244 91.192 797.932 91.192C795.916 91.192 793.972 90.184 792.988 88.384V91H791.836V74.2ZM806.742 74.2H807.918V91H806.742V74.2ZM816.547 91.168C813.211 91.168 810.523 88.84 810.523 85.072C810.523 81.52 813.211 78.952 816.547 78.952C819.883 78.952 822.859 80.992 822.403 85.624H811.723C811.963 88.408 814.099 90.016 816.547 90.016C818.107 90.016 819.931 89.392 820.819 88.216L821.659 88.888C820.507 90.4 818.443 91.168 816.547 91.168ZM811.723 84.592H821.347C821.323 81.664 819.403 80.032 816.547 80.032C814.099 80.032 811.987 81.688 811.723 84.592ZM825.205 90.28C825.205 89.032 827.101 89.032 827.101 90.28C827.101 90.424 827.077 90.544 827.029 90.688L826.069 93.136H825.037L825.781 91.144C825.469 91.024 825.205 90.736 825.205 90.28ZM844.396 75.4H838.324V84.016H844.396C849.988 84.016 849.988 75.4 844.396 75.4ZM844.396 85.192H838.324V91H837.028V74.2C839.476 74.2 841.948 74.2 844.396 74.2C851.692 74.2 851.692 85.192 844.396 85.192ZM867.395 91V76.072L860.963 85.912H860.531L854.051 76.072V91H852.755V74.2C853.379 74.2 853.667 74.2 854.291 74.2L860.723 83.992L867.083 74.2H868.667V91H867.395ZM879.74 75.4H873.668V84.016H879.74C885.332 84.016 885.332 75.4 879.74 75.4ZM879.74 85.192H873.668V91H872.372V74.2C874.82 74.2 877.292 74.2 879.74 74.2C887.036 74.2 887.036 85.192 879.74 85.192ZM903.396 88.552L904.188 89.344C902.988 90.544 901.428 91.12 899.868 91.12C896.532 91.12 893.772 88.816 893.772 85.072C893.772 81.328 896.436 79.024 899.868 79.024C901.428 79.024 902.988 79.624 904.188 80.8L903.42 81.544C902.46 80.584 901.14 80.128 899.868 80.128C897.18 80.128 894.924 81.88 894.924 85.072C894.924 88.264 897.18 90.016 899.868 90.016C901.14 90.016 902.436 89.512 903.396 88.552ZM912.406 91.168C909.07 91.168 906.382 88.84 906.382 85.072C906.382 81.52 909.07 78.952 912.406 78.952C915.742 78.952 918.718 80.992 918.262 85.624H907.582C907.822 88.408 909.958 90.016 912.406 90.016C913.966 90.016 915.79 89.392 916.678 88.216L917.518 88.888C916.366 90.4 914.302 91.168 912.406 91.168ZM907.582 84.592H917.206C917.182 81.664 915.262 80.032 912.406 80.032C909.958 80.032 907.846 81.688 907.582 84.592ZM921.304 79.144H922.408L922.456 81.256C923.2 79.648 924.88 79.024 926.392 79.024C927.28 79 928.144 79.24 928.936 79.72L928.408 80.68C927.784 80.296 927.088 80.128 926.392 80.128C924.184 80.152 922.48 81.928 922.48 84.088V91H921.304V79.144ZM933.013 75.688L934.165 75.568V79.144H938.197V80.128H934.165V87.352C934.165 88.96 934.501 90.088 936.349 90.088C936.925 90.088 937.573 89.896 938.173 89.608L938.581 90.568C937.837 90.928 937.093 91.168 936.349 91.168C933.829 91.168 933.013 89.68 933.013 87.352V80.128H930.493V79.144H933.013V75.688ZM942.074 79.096V91H940.898V79.096H942.074ZM940.562 75.28C940.562 76.528 942.458 76.528 942.458 75.28C942.458 74.032 940.562 74.032 940.562 75.28ZM947.821 91H946.669V80.272H944.245V79.24H946.669V78.184C946.669 75.832 947.605 74.128 950.221 74.128C951.109 74.128 951.901 74.44 952.573 74.944L951.997 75.808C951.349 75.424 950.893 75.208 950.173 75.208C948.685 75.208 947.821 76.12 947.821 78.184V79.24H951.733V80.272H947.821V91ZM955.434 79.096V91H954.258V79.096H955.434ZM953.922 75.28C953.922 76.528 955.818 76.528 955.818 75.28C955.818 74.032 953.922 74.032 953.922 75.28ZM964.156 91.168C960.82 91.168 958.132 88.84 958.132 85.072C958.132 81.52 960.82 78.952 964.156 78.952C967.492 78.952 970.468 80.992 970.012 85.624H959.332C959.572 88.408 961.708 90.016 964.156 90.016C965.716 90.016 967.54 89.392 968.428 88.216L969.268 88.888C968.116 90.4 966.052 91.168 964.156 91.168ZM959.332 84.592H968.956C968.932 81.664 967.012 80.032 964.156 80.032C961.708 80.032 959.596 81.688 959.332 84.592ZM978.406 80.08C975.742 80.08 973.558 81.736 973.558 85.072C973.558 88.36 975.742 90.04 978.406 90.04C981.19 90.04 983.254 88 983.254 85.048C983.254 82.096 981.142 80.08 978.406 80.08ZM983.278 74.2H984.43V91H983.278V88.384C982.294 90.184 980.35 91.192 978.334 91.192C975.022 91.192 972.406 89.008 972.406 85.072C972.406 81.16 975.046 78.952 978.358 78.952C980.398 78.952 982.318 79.816 983.278 81.736V74.2ZM764.9 115H763.724V107.896C763.724 105.616 762.188 104.008 759.932 104.008C757.676 104.008 756.116 105.688 756.116 107.968V115H754.94V107.968C754.94 105.688 753.38 104.032 751.124 104.032C748.868 104.032 747.332 105.688 747.332 107.968V115H746.156V103.144H747.26L747.284 105.112C748.1 103.552 749.612 102.904 751.148 102.904C752.948 102.904 754.844 103.72 755.54 105.832C756.26 103.888 758.108 102.904 759.932 102.904C762.836 102.904 764.9 104.944 764.9 107.896V115ZM778.435 103.144H779.611C779.611 107.104 779.611 111.04 779.611 115H778.435V112.48C777.283 114.328 775.507 115.192 773.587 115.192C770.275 115.192 767.563 112.696 767.563 109.072C767.563 105.448 770.275 103 773.587 103C775.507 103 777.451 103.888 778.435 105.736V103.144ZM773.587 104.128C770.899 104.128 768.739 106.096 768.739 109.072C768.739 112.048 770.899 114.04 773.587 114.04C780.187 114.04 780.187 104.128 773.587 104.128ZM782.812 103.144H783.964V105.256C784.876 103.624 786.532 102.952 788.188 102.928C791.356 102.928 793.54 104.872 793.54 108.16V115H792.364V108.184C792.364 105.496 790.708 104.056 788.14 104.08C785.692 104.104 783.988 105.952 783.988 108.4V115H782.812V103.144ZM806.841 103.144H808.017C808.017 107.104 808.017 111.04 808.017 115H806.841V112.48C805.689 114.328 803.913 115.192 801.993 115.192C798.681 115.192 795.969 112.696 795.969 109.072C795.969 105.448 798.681 103 801.993 103C803.913 103 805.857 103.888 806.841 105.736V103.144ZM801.993 104.128C799.305 104.128 797.145 106.096 797.145 109.072C797.145 112.048 799.305 114.04 801.993 114.04C808.593 114.04 808.593 104.128 801.993 104.128ZM819.594 104.008L820.746 102.664L821.514 103.336L820.362 104.68C821.202 105.592 821.826 106.792 821.826 108.712C821.826 110.776 820.602 112.864 818.634 113.752C820.722 114.496 821.874 115.96 821.874 118C821.874 121.192 819.378 122.728 816.234 122.728C813.09 122.728 810.618 121 810.618 118H811.794C811.794 120.424 813.858 121.576 816.234 121.576C818.61 121.576 820.722 120.52 820.722 118C820.722 115.456 818.442 114.448 816.234 114.448C812.802 114.448 810.666 111.88 810.666 108.712C810.666 105.016 813.162 102.928 816.234 102.928C817.434 102.928 818.682 103.36 819.594 104.008ZM816.234 104.104C813.81 104.104 811.842 105.616 811.842 108.712C811.842 111.16 813.522 113.272 816.234 113.272C818.682 113.272 820.674 111.16 820.674 108.712C820.674 105.712 818.682 104.104 816.234 104.104ZM829.602 115.168C826.266 115.168 823.578 112.84 823.578 109.072C823.578 105.52 826.266 102.952 829.602 102.952C832.938 102.952 835.914 104.992 835.458 109.624H824.778C825.018 112.408 827.154 114.016 829.602 114.016C831.162 114.016 832.986 113.392 833.874 112.216L834.714 112.888C833.562 114.4 831.498 115.168 829.602 115.168ZM824.778 108.592H834.402C834.378 105.664 832.458 104.032 829.602 104.032C827.154 104.032 825.042 105.688 824.778 108.592ZM857.009 115H855.833V107.896C855.833 105.616 854.297 104.008 852.041 104.008C849.785 104.008 848.225 105.688 848.225 107.968V115H847.049V107.968C847.049 105.688 845.489 104.032 843.233 104.032C840.977 104.032 839.441 105.688 839.441 107.968V115H838.265V103.144H839.369L839.393 105.112C840.209 103.552 841.721 102.904 843.257 102.904C845.057 102.904 846.953 103.72 847.649 105.832C848.369 103.888 850.217 102.904 852.041 102.904C854.945 102.904 857.009 104.944 857.009 107.896V115ZM865.672 115.168C862.336 115.168 859.648 112.84 859.648 109.072C859.648 105.52 862.336 102.952 865.672 102.952C869.008 102.952 871.984 104.992 871.528 109.624H860.848C861.088 112.408 863.224 114.016 865.672 114.016C867.232 114.016 869.056 113.392 869.944 112.216L870.784 112.888C869.632 114.4 867.568 115.168 865.672 115.168ZM860.848 108.592H870.472C870.448 105.664 868.528 104.032 865.672 104.032C863.224 104.032 861.112 105.688 860.848 108.592ZM874.57 103.144H875.722V105.256C876.634 103.624 878.29 102.952 879.946 102.928C883.114 102.928 885.298 104.872 885.298 108.16V115H884.122V108.184C884.122 105.496 882.466 104.056 879.898 104.08C877.45 104.104 875.746 105.952 875.746 108.4V115H874.57V103.144ZM889.419 99.688L890.571 99.568V103.144H894.603V104.128H890.571V111.352C890.571 112.96 890.907 114.088 892.755 114.088C893.331 114.088 893.979 113.896 894.579 113.608L894.987 114.568C894.243 114.928 893.499 115.168 892.755 115.168C890.235 115.168 889.419 113.68 889.419 111.352V104.128H886.899V103.144H889.419V99.688ZM905.474 99.688L906.626 99.568V103.144H910.658V104.128H906.626V111.352C906.626 112.96 906.962 114.088 908.81 114.088C909.386 114.088 910.034 113.896 910.634 113.608L911.042 114.568C910.298 114.928 909.554 115.168 908.81 115.168C906.29 115.168 905.474 113.68 905.474 111.352V104.128H902.954V103.144H905.474V99.688ZM918.711 115.168C915.375 115.168 912.687 112.84 912.687 109.072C912.687 105.52 915.375 102.952 918.711 102.952C922.047 102.952 925.023 104.992 924.567 109.624H913.887C914.127 112.408 916.263 114.016 918.711 114.016C920.271 114.016 922.095 113.392 922.983 112.216L923.823 112.888C922.671 114.4 920.607 115.168 918.711 115.168ZM913.887 108.592H923.511C923.487 105.664 921.567 104.032 918.711 104.032C916.263 104.032 914.151 105.688 913.887 108.592ZM937.833 103.144H939.009C939.009 107.104 939.009 111.04 939.009 115H937.833V112.48C936.681 114.328 934.905 115.192 932.985 115.192C929.673 115.192 926.961 112.696 926.961 109.072C926.961 105.448 929.673 103 932.985 103C934.905 103 936.849 103.888 937.833 105.736V103.144ZM932.985 104.128C930.297 104.128 928.137 106.096 928.137 109.072C928.137 112.048 930.297 114.04 932.985 114.04C939.585 114.04 939.585 104.128 932.985 104.128ZM960.955 115H959.779V107.896C959.779 105.616 958.243 104.008 955.987 104.008C953.731 104.008 952.171 105.688 952.171 107.968V115H950.995V107.968C950.995 105.688 949.435 104.032 947.179 104.032C944.923 104.032 943.387 105.688 943.387 107.968V115H942.211V103.144H943.315L943.339 105.112C944.155 103.552 945.667 102.904 947.203 102.904C949.003 102.904 950.899 103.72 951.595 105.832C952.315 103.888 954.163 102.904 955.987 102.904C958.891 102.904 960.955 104.944 960.955 107.896V115Z" fill="black"/>
<path d="M433.666 273.875C434.747 248.084 443.21 222.321 459.569 199.905C472.024 182.837 487.718 169.543 505.194 160.235L503.888 157.698L489.68 132.214C539.78 105.342 614.552 109.398 668.06 140.065L706.032 88.1498" stroke="black" stroke-width="3" stroke-miterlimit="10" stroke-linecap="round" stroke-linejoin="round"/>
<path d="M678.249 359.476C677.264 360.825 676.262 362.149 675.24 363.446C643.618 403.641 593.358 421.298 545.769 413.074L542.005 444.916C516.849 440.845 492.242 430.934 470.246 414.882C439.284 392.287 418.351 361.054 408.33 326.915C408.257 326.676 408.191 326.442 408.118 326.203L344.111 345.464" stroke="black" stroke-width="3" stroke-miterlimit="10" stroke-linecap="round" stroke-linejoin="round"/>
<path d="M680.048 202.367C708.205 242.835 712.466 296.489 689.407 341.387L717.52 356.74C713.663 364.164 709.195 371.389 704.114 378.352C671.026 423.692 619.428 447.527 567.275 447.066L566.409 512.937" stroke="black" stroke-width="3" stroke-miterlimit="10" stroke-linecap="round" stroke-linejoin="round"/>
<path d="M517.704 154.373C559.71 137.254 609.355 141.643 648.694 170.351C653.783 174.065 658.538 178.067 662.944 182.31L684.001 158.136C732.537 203.979 748.496 273.97 726.77 335.414L790.669 357.422" stroke="black" stroke-width="3" stroke-miterlimit="10" stroke-linecap="round" stroke-linejoin="round"/>
<path d="M430.469 90.3289L466.02 144.498L467.485 146.495C454.911 156.075 443.501 167.605 433.709 181.022C407.831 216.484 397.933 258.717 402.672 299.128L433.994 290.542C437.06 328.445 455.994 364.842 489.121 389.017C502.764 398.974 517.648 406.009 533.036 410.232" stroke="black" stroke-width="3" stroke-miterlimit="10" stroke-linecap="round" stroke-linejoin="round"/>
<path d="M698.134 98.43C703.978 102.695 712.173 101.415 716.438 95.5703C720.703 89.7261 719.422 81.5311 713.578 77.2662C707.734 73.0013 699.539 74.2816 695.274 80.1259C691.009 85.9701 692.289 94.1652 698.134 98.43Z" fill="black"/>
<path d="M782.442 367.932C788.287 372.197 796.482 370.917 800.746 365.073C805.011 359.228 803.731 351.033 797.887 346.768C792.043 342.504 783.847 343.784 779.583 349.628C775.318 355.472 776.598 363.667 782.442 367.932Z" fill="black"/>
<path d="M558.033 522.225C563.878 526.49 572.073 525.21 576.338 519.365C580.602 513.521 579.322 505.326 573.478 501.061C567.634 496.796 559.439 498.077 555.174 503.921C550.909 509.765 552.189 517.96 558.033 522.225Z" fill="black"/>
<path d="M337.764 355.688C343.608 359.953 351.803 358.673 356.068 352.829C360.333 346.984 359.053 338.789 353.209 334.524C347.364 330.26 339.169 331.54 334.904 337.384C330.639 343.228 331.92 351.423 337.764 355.688Z" fill="black"/>
<path d="M422.985 101.568C428.829 105.833 437.024 104.552 441.289 98.708C445.554 92.8638 444.274 84.6687 438.43 80.4039C432.585 76.139 424.39 77.4193 420.125 83.2636C415.86 89.1078 417.141 97.3029 422.985 101.568Z" fill="black"/>
<path d="M43.2184 343.144H44.3224L44.3704 345.256C45.1144 343.648 46.7944 343.024 48.3064 343.024C49.1944 343 50.0584 343.24 50.8504 343.72L50.3224 344.68C49.6984 344.296 49.0024 344.128 48.3064 344.128C46.0984 344.152 44.3944 345.928 44.3944 348.088V355H43.2184V343.144ZM57.9689 355.168C54.6329 355.168 51.9449 352.84 51.9449 349.072C51.9449 345.52 54.6329 342.952 57.9689 342.952C61.3049 342.952 64.2809 344.992 63.8249 349.624H53.1449C53.3849 352.408 55.5209 354.016 57.9689 354.016C59.5289 354.016 61.3529 353.392 62.2409 352.216L63.0809 352.888C61.9289 354.4 59.8649 355.168 57.9689 355.168ZM53.1449 348.592H62.7689C62.7449 345.664 60.8249 344.032 57.9689 344.032C55.5209 344.032 53.4089 345.688 53.1449 348.592ZM72.2189 344.08C69.5549 344.08 67.3709 345.736 67.3709 349.072C67.3709 352.36 69.5549 354.04 72.2189 354.04C75.0029 354.04 77.0669 352 77.0669 349.048C77.0669 346.096 74.9549 344.08 72.2189 344.08ZM77.0909 338.2H78.2429V355H77.0909V352.384C76.1069 354.184 74.1629 355.192 72.1469 355.192C68.8349 355.192 66.2189 353.008 66.2189 349.072C66.2189 345.16 68.8589 342.952 72.1709 342.952C74.2109 342.952 76.1309 343.816 77.0909 345.736V338.2ZM97.0979 344.536L96.3779 345.304C95.1779 344.248 94.0019 344.056 92.6819 344.056C90.8339 344.032 89.0579 344.728 89.1059 346.24C89.1539 347.824 91.2179 348.136 92.7059 348.4C94.8179 348.76 97.7219 349.12 97.6019 351.88C97.5299 354.496 94.8179 355.192 92.7299 355.192C90.6419 355.192 88.5779 354.4 87.5459 352.816L88.4099 352.048C89.3939 353.464 91.1699 354.064 92.7539 354.064C94.1939 354.064 96.3779 353.68 96.4499 351.808C96.4979 350.104 94.5299 349.768 92.5859 349.456C90.2819 349.072 88.0019 348.64 87.9779 346.264C87.9539 343.936 90.2819 342.928 92.6819 342.952C94.4099 342.952 95.9219 343.432 97.0979 344.536ZM105.57 355.168C102.234 355.168 99.5464 352.84 99.5464 349.072C99.5464 345.52 102.234 342.952 105.57 342.952C108.906 342.952 111.882 344.992 111.426 349.624H100.746C100.986 352.408 103.122 354.016 105.57 354.016C107.13 354.016 108.954 353.392 109.842 352.216L110.682 352.888C109.53 354.4 107.466 355.168 105.57 355.168ZM100.746 348.592H110.37C110.346 345.664 108.426 344.032 105.57 344.032C103.122 344.032 101.01 345.688 100.746 348.592ZM124.692 343.144H125.868C125.868 347.104 125.868 351.04 125.868 355H124.692V352.48C123.54 354.328 121.764 355.192 119.844 355.192C116.532 355.192 113.82 352.696 113.82 349.072C113.82 345.448 116.532 343 119.844 343C121.764 343 123.708 343.888 124.692 345.736V343.144ZM119.844 344.128C117.156 344.128 114.996 346.096 114.996 349.072C114.996 352.048 117.156 354.04 119.844 354.04C126.444 354.04 126.444 344.128 119.844 344.128ZM129.07 338.2H130.246V355H129.07V338.2ZM145.485 355.168C142.149 355.168 139.461 352.84 139.461 349.072C139.461 345.52 142.149 342.952 145.485 342.952C148.821 342.952 151.797 344.992 151.341 349.624H140.661C140.901 352.408 143.037 354.016 145.485 354.016C147.045 354.016 148.869 353.392 149.757 352.216L150.597 352.888C149.445 354.4 147.381 355.168 145.485 355.168ZM140.661 348.592H150.285C150.261 345.664 148.341 344.032 145.485 344.032C143.037 344.032 140.925 345.688 140.661 348.592ZM154.383 338.2H155.559V355H154.383V338.2ZM164.188 355.168C160.852 355.168 158.164 352.84 158.164 349.072C158.164 345.52 160.852 342.952 164.188 342.952C167.524 342.952 170.5 344.992 170.044 349.624H159.364C159.604 352.408 161.74 354.016 164.188 354.016C165.748 354.016 167.572 353.392 168.46 352.216L169.3 352.888C168.148 354.4 166.084 355.168 164.188 355.168ZM159.364 348.592H168.988C168.964 345.664 167.044 344.032 164.188 344.032C161.74 344.032 159.628 345.688 159.364 348.592ZM182.014 352.552L182.806 353.344C181.606 354.544 180.046 355.12 178.486 355.12C175.15 355.12 172.39 352.816 172.39 349.072C172.39 345.328 175.054 343.024 178.486 343.024C180.046 343.024 181.606 343.624 182.806 344.8L182.038 345.544C181.078 344.584 179.758 344.128 178.486 344.128C175.798 344.128 173.542 345.88 173.542 349.072C173.542 352.264 175.798 354.016 178.486 354.016C179.758 354.016 181.054 353.512 182.014 352.552ZM186.763 339.688L187.915 339.568V343.144H191.947V344.128H187.915V351.352C187.915 352.96 188.251 354.088 190.099 354.088C190.675 354.088 191.323 353.896 191.923 353.608L192.331 354.568C191.587 354.928 190.843 355.168 190.099 355.168C187.579 355.168 186.763 353.68 186.763 351.352V344.128H184.243V343.144H186.763V339.688ZM194.648 343.144H195.752L195.8 345.256C196.544 343.648 198.224 343.024 199.736 343.024C200.624 343 201.488 343.24 202.28 343.72L201.752 344.68C201.128 344.296 200.432 344.128 199.736 344.128C197.528 344.152 195.824 345.928 195.824 348.088V355H194.648V343.144ZM205.223 343.096V355H204.047V343.096H205.223ZM203.711 339.28C203.711 340.528 205.607 340.528 205.607 339.28C205.607 338.032 203.711 338.032 203.711 339.28ZM217.521 352.552L218.313 353.344C217.113 354.544 215.553 355.12 213.993 355.12C210.657 355.12 207.897 352.816 207.897 349.072C207.897 345.328 210.561 343.024 213.993 343.024C215.553 343.024 217.113 343.624 218.313 344.8L217.545 345.544C216.585 344.584 215.265 344.128 213.993 344.128C211.305 344.128 209.049 345.88 209.049 349.072C209.049 352.264 211.305 354.016 213.993 354.016C215.265 354.016 216.561 353.512 217.521 352.552ZM221.887 343.096V355H220.711V343.096H221.887ZM220.375 339.28C220.375 340.528 222.271 340.528 222.271 339.28C222.271 338.032 220.375 338.032 220.375 339.28ZM235.482 343.144H236.658C236.658 347.104 236.658 351.04 236.658 355H235.482V352.48C234.33 354.328 232.554 355.192 230.634 355.192C227.322 355.192 224.61 352.696 224.61 349.072C224.61 345.448 227.322 343 230.634 343C232.554 343 234.498 343.888 235.482 345.736V343.144ZM230.634 344.128C227.946 344.128 225.786 346.096 225.786 349.072C225.786 352.048 227.946 354.04 230.634 354.04C237.234 354.04 237.234 344.128 230.634 344.128ZM239.859 343.144H241.011V345.256C241.923 343.624 243.579 342.952 245.235 342.928C248.403 342.928 250.587 344.872 250.587 348.16V355H249.411V348.184C249.411 345.496 247.755 344.056 245.187 344.08C242.739 344.104 241.035 345.952 241.035 348.4V355H239.859V343.144ZM262.52 344.536L261.8 345.304C260.6 344.248 259.424 344.056 258.104 344.056C256.256 344.032 254.48 344.728 254.528 346.24C254.576 347.824 256.64 348.136 258.128 348.4C260.24 348.76 263.144 349.12 263.024 351.88C262.952 354.496 260.24 355.192 258.152 355.192C256.064 355.192 254 354.4 252.968 352.816L253.832 352.048C254.816 353.464 256.592 354.064 258.176 354.064C259.616 354.064 261.8 353.68 261.872 351.808C261.92 350.104 259.952 349.768 258.008 349.456C255.704 349.072 253.424 348.64 253.4 346.264C253.376 343.936 255.704 342.928 258.104 342.952C259.832 342.952 261.344 343.432 262.52 344.536ZM282.474 343.144H283.65C283.65 347.104 283.65 351.04 283.65 355H282.474V352.48C281.322 354.328 279.546 355.192 277.626 355.192C274.314 355.192 271.602 352.696 271.602 349.072C271.602 345.448 274.314 343 277.626 343C279.546 343 281.49 343.888 282.474 345.736V343.144ZM277.626 344.128C274.938 344.128 272.778 346.096 272.778 349.072C272.778 352.048 274.938 354.04 277.626 354.04C284.226 354.04 284.226 344.128 277.626 344.128ZM286.851 343.144H288.003V345.256C288.915 343.624 290.571 342.952 292.227 342.928C295.395 342.928 297.579 344.872 297.579 348.16V355H296.403V348.184C296.403 345.496 294.747 344.056 292.179 344.08C289.731 344.104 288.027 345.952 288.027 348.4V355H286.851V343.144ZM306.008 344.08C303.344 344.08 301.16 345.736 301.16 349.072C301.16 352.36 303.344 354.04 306.008 354.04C308.792 354.04 310.856 352 310.856 349.048C310.856 346.096 308.744 344.08 306.008 344.08ZM310.88 338.2H312.032V355H310.88V352.384C309.896 354.184 307.952 355.192 305.936 355.192C302.624 355.192 300.008 353.008 300.008 349.072C300.008 345.16 302.648 342.952 305.96 342.952C308 342.952 309.92 343.816 310.88 345.736V338.2ZM42.9143 378.088C45.6023 378.088 47.7623 376.408 47.7623 373.072C47.7623 369.736 45.6023 368.104 42.9143 368.104C40.1543 368.104 38.1143 370.192 38.1143 373.096C38.1143 376 40.2023 378.088 42.9143 378.088ZM38.0183 383.944H36.8903V367.144H38.0423V369.952C38.9783 368.152 40.8743 366.976 43.1783 366.976C46.3943 367.096 48.9383 369.256 48.9383 373.072C48.9383 377.056 46.2503 379.216 42.9143 379.216C40.8983 379.216 39.0263 378.232 38.0183 376.264V383.944ZM51.82 362.2H52.996V379H51.82V362.2ZM66.9771 379H65.8251V376.864C64.9131 378.496 63.2571 379.168 61.6011 379.192C58.4331 379.192 56.2491 377.248 56.2491 373.96V367.12H57.4251V373.936C57.4251 376.624 59.0811 378.064 61.6491 378.04C64.0971 378.016 65.8011 376.168 65.8011 373.72V367.12H66.9771V379ZM88.8218 379H87.6458V371.896C87.6458 369.616 86.1098 368.008 83.8538 368.008C81.5978 368.008 80.0378 369.688 80.0378 371.968V379H78.8618V371.968C78.8618 369.688 77.3018 368.032 75.0458 368.032C72.7898 368.032 71.2538 369.688 71.2538 371.968V379H70.0778V367.144H71.1818L71.2058 369.112C72.0218 367.552 73.5338 366.904 75.0698 366.904C76.8698 366.904 78.7658 367.72 79.4618 369.832C80.1818 367.888 82.0298 366.904 83.8538 366.904C86.7578 366.904 88.8218 368.944 88.8218 371.896V379ZM98.1565 368.08C95.4205 368.08 93.3085 370.096 93.3085 373.048C93.3085 376 95.3725 378.04 98.1565 378.04C100.821 378.04 103.005 376.36 103.005 373.072C103.005 369.736 100.821 368.08 98.1565 368.08ZM92.1325 362.2H93.2845V369.736C94.2445 367.816 96.1645 366.952 98.2045 366.952C101.517 366.952 104.157 369.16 104.157 373.072C104.157 377.008 101.541 379.192 98.2285 379.192C96.2125 379.192 94.2685 378.184 93.2845 376.384V379H92.1325V362.2ZM112.391 379.168C109.055 379.168 106.367 376.84 106.367 373.072C106.367 369.52 109.055 366.952 112.391 366.952C115.727 366.952 118.703 368.992 118.247 373.624H107.567C107.807 376.408 109.943 378.016 112.391 378.016C113.951 378.016 115.775 377.392 116.663 376.216L117.503 376.888C116.351 378.4 114.287 379.168 112.391 379.168ZM107.567 372.592H117.191C117.167 369.664 115.247 368.032 112.391 368.032C109.943 368.032 107.831 369.688 107.567 372.592ZM121.289 367.144H122.393L122.441 369.256C123.185 367.648 124.865 367.024 126.377 367.024C127.265 367 128.129 367.24 128.921 367.72L128.393 368.68C127.769 368.296 127.073 368.128 126.377 368.128C124.169 368.152 122.465 369.928 122.465 372.088V379H121.289V367.144ZM139.543 368.536L138.823 369.304C137.623 368.248 136.447 368.056 135.127 368.056C133.279 368.032 131.503 368.728 131.551 370.24C131.599 371.824 133.663 372.136 135.151 372.4C137.263 372.76 140.167 373.12 140.047 375.88C139.975 378.496 137.263 379.192 135.175 379.192C133.087 379.192 131.023 378.4 129.991 376.816L130.855 376.048C131.839 377.464 133.615 378.064 135.199 378.064C136.639 378.064 138.823 377.68 138.895 375.808C138.943 374.104 136.975 373.768 135.031 373.456C132.727 373.072 130.447 372.64 130.423 370.264C130.399 367.936 132.727 366.928 135.127 366.952C136.855 366.952 138.367 367.432 139.543 368.536ZM142.592 371.08C142.592 369.832 144.488 369.832 144.488 371.08C144.488 372.328 142.592 372.328 142.592 371.08ZM142.592 378.28C142.592 377.032 144.488 377.032 144.488 378.28C144.488 378.424 144.464 378.544 144.416 378.688L143.456 381.136H142.424L143.168 379.144C142.856 379.024 142.592 378.736 142.592 378.28ZM160.336 368.08C157.6 368.08 155.488 370.096 155.488 373.048C155.488 376 157.552 378.04 160.336 378.04C163 378.04 165.184 376.36 165.184 373.072C165.184 369.736 163 368.08 160.336 368.08ZM154.312 362.2H155.464V369.736C156.424 367.816 158.344 366.952 160.384 366.952C163.696 366.952 166.336 369.16 166.336 373.072C166.336 377.008 163.72 379.192 160.408 379.192C158.392 379.192 156.448 378.184 155.464 376.384V379H154.312V362.2ZM169.218 367.144H170.322L170.37 369.256C171.114 367.648 172.794 367.024 174.306 367.024C175.194 367 176.058 367.24 176.85 367.72L176.322 368.68C175.698 368.296 175.002 368.128 174.306 368.128C172.098 368.152 170.394 369.928 170.394 372.088V379H169.218V367.144ZM188.841 367.144H190.017C190.017 371.104 190.017 375.04 190.017 379H188.841V376.48C187.689 378.328 185.913 379.192 183.993 379.192C180.681 379.192 177.969 376.696 177.969 373.072C177.969 369.448 180.681 367 183.993 367C185.913 367 187.857 367.888 188.841 369.736V367.144ZM183.993 368.128C181.305 368.128 179.145 370.096 179.145 373.072C179.145 376.048 181.305 378.04 183.993 378.04C190.593 378.04 190.593 368.128 183.993 368.128ZM193.218 367.144H194.37V369.256C195.282 367.624 196.938 366.952 198.594 366.928C201.762 366.928 203.946 368.872 203.946 372.16V379H202.77V372.184C202.77 369.496 201.114 368.056 198.546 368.08C196.098 368.104 194.394 369.952 194.394 372.4V379H193.218V367.144ZM212.375 368.08C209.711 368.08 207.527 369.736 207.527 373.072C207.527 376.36 209.711 378.04 212.375 378.04C215.159 378.04 217.223 376 217.223 373.048C217.223 370.096 215.111 368.08 212.375 368.08ZM217.247 362.2H218.399V379H217.247V376.384C216.263 378.184 214.319 379.192 212.303 379.192C208.991 379.192 206.375 377.008 206.375 373.072C206.375 369.16 209.015 366.952 212.327 366.952C214.367 366.952 216.287 367.816 217.247 369.736V362.2ZM237.326 376.552L238.118 377.344C236.918 378.544 235.358 379.12 233.798 379.12C230.462 379.12 227.702 376.816 227.702 373.072C227.702 369.328 230.366 367.024 233.798 367.024C235.358 367.024 236.918 367.624 238.118 368.8L237.35 369.544C236.39 368.584 235.07 368.128 233.798 368.128C231.11 368.128 228.854 369.88 228.854 373.072C228.854 376.264 231.11 378.016 233.798 378.016C235.07 378.016 236.366 377.512 237.326 376.552ZM246.336 379.168C243 379.168 240.312 376.84 240.312 373.072C240.312 369.52 243 366.952 246.336 366.952C249.672 366.952 252.648 368.992 252.192 373.624H241.512C241.752 376.408 243.888 378.016 246.336 378.016C247.896 378.016 249.72 377.392 250.608 376.216L251.448 376.888C250.296 378.4 248.232 379.168 246.336 379.168ZM241.512 372.592H251.136C251.112 369.664 249.192 368.032 246.336 368.032C243.888 368.032 241.776 369.688 241.512 372.592ZM255.234 367.144H256.338L256.386 369.256C257.13 367.648 258.81 367.024 260.322 367.024C261.21 367 262.074 367.24 262.866 367.72L262.338 368.68C261.714 368.296 261.018 368.128 260.322 368.128C258.114 368.152 256.41 369.928 256.41 372.088V379H255.234V367.144ZM266.943 363.688L268.095 363.568V367.144H272.127V368.128H268.095V375.352C268.095 376.96 268.431 378.088 270.279 378.088C270.855 378.088 271.503 377.896 272.103 377.608L272.511 378.568C271.767 378.928 271.023 379.168 270.279 379.168C267.759 379.168 266.943 377.68 266.943 375.352V368.128H264.423V367.144H266.943V363.688ZM276.004 367.096V379H274.828V367.096H276.004ZM274.492 363.28C274.492 364.528 276.388 364.528 276.388 363.28C276.388 362.032 274.492 362.032 274.492 363.28ZM281.751 379H280.599V368.272H278.175V367.24H280.599V366.184C280.599 363.832 281.535 362.128 284.151 362.128C285.039 362.128 285.831 362.44 286.503 362.944L285.927 363.808C285.279 363.424 284.823 363.208 284.103 363.208C282.615 363.208 281.751 364.12 281.751 366.184V367.24H285.663V368.272H281.751V379ZM289.363 367.096V379H288.187V367.096H289.363ZM287.851 363.28C287.851 364.528 289.747 364.528 289.747 363.28C289.747 362.032 287.851 362.032 287.851 363.28ZM298.086 379.168C294.75 379.168 292.062 376.84 292.062 373.072C292.062 369.52 294.75 366.952 298.086 366.952C301.422 366.952 304.398 368.992 303.942 373.624H293.262C293.502 376.408 295.638 378.016 298.086 378.016C299.646 378.016 301.47 377.392 302.358 376.216L303.198 376.888C302.046 378.4 299.982 379.168 298.086 379.168ZM293.262 372.592H302.886C302.862 369.664 300.942 368.032 298.086 368.032C295.638 368.032 293.526 369.688 293.262 372.592ZM312.336 368.08C309.672 368.08 307.488 369.736 307.488 373.072C307.488 376.36 309.672 378.04 312.336 378.04C315.12 378.04 317.184 376 317.184 373.048C317.184 370.096 315.072 368.08 312.336 368.08ZM317.208 362.2H318.36V379H317.208V376.384C316.224 378.184 314.28 379.192 312.264 379.192C308.952 379.192 306.336 377.008 306.336 373.072C306.336 369.16 308.976 366.952 312.288 366.952C314.328 366.952 316.248 367.816 317.208 369.736V362.2ZM131.043 391.096V403H129.867V391.096H131.043ZM129.531 387.28C129.531 388.528 131.427 388.528 131.427 387.28C131.427 386.032 129.531 386.032 129.531 387.28ZM134.414 391.144H135.566V393.256C136.478 391.624 138.134 390.952 139.79 390.928C142.958 390.928 145.142 392.872 145.142 396.16V403H143.966V396.184C143.966 393.496 142.31 392.056 139.742 392.08C137.294 392.104 135.59 393.952 135.59 396.4V403H134.414V391.144ZM157.074 392.536L156.354 393.304C155.154 392.248 153.978 392.056 152.658 392.056C150.81 392.032 149.034 392.728 149.082 394.24C149.13 395.824 151.194 396.136 152.682 396.4C154.794 396.76 157.698 397.12 157.578 399.88C157.506 402.496 154.794 403.192 152.706 403.192C150.618 403.192 148.554 402.4 147.522 400.816L148.386 400.048C149.37 401.464 151.146 402.064 152.73 402.064C154.17 402.064 156.354 401.68 156.426 399.808C156.474 398.104 154.506 397.768 152.562 397.456C150.258 397.072 147.978 396.64 147.954 394.264C147.93 391.936 150.258 390.928 152.658 390.952C154.386 390.952 155.898 391.432 157.074 392.536ZM161.755 387.688L162.907 387.568V391.144H166.939V392.128H162.907V399.352C162.907 400.96 163.243 402.088 165.091 402.088C165.667 402.088 166.315 401.896 166.915 401.608L167.323 402.568C166.579 402.928 165.835 403.168 165.091 403.168C162.571 403.168 161.755 401.68 161.755 399.352V392.128H159.235V391.144H161.755V387.688ZM179.864 391.144H181.04C181.04 395.104 181.04 399.04 181.04 403H179.864V400.48C178.712 402.328 176.936 403.192 175.016 403.192C171.704 403.192 168.992 400.696 168.992 397.072C168.992 393.448 171.704 391 175.016 391C176.936 391 178.88 391.888 179.864 393.736V391.144ZM175.016 392.128C172.328 392.128 170.168 394.096 170.168 397.072C170.168 400.048 172.328 402.04 175.016 402.04C181.616 402.04 181.616 392.128 175.016 392.128ZM184.242 386.2H185.418V403H184.242V386.2ZM188.695 386.2H189.871V403H188.695V386.2ZM198.5 403.168C195.164 403.168 192.476 400.84 192.476 397.072C192.476 393.52 195.164 390.952 198.5 390.952C201.836 390.952 204.812 392.992 204.356 397.624H193.676C193.916 400.408 196.052 402.016 198.5 402.016C200.06 402.016 201.884 401.392 202.772 400.216L203.612 400.888C202.46 402.4 200.396 403.168 198.5 403.168ZM193.676 396.592H203.3C203.276 393.664 201.356 392.032 198.5 392.032C196.052 392.032 193.94 393.688 193.676 396.592ZM207.398 391.144H208.502L208.55 393.256C209.294 391.648 210.974 391.024 212.486 391.024C213.374 391 214.238 391.24 215.03 391.72L214.502 392.68C213.878 392.296 213.182 392.128 212.486 392.128C210.278 392.152 208.574 393.928 208.574 396.088V403H207.398V391.144ZM225.653 392.536L224.933 393.304C223.733 392.248 222.557 392.056 221.237 392.056C219.389 392.032 217.613 392.728 217.661 394.24C217.709 395.824 219.773 396.136 221.261 396.4C223.373 396.76 226.277 397.12 226.157 399.88C226.085 402.496 223.373 403.192 221.285 403.192C219.197 403.192 217.133 402.4 216.101 400.816L216.965 400.048C217.949 401.464 219.725 402.064 221.309 402.064C222.749 402.064 224.933 401.68 225.005 399.808C225.053 398.104 223.085 397.768 221.141 397.456C218.837 397.072 216.557 396.64 216.533 394.264C216.509 391.936 218.837 390.928 221.237 390.952C222.965 390.952 224.477 391.432 225.653 392.536Z" fill="black"/>
</svg>
