<svg width="686" height="374" viewBox="0 0 686 374" fill="none" xmlns="http://www.w3.org/2000/svg">
<path d="M31.224 20.864L28.944 23.296C25.144 19.952 21.42 19.344 17.24 19.344C11.388 19.268 5.764 21.472 5.916 26.26C6.068 31.276 12.604 32.264 17.316 33.1C24.004 34.24 33.2 35.38 32.82 44.12C32.592 52.404 24.004 54.608 17.392 54.608C10.78 54.608 4.244 52.1 0.976 47.084L3.712 44.652C6.828 49.136 12.452 51.036 17.468 51.036C22.028 51.036 28.944 49.82 29.172 43.892C29.324 38.496 23.092 37.432 16.936 36.444C9.64 35.228 2.42 33.86 2.344 26.336C2.268 18.964 9.64 15.772 17.24 15.848C22.712 15.848 27.5 17.368 31.224 20.864ZM75.0018 54H71.3538V47.236C68.4658 52.404 63.2218 54.532 57.9778 54.608C47.9458 54.608 41.0298 48.452 41.0298 38.04V16.38H44.7538V37.964C44.7538 46.476 49.9978 51.036 58.1298 50.96C65.8818 50.884 71.2778 45.032 71.2778 37.28V16.38H75.0018V54ZM103.897 51.112C112.409 51.112 119.249 45.792 119.249 35.228C119.249 24.664 112.409 19.496 103.897 19.496C95.1566 19.496 88.6966 26.108 88.6966 35.304C88.6966 44.5 95.3086 51.112 103.897 51.112ZM88.3926 69.656H84.8206V16.456H88.4686V25.348C91.4326 19.648 97.4366 15.924 104.733 15.924C114.917 16.304 122.973 23.144 122.973 35.228C122.973 47.844 114.461 54.684 103.897 54.684C97.5126 54.684 91.5846 51.568 88.3926 45.336V69.656ZM151.174 51.112C159.686 51.112 166.526 45.792 166.526 35.228C166.526 24.664 159.686 19.496 151.174 19.496C142.434 19.496 135.974 26.108 135.974 35.304C135.974 44.5 142.586 51.112 151.174 51.112ZM135.67 69.656H132.098V16.456H135.746V25.348C138.71 19.648 144.714 15.924 152.01 15.924C162.194 16.304 170.25 23.144 170.25 35.228C170.25 47.844 161.738 54.684 151.174 54.684C144.79 54.684 138.862 51.568 135.67 45.336V69.656ZM179.375 0.799996H183.099V54H179.375V0.799996ZM222.263 16.456H226.291L203.415 69.656H199.463L206.379 53.544L191.331 16.456H195.359L204.099 38.648L208.507 49.516L212.839 38.572L222.263 16.456ZM237.205 16.304V54H233.481V16.304H237.205ZM232.417 4.22C232.417 8.172 238.421 8.172 238.421 4.22C238.421 0.267999 232.417 0.267999 232.417 4.22ZM247.879 16.456H251.527V23.144C254.415 17.976 259.659 15.848 264.903 15.772C274.935 15.772 281.851 21.928 281.851 32.34V54H278.127V32.416C278.127 23.904 272.883 19.344 264.751 19.42C256.999 19.496 251.603 25.348 251.603 33.1V54H247.879V16.456ZM318.118 19.192L321.766 14.936L324.198 17.064L320.55 21.32C323.21 24.208 325.186 28.008 325.186 34.088C325.186 40.624 321.31 47.236 315.078 50.048C321.69 52.404 325.338 57.04 325.338 63.5C325.338 73.608 317.434 78.472 307.478 78.472C297.522 78.472 289.694 73 289.694 63.5H293.418C293.418 71.176 299.954 74.824 307.478 74.824C315.002 74.824 321.69 71.48 321.69 63.5C321.69 55.444 314.47 52.252 307.478 52.252C296.61 52.252 289.846 44.12 289.846 34.088C289.846 22.384 297.75 15.772 307.478 15.772C311.278 15.772 315.23 17.14 318.118 19.192ZM307.478 19.496C299.802 19.496 293.57 24.284 293.57 34.088C293.57 41.84 298.89 48.528 307.478 48.528C315.23 48.528 321.538 41.84 321.538 34.088C321.538 24.588 315.23 19.496 307.478 19.496ZM35.556 92.456H39.28C39.28 104.996 39.28 117.46 39.28 130H35.556V122.02C31.908 127.872 26.284 130.608 20.204 130.608C9.716 130.608 1.128 122.704 1.128 111.228C1.128 99.752 9.716 92 20.204 92C26.284 92 32.44 94.812 35.556 100.664V92.456ZM20.204 95.572C11.692 95.572 4.852 101.804 4.852 111.228C4.852 120.652 11.692 126.96 20.204 126.96C41.104 126.96 41.104 95.572 20.204 95.572ZM68.4943 127.112C77.0063 127.112 83.8463 121.792 83.8463 111.228C83.8463 100.664 77.0063 95.496 68.4943 95.496C59.7543 95.496 53.2943 102.108 53.2943 111.304C53.2943 120.5 59.9063 127.112 68.4943 127.112ZM52.9903 145.656H49.4183V92.456H53.0663V101.348C56.0303 95.648 62.0343 91.924 69.3303 91.924C79.5143 92.304 87.5703 99.144 87.5703 111.228C87.5703 123.844 79.0583 130.684 68.4943 130.684C62.1103 130.684 56.1823 127.568 52.9903 121.336V145.656ZM115.772 127.112C124.284 127.112 131.124 121.792 131.124 111.228C131.124 100.664 124.284 95.496 115.772 95.496C107.032 95.496 100.572 102.108 100.572 111.304C100.572 120.5 107.184 127.112 115.772 127.112ZM100.268 145.656H96.6956V92.456H100.344V101.348C103.308 95.648 109.312 91.924 116.608 91.924C126.792 92.304 134.848 99.144 134.848 111.228C134.848 123.844 126.336 130.684 115.772 130.684C109.388 130.684 103.46 127.568 100.268 121.336V145.656ZM143.973 76.8H147.697V130H143.973V76.8ZM161.799 92.304V130H158.075V92.304H161.799ZM157.011 80.22C157.011 84.172 163.015 84.172 163.015 80.22C163.015 76.268 157.011 76.268 157.011 80.22ZM204.849 92.456H208.573C208.573 104.996 208.573 117.46 208.573 130H204.849V122.02C201.201 127.872 195.577 130.608 189.497 130.608C179.009 130.608 170.421 122.704 170.421 111.228C170.421 99.752 179.009 92 189.497 92C195.577 92 201.733 94.812 204.849 100.664V92.456ZM189.497 95.572C180.985 95.572 174.145 101.804 174.145 111.228C174.145 120.652 180.985 126.96 189.497 126.96C210.397 126.96 210.397 95.572 189.497 95.572ZM218.711 92.456H222.359V99.144C225.247 93.976 230.491 91.848 235.735 91.772C245.767 91.772 252.683 97.928 252.683 108.34V130H248.959V108.416C248.959 99.904 243.715 95.344 235.583 95.42C227.831 95.496 222.435 101.348 222.435 109.1V130H218.711V92.456ZM290.698 122.248L293.206 124.756C289.406 128.556 284.466 130.38 279.526 130.38C268.962 130.38 260.222 123.084 260.222 111.228C260.222 99.372 268.658 92.076 279.526 92.076C284.466 92.076 289.406 93.976 293.206 97.7L290.774 100.056C287.734 97.016 283.554 95.572 279.526 95.572C271.014 95.572 263.87 101.12 263.87 111.228C263.87 121.336 271.014 126.884 279.526 126.884C283.554 126.884 287.658 125.288 290.698 122.248ZM319.23 130.532C308.666 130.532 300.154 123.16 300.154 111.228C300.154 99.98 308.666 91.848 319.23 91.848C329.794 91.848 339.218 98.308 337.774 112.976H303.954C304.714 121.792 311.478 126.884 319.23 126.884C324.17 126.884 329.946 124.908 332.758 121.184L335.418 123.312C331.77 128.1 325.234 130.532 319.23 130.532ZM303.954 109.708H334.43C334.354 100.436 328.274 95.268 319.23 95.268C311.478 95.268 304.79 100.512 303.954 109.708ZM375.451 96.864L373.171 99.296C369.371 95.952 365.647 95.344 361.467 95.344C355.615 95.268 349.991 97.472 350.143 102.26C350.295 107.276 356.831 108.264 361.543 109.1C368.231 110.24 377.427 111.38 377.047 120.12C376.819 128.404 368.231 130.608 361.619 130.608C355.007 130.608 348.471 128.1 345.203 123.084L347.939 120.652C351.055 125.136 356.679 127.036 361.695 127.036C366.255 127.036 373.171 125.82 373.399 119.892C373.551 114.496 367.319 113.432 361.163 112.444C353.867 111.228 346.647 109.86 346.571 102.336C346.495 94.964 353.867 91.772 361.467 91.848C366.939 91.848 371.727 93.368 375.451 96.864ZM8.12 157.512L11.768 157.132V168.456H24.536V171.572H11.768V194.448C11.768 199.54 12.832 203.112 18.684 203.112C20.508 203.112 22.56 202.504 24.46 201.592L25.752 204.632C23.396 205.772 21.04 206.532 18.684 206.532C10.704 206.532 8.12 201.82 8.12 194.448V171.572H0.14V168.456H8.12V157.512ZM50.4182 206.532C39.8542 206.532 31.3422 199.236 31.3422 187.304C31.3422 175.372 39.8542 167.772 50.4182 167.772C60.9822 167.772 69.4942 175.372 69.4942 187.304C69.4942 199.236 60.9822 206.532 50.4182 206.532ZM50.4182 202.884C58.9302 202.884 65.8462 197.032 65.8462 187.304C65.8462 177.576 58.9302 171.268 50.4182 171.268C41.9062 171.268 34.9902 177.576 34.9902 187.304C34.9902 197.032 41.9062 202.884 50.4182 202.884ZM118.072 171.42C109.408 171.42 102.72 177.804 102.72 187.152C102.72 196.5 109.256 202.96 118.072 202.96C126.508 202.96 133.424 197.64 133.424 187.228C133.424 176.664 126.508 171.42 118.072 171.42ZM98.9964 152.8H102.644V176.664C105.684 170.584 111.764 167.848 118.224 167.848C128.712 167.848 137.072 174.84 137.072 187.228C137.072 199.692 128.788 206.608 118.3 206.608C111.916 206.608 105.76 203.416 102.644 197.716V206H98.9964V152.8ZM163.528 206.532C152.964 206.532 144.452 199.236 144.452 187.304C144.452 175.372 152.964 167.772 163.528 167.772C174.092 167.772 182.604 175.372 182.604 187.304C182.604 199.236 174.092 206.532 163.528 206.532ZM163.528 202.884C172.04 202.884 178.956 197.032 178.956 187.304C178.956 177.576 172.04 171.268 163.528 171.268C155.016 171.268 148.1 177.576 148.1 187.304C148.1 197.032 155.016 202.884 163.528 202.884ZM195.374 157.512L199.022 157.132V168.456H211.79V171.572H199.022V194.448C199.022 199.54 200.086 203.112 205.938 203.112C207.762 203.112 209.814 202.504 211.714 201.592L213.006 204.632C210.65 205.772 208.294 206.532 205.938 206.532C197.958 206.532 195.374 201.82 195.374 194.448V171.572H187.394V168.456H195.374V157.512ZM220.344 152.8H223.916V175.448C226.956 170.052 232.2 168 237.444 167.924C247.932 167.924 253.176 174.688 253.176 184.492V206H249.528V184.492C249.528 176.74 245.88 171.496 237.444 171.496C229.54 171.496 224.068 177.576 224.068 185.404V206H220.344V152.8ZM312.073 198.248L314.581 200.756C310.781 204.556 305.841 206.38 300.901 206.38C290.337 206.38 281.597 199.084 281.597 187.228C281.597 175.372 290.033 168.076 300.901 168.076C305.841 168.076 310.781 169.976 314.581 173.7L312.149 176.056C309.109 173.016 304.929 171.572 300.901 171.572C292.389 171.572 285.245 177.12 285.245 187.228C285.245 197.336 292.389 202.884 300.901 202.884C304.929 202.884 309.033 201.288 312.073 198.248ZM340.242 206.532C329.678 206.532 321.166 199.236 321.166 187.304C321.166 175.372 329.678 167.772 340.242 167.772C350.806 167.772 359.318 175.372 359.318 187.304C359.318 199.236 350.806 206.532 340.242 206.532ZM340.242 202.884C348.754 202.884 355.67 197.032 355.67 187.304C355.67 177.576 348.754 171.268 340.242 171.268C331.73 171.268 324.814 177.576 324.814 187.304C324.814 197.032 331.73 202.884 340.242 202.884ZM427.247 206H423.523V183.504C423.523 176.284 418.659 171.192 411.515 171.192C404.371 171.192 399.431 176.512 399.431 183.732V206H395.707V183.732C395.707 176.512 390.767 171.268 383.623 171.268C376.479 171.268 371.615 176.512 371.615 183.732V206H367.891V168.456H371.387L371.463 174.688C374.047 169.748 378.835 167.696 383.699 167.696C389.399 167.696 395.403 170.28 397.607 176.968C399.887 170.812 405.739 167.696 411.515 167.696C420.711 167.696 427.247 174.156 427.247 183.504V206ZM497.087 206H493.363V183.504C493.363 176.284 488.499 171.192 481.355 171.192C474.211 171.192 469.271 176.512 469.271 183.732V206H465.547V183.732C465.547 176.512 460.607 171.268 453.463 171.268C446.319 171.268 441.455 176.512 441.455 183.732V206H437.731V168.456H441.227L441.303 174.688C443.887 169.748 448.675 167.696 453.539 167.696C459.239 167.696 465.243 170.28 467.447 176.968C469.727 170.812 475.579 167.696 481.355 167.696C490.551 167.696 497.087 174.156 497.087 183.504V206ZM524.519 206.532C513.955 206.532 505.443 199.16 505.443 187.228C505.443 175.98 513.955 167.848 524.519 167.848C535.083 167.848 544.507 174.308 543.063 188.976H509.243C510.003 197.792 516.767 202.884 524.519 202.884C529.459 202.884 535.235 200.908 538.047 197.184L540.707 199.312C537.059 204.1 530.523 206.532 524.519 206.532ZM509.243 185.708H539.719C539.643 176.436 533.563 171.268 524.519 171.268C516.767 171.268 510.079 176.512 509.243 185.708ZM552.696 168.456H556.192L556.344 175.144C558.7 170.052 564.02 168.076 568.808 168.076C571.62 168 574.356 168.76 576.864 170.28L575.192 173.32C573.216 172.104 571.012 171.572 568.808 171.572C561.816 171.648 556.42 177.272 556.42 184.112V206H552.696V168.456ZM610.729 198.248L613.237 200.756C609.437 204.556 604.497 206.38 599.557 206.38C588.993 206.38 580.253 199.084 580.253 187.228C580.253 175.372 588.689 168.076 599.557 168.076C604.497 168.076 609.437 169.976 613.237 173.7L610.805 176.056C607.765 173.016 603.585 171.572 599.557 171.572C591.045 171.572 583.901 177.12 583.901 187.228C583.901 197.336 591.045 202.884 599.557 202.884C603.585 202.884 607.689 201.288 610.729 198.248ZM624.552 168.304V206H620.828V168.304H624.552ZM619.764 156.22C619.764 160.172 625.768 160.172 625.768 156.22C625.768 152.268 619.764 152.268 619.764 156.22ZM667.603 168.456H671.327C671.327 180.996 671.327 193.46 671.327 206H667.603V198.02C663.955 203.872 658.331 206.608 652.251 206.608C641.763 206.608 633.175 198.704 633.175 187.228C633.175 175.752 641.763 168 652.251 168C658.331 168 664.487 170.812 667.603 176.664V168.456ZM652.251 171.572C643.739 171.572 636.899 177.804 636.899 187.228C636.899 196.652 643.739 202.96 652.251 202.96C673.151 202.96 673.151 171.572 652.251 171.572ZM681.465 152.8H685.189V206H681.465V152.8ZM35.556 244.456H39.28C39.28 256.996 39.28 269.46 39.28 282H35.556V274.02C31.908 279.872 26.284 282.608 20.204 282.608C9.716 282.608 1.128 274.704 1.128 263.228C1.128 251.752 9.716 244 20.204 244C26.284 244 32.44 246.812 35.556 252.664V244.456ZM20.204 247.572C11.692 247.572 4.852 253.804 4.852 263.228C4.852 272.652 11.692 278.96 20.204 278.96C41.104 278.96 41.104 247.572 20.204 247.572ZM49.4183 244.456H53.0663V251.144C55.9543 245.976 61.1983 243.848 66.4423 243.772C76.4743 243.772 83.3903 249.928 83.3903 260.34V282H79.6663V260.416C79.6663 251.904 74.4223 247.344 66.2903 247.42C58.5383 247.496 53.1423 253.348 53.1423 261.1V282H49.4183V244.456ZM110.081 247.42C101.645 247.42 94.7291 252.664 94.7291 263.228C94.7291 273.64 101.645 278.96 110.081 278.96C118.897 278.96 125.433 272.5 125.433 263.152C125.433 253.804 118.745 247.42 110.081 247.42ZM125.509 228.8H129.157V282H125.509V273.716C122.393 279.416 116.237 282.608 109.853 282.608C99.3651 282.608 91.0811 275.692 91.0811 263.228C91.0811 250.84 99.4411 243.848 109.929 243.848C116.389 243.848 122.469 246.584 125.509 252.664V228.8ZM160.821 244.456H164.317L164.469 251.144C166.825 246.052 172.145 244.076 176.933 244.076C179.745 244 182.481 244.76 184.989 246.28L183.317 249.32C181.341 248.104 179.137 247.572 176.933 247.572C169.941 247.648 164.545 253.272 164.545 260.112V282H160.821V244.456ZM207.53 282.532C196.966 282.532 188.454 275.16 188.454 263.228C188.454 251.98 196.966 243.848 207.53 243.848C218.094 243.848 227.518 250.308 226.074 264.976H192.254C193.014 273.792 199.778 278.884 207.53 278.884C212.47 278.884 218.246 276.908 221.058 273.184L223.718 275.312C220.07 280.1 213.534 282.532 207.53 282.532ZM192.254 261.708H222.73C222.654 252.436 216.574 247.268 207.53 247.268C199.778 247.268 193.09 252.512 192.254 261.708ZM263.751 248.864L261.471 251.296C257.671 247.952 253.947 247.344 249.767 247.344C243.915 247.268 238.291 249.472 238.443 254.26C238.595 259.276 245.131 260.264 249.843 261.1C256.531 262.24 265.727 263.38 265.347 272.12C265.119 280.404 256.531 282.608 249.919 282.608C243.307 282.608 236.771 280.1 233.503 275.084L236.239 272.652C239.355 277.136 244.979 279.036 249.995 279.036C254.555 279.036 261.471 277.82 261.699 271.892C261.851 266.496 255.619 265.432 249.463 264.444C242.167 263.228 234.947 261.86 234.871 254.336C234.795 246.964 242.167 243.772 249.767 243.848C255.239 243.848 260.027 245.368 263.751 248.864ZM277.357 244.304V282H273.633V244.304H277.357ZM272.569 232.22C272.569 236.172 278.573 236.172 278.573 232.22C278.573 228.268 272.569 228.268 272.569 232.22ZM304.98 247.42C296.544 247.42 289.628 252.664 289.628 263.228C289.628 273.64 296.544 278.96 304.98 278.96C313.796 278.96 320.332 272.5 320.332 263.152C320.332 253.804 313.644 247.42 304.98 247.42ZM320.408 228.8H324.056V282H320.408V273.716C317.292 279.416 311.136 282.608 304.752 282.608C294.264 282.608 285.98 275.692 285.98 263.228C285.98 250.84 294.34 243.848 304.828 243.848C311.288 243.848 317.368 246.584 320.408 252.664V228.8ZM352.554 282.532C341.99 282.532 333.478 275.16 333.478 263.228C333.478 251.98 341.99 243.848 352.554 243.848C363.118 243.848 372.542 250.308 371.098 264.976H337.278C338.038 273.792 344.802 278.884 352.554 278.884C357.494 278.884 363.27 276.908 366.082 273.184L368.742 275.312C365.094 280.1 358.558 282.532 352.554 282.532ZM337.278 261.708H367.754C367.678 252.436 361.598 247.268 352.554 247.268C344.802 247.268 338.114 252.512 337.278 261.708ZM380.731 244.456H384.379V251.144C387.267 245.976 392.511 243.848 397.755 243.772C407.787 243.772 414.703 249.928 414.703 260.34V282H410.979V260.416C410.979 251.904 405.735 247.344 397.603 247.42C389.851 247.496 384.455 253.348 384.455 261.1V282H380.731V244.456ZM427.753 233.512L431.401 233.132V244.456H444.169V247.572H431.401V270.448C431.401 275.54 432.465 279.112 438.317 279.112C440.141 279.112 442.193 278.504 444.093 277.592L445.385 280.632C443.029 281.772 440.673 282.532 438.317 282.532C430.337 282.532 427.753 277.82 427.753 270.448V247.572H419.773V244.456H427.753V233.512ZM456.447 244.304V282H452.723V244.304H456.447ZM451.659 232.22C451.659 236.172 457.663 236.172 457.663 232.22C457.663 228.268 451.659 228.268 451.659 232.22ZM499.497 244.456H503.221C503.221 256.996 503.221 269.46 503.221 282H499.497V274.02C495.849 279.872 490.225 282.608 484.145 282.608C473.657 282.608 465.069 274.704 465.069 263.228C465.069 251.752 473.657 244 484.145 244C490.225 244 496.381 246.812 499.497 252.664V244.456ZM484.145 247.572C475.633 247.572 468.793 253.804 468.793 263.228C468.793 272.652 475.633 278.96 484.145 278.96C505.045 278.96 505.045 247.572 484.145 247.572ZM513.36 228.8H517.084V282H513.36V228.8ZM22.256 355.112C30.768 355.112 37.608 349.792 37.608 339.228C37.608 328.664 30.768 323.496 22.256 323.496C13.516 323.496 7.056 330.108 7.056 339.304C7.056 348.5 13.668 355.112 22.256 355.112ZM6.752 373.656H3.18V320.456H6.828V329.348C9.792 323.648 15.796 319.924 23.092 319.924C33.276 320.304 41.332 327.144 41.332 339.228C41.332 351.844 32.82 358.684 22.256 358.684C15.872 358.684 9.944 355.568 6.752 349.336V373.656ZM82.8333 320.456H86.5573C86.5573 332.996 86.5573 345.46 86.5573 358H82.8333V350.02C79.1853 355.872 73.5613 358.608 67.4813 358.608C56.9933 358.608 48.4053 350.704 48.4053 339.228C48.4053 327.752 56.9933 320 67.4813 320C73.5613 320 79.7173 322.812 82.8333 328.664V320.456ZM67.4813 323.572C58.9693 323.572 52.1293 329.804 52.1293 339.228C52.1293 348.652 58.9693 354.96 67.4813 354.96C88.3813 354.96 88.3813 323.572 67.4813 323.572ZM96.6956 320.456H100.192L100.344 327.144C102.7 322.052 108.02 320.076 112.808 320.076C115.62 320 118.356 320.76 120.864 322.28L119.192 325.32C117.216 324.104 115.012 323.572 112.808 323.572C105.816 323.648 100.42 329.272 100.42 336.112V358H96.6956V320.456ZM133.772 309.512L137.42 309.132V320.456H150.188V323.572H137.42V346.448C137.42 351.54 138.484 355.112 144.336 355.112C146.16 355.112 148.212 354.504 150.112 353.592L151.404 356.632C149.048 357.772 146.692 358.532 144.336 358.532C136.356 358.532 133.772 353.82 133.772 346.448V323.572H125.792V320.456H133.772V309.512ZM158.743 320.456H162.391V327.144C165.279 321.976 170.523 319.848 175.767 319.772C185.799 319.772 192.715 325.928 192.715 336.34V358H188.991V336.416C188.991 327.904 183.747 323.344 175.615 323.42C167.863 323.496 162.467 329.348 162.467 337.1V358H158.743V320.456ZM219.405 358.532C208.841 358.532 200.329 351.16 200.329 339.228C200.329 327.98 208.841 319.848 219.405 319.848C229.969 319.848 239.393 326.308 237.949 340.976H204.129C204.889 349.792 211.653 354.884 219.405 354.884C224.345 354.884 230.121 352.908 232.933 349.184L235.593 351.312C231.945 356.1 225.409 358.532 219.405 358.532ZM204.129 337.708H234.605C234.529 328.436 228.449 323.268 219.405 323.268C211.653 323.268 204.965 328.512 204.129 337.708ZM247.582 320.456H251.078L251.23 327.144C253.586 322.052 258.906 320.076 263.694 320.076C266.506 320 269.242 320.76 271.75 322.28L270.078 325.32C268.102 324.104 265.898 323.572 263.694 323.572C256.702 323.648 251.306 329.272 251.306 336.112V358H247.582V320.456ZM305.388 324.864L303.108 327.296C299.308 323.952 295.584 323.344 291.404 323.344C285.552 323.268 279.928 325.472 280.08 330.26C280.232 335.276 286.768 336.264 291.48 337.1C298.168 338.24 307.364 339.38 306.984 348.12C306.756 356.404 298.168 358.608 291.556 358.608C284.944 358.608 278.408 356.1 275.14 351.084L277.876 348.652C280.992 353.136 286.616 355.036 291.632 355.036C296.192 355.036 303.108 353.82 303.336 347.892C303.488 342.496 297.256 341.432 291.1 340.444C283.804 339.228 276.584 337.86 276.508 330.336C276.432 322.964 283.804 319.772 291.404 319.848C296.876 319.848 301.664 321.368 305.388 324.864Z" fill="white"/>
</svg>
